<svg xmlns="http://www.w3.org/2000/svg" width="21" height="23.999" viewBox="0 0 21 23.999">
  <g id="doc-svgrepo-com" transform="translate(-32)">
    <path id="Path_59936" data-name="Path 59936" d="M97.5,0A1.5,1.5,0,0,0,96,1.5v21A1.5,1.5,0,0,0,97.5,24h15a1.5,1.5,0,0,0,1.5-1.5V6l-6-6Z" transform="translate(-61)" fill="#e2e5e7"/>
    <path id="Path_59937" data-name="Path 59937" d="M353.5,6H358l-6-6V4.5A1.5,1.5,0,0,0,353.5,6Z" transform="translate(-305)" fill="#b0b7bd"/>
    <path id="Path_59938" data-name="Path 59938" d="M388.5,132.5,384,128h4.5Z" transform="translate(-335.5 -122)" fill="#cad1d8"/>
    <path id="Path_59939" data-name="Path 59939" d="M50,248.25a.752.752,0,0,1-.75.75H32.75a.752.752,0,0,1-.75-.75v-7.5a.752.752,0,0,1,.75-.75h16.5a.752.752,0,0,1,.75.75Z" transform="translate(0 -228.75)" fill="#50bee8"/>
    <g id="Group_17824" data-name="Group 17824" transform="translate(34.425 13.7)">
      <path id="Path_59940" data-name="Path 59940" d="M84.158,299.622a.376.376,0,0,1-.414-.372v-3.406a.407.407,0,0,1,.414-.372h1.373c2.74,0,2.68,4.15.053,4.15Zm.378-3.418v2.686h1c1.619,0,1.69-2.686,0-2.686Z" transform="translate(-83.744 -295.322)" fill="#fff"/>
      <path id="Path_59941" data-name="Path 59941" d="M182.021,296.632a2.094,2.094,0,0,1-2.261-2.159,2.2,2.2,0,0,1,4.408,0A2.091,2.091,0,0,1,182.021,296.632Zm-.066-3.58a1.422,1.422,0,1,0,1.427,1.421A1.372,1.372,0,0,0,181.955,293.052Z" transform="translate(-175.259 -292.272)" fill="#fff"/>
      <path id="Path_59942" data-name="Path 59942" d="M288.848,295.32a2.019,2.019,0,0,1,2.105-2.152,1.96,1.96,0,0,1,1.373.534.389.389,0,1,1-.534.563,1.035,1.035,0,0,0-.839-.329,1.3,1.3,0,0,0-1.366,1.385,1.319,1.319,0,0,0,1.366,1.427,1.4,1.4,0,0,0,.936-.384.4.4,0,0,1,.551.072.414.414,0,0,1-.066.563,2.176,2.176,0,0,1-3.526-1.679Z" transform="translate(-279.234 -293.126)" fill="#fff"/>
    </g>
    <path id="Path_59943" data-name="Path 59943" d="M110.25,416.75H96v.75h14.25a.752.752,0,0,0,.75-.75V416A.752.752,0,0,1,110.25,416.75Z" transform="translate(-61 -396.5)" fill="#cad1d8"/>
  </g>
</svg>
