<svg xmlns="http://www.w3.org/2000/svg" width="10.477" height="13.96" viewBox="0 0 10.477 13.96">
  <g id="icon_new_application" transform="translate(-11021.346 5313.021)">
    <path id="Path_59978" data-name="Path 59978" d="M3525.217,206.6c0-1.692,0-3.384,0-5.076a1.949,1.949,0,0,1,.354-1.193,1.743,1.743,0,0,1,1.47-.727c1.462-.016,2.925-.009,4.387,0a1.81,1.81,0,0,1,1.331.561c.772.783,1.552,1.559,2.332,2.334a1.951,1.951,0,0,1,.6,1.461c-.009,2.574,0,5.148-.005,7.722a1.749,1.749,0,0,1-1.361,1.815,2.377,2.377,0,0,1-.539.053c-2.224,0-4.447-.006-6.671.006a1.788,1.788,0,0,1-1.853-1.411,2.749,2.749,0,0,1-.044-.576Q3525.214,209.079,3525.217,206.6Zm6.093-5.67h-.437c-1.2,0-2.392.01-3.588,0-.706-.008-.741.241-.74.736q.012,4.911,0,9.823c0,.085,0,.169,0,.254.019.33.142.457.464.478.072,0,.145,0,.217,0h6.452a2.5,2.5,0,0,0,.253-.005.4.4,0,0,0,.408-.382,1.561,1.561,0,0,0,.01-.253q0-3.625,0-7.249c0-.1-.016-.209-.026-.335-.141-.007-.259-.017-.377-.017-.508,0-1.016-.023-1.522,0-.8.043-1.163-.378-1.126-1.137C3531.333,202.226,3531.31,201.609,3531.31,200.926Z" transform="translate(7496.13 -5512.611)" fill="#637798"/>
    <path id="Path_59979" data-name="Path 59979" d="M3196.48-495.515c-.254,0-.475,0-.7,0a1.478,1.478,0,0,1-.27-.016.437.437,0,0,1-.35-.42.429.429,0,0,1,.3-.429,1.265,1.265,0,0,1,.315-.039c.228-.005.455,0,.708,0,0-.217,0-.4,0-.591,0-.09,0-.181,0-.271a.453.453,0,0,1,.447-.465.445.445,0,0,1,.453.458c.011.188,0,.378,0,.567,0,.089,0,.178,0,.3.23,0,.44,0,.651,0a1.609,1.609,0,0,1,.341.032.427.427,0,0,1,.335.452.422.422,0,0,1-.389.408c-.187.019-.377.01-.566.012-.113,0-.227,0-.372,0,0,.154,0,.282,0,.411,0,.148,0,.3,0,.444a.442.442,0,0,1-.458.474.44.44,0,0,1-.443-.462c-.01-.2,0-.394,0-.591C3196.491-495.321,3196.485-495.4,3196.48-495.515Z" transform="translate(7828.519 -4807.293)" fill="#637798"/>
  </g>
</svg>
