<svg xmlns="http://www.w3.org/2000/svg" width="14.789" height="11.83" viewBox="0 0 14.789 11.83">
  <g id="icon_chat" transform="translate(-4457.033 467.09)">
    <path id="Path_59980" data-name="Path 59980" d="M4459.235-459.658c-.3-.016-.568-.023-.833-.044a1.5,1.5,0,0,1-1.37-1.543c.008-.882,0-1.763,0-2.645,0-.533,0-1.066,0-1.6a1.5,1.5,0,0,1,1.454-1.589c.112-.011.225-.011.337-.011q3.015,0,6.03,0a3.852,3.852,0,0,1,.459.026,1.48,1.48,0,0,1,1.335,1.444c.008.194,0,.39,0,.584,0,1.241,0,2.481,0,3.722a1.63,1.63,0,0,1-.317,1.036,1.588,1.588,0,0,1-1.351.6c-.831,0-1.662.005-2.492,0a1.037,1.037,0,0,0-.552.147c-.655.381-1.316.752-1.976,1.127-.018.01-.036.02-.053.031-.466.326-.717.129-.669-.4.02-.214,0-.43,0-.646C4459.248-459.492,4459.24-459.562,4459.235-459.658Zm1.149-1.158v.847c.126-.062.218-.1.3-.151.295-.165.6-.321.879-.5a1.3,1.3,0,0,1,.754-.2c.9.01,1.8.007,2.7,0,.392,0,.489-.106.5-.492,0-.031,0-.061,0-.092q0-1.982,0-3.964a1.615,1.615,0,0,0-.013-.275.322.322,0,0,0-.33-.3,3.014,3.014,0,0,0-.307-.007h-6.023c-.072,0-.144,0-.214,0-.368.01-.47.11-.471.484q0,2.09,0,4.179c0,.356.1.462.454.468.462.008.923,0,1.384,0Z" fill="#637798"/>
    <path id="Path_59981" data-name="Path 59981" d="M4558.638-412.016v-.842c.136-.006.247-.015.357-.016.451,0,.9,0,1.353,0,.392,0,.5-.106.5-.494q0-2.075,0-4.15c0-.382-.109-.486-.5-.488-.819,0-1.64,0-2.459,0-.11,0-.219-.01-.345-.015v-1.087a1.575,1.575,0,0,1,.232-.035c.86,0,1.721-.005,2.582,0a1.55,1.55,0,0,1,1.314.607,1.555,1.555,0,0,1,.307.977c0,1.1,0,2.193,0,3.289,0,.3,0,.594,0,.892a1.527,1.527,0,0,1-1.624,1.646c-.183,0-.365,0-.59,0,0,.282,0,.535,0,.787a3.4,3.4,0,0,1-.008.4.282.282,0,0,1-.423.245,1.547,1.547,0,0,1-.188-.1c-.7-.4-1.409-.795-2.11-1.2a.922.922,0,0,0-.494-.131q-.861.01-1.721,0a2.836,2.836,0,0,1-.579-.059,1.457,1.457,0,0,1-1.12-1.244,8.635,8.635,0,0,1-.006-.924,8.18,8.18,0,0,1,1.1,0c0,.2.011.375.013.554.005.449.087.534.545.536.687,0,1.374,0,2.06,0a.917.917,0,0,1,.5.13c.334.2.675.387,1.014.577C4558.416-412.125,4558.5-412.087,4558.638-412.016Z" transform="translate(-90.154 -44.989)" fill="#637798"/>
  </g>
</svg>
