<svg xmlns="http://www.w3.org/2000/svg" width="42.045" height="32.722" viewBox="0 0 42.045 32.722">
  <g id="icon" transform="translate(-3503.99 -94.374)">
    <path id="Path_59987" data-name="Path 59987" d="M3530.255,120V118.82q0-10.005,0-20.01a8.258,8.258,0,0,1,.112-1.447,3.444,3.444,0,0,1,3.239-2.967c.289-.027.582-.019.873-.019h19.623c.259,0,.519-.007.777.01a3.492,3.492,0,0,1,3.434,3.414c.03.419.028.841.028,1.262q0,9.811,0,19.622v1.3c.459.027.807.034,1.152.071a1.123,1.123,0,0,1,1.139,1.193,1.1,1.1,0,0,1-1.152,1.169c-.29.025-.583.013-.874.013h-28.658a8.22,8.22,0,0,1-.874-.015,1.149,1.149,0,0,1-1.117-1.128,1.194,1.194,0,0,1,1.125-1.23C3529.435,120.015,3529.787,120.018,3530.255,120Zm2.426-.03h23.241v-.938q0-10.253,0-20.506c0-.259-.009-.518-.03-.776a.955.955,0,0,0-.769-.892,3.373,3.373,0,0,0-.863-.088q-9.962-.007-19.924,0c-1.273,0-1.614.346-1.652,1.6,0,.129,0,.259,0,.389v21.207Z" transform="translate(-19.308 0)" fill="#d8dde4"/>
    <path id="Path_59988" data-name="Path 59988" d="M3524.993,214.073q-8.358,0-16.715,0a10.56,10.56,0,0,1-1.068-.025,3.226,3.226,0,0,1-3.1-2.854,36.064,36.064,0,0,1,.01-6,3.261,3.261,0,0,1,3.138-2.822,1.175,1.175,0,0,1,1.389,1.4,1.117,1.117,0,0,1-.963.949c-1.125.276-1.292.493-1.307,1.67-.015,1.231-.019,2.462,0,3.692.021,1.275.352,1.593,1.645,1.593q16.958,0,33.916,0a4.675,4.675,0,0,0,.582-.015c.718-.09,1.057-.4,1.072-1.135.031-1.554.011-3.109.006-4.663a1.035,1.035,0,0,0-.829-1.059c-.154-.046-.319-.055-.475-.1a1.152,1.152,0,0,1-.95-1.355,1.2,1.2,0,0,1,1.345-.99,3.378,3.378,0,0,1,3.251,2.944,45.051,45.051,0,0,1,0,5.821,3.323,3.323,0,0,1-3.165,2.915c-.354.034-.712.024-1.068.024Z" transform="translate(0 -86.978)" fill="#d8dde4"/>
    <path id="Path_59989" data-name="Path 59989" d="M3589.549,136.273l2.934,2.991c.227.231.463.453.679.693.6.666.633,1.291.113,1.791-.535.515-1.093.477-1.787-.159-.525-.48-1.037-.976-1.53-1.489-.672-.7-1.32-1.421-2.031-2.191-.571.544-1.014.957-1.447,1.38-.764.746-1.505,1.516-2.292,2.238a2.053,2.053,0,0,1-.986.548,1.125,1.125,0,0,1-1.112-1.573,3.5,3.5,0,0,1,.654-.831c1.073-1.117,2.159-2.223,3.284-3.376-.215-.248-.39-.471-.587-.673-.947-.975-1.905-1.939-2.844-2.921a2.76,2.76,0,0,1-.551-.781.994.994,0,0,1,.379-1.2.953.953,0,0,1,1.246-.133,6.408,6.408,0,0,1,.81.688c1.088,1.058,2.167,2.126,3.31,3.249l2.314-2.247c.488-.473.958-.966,1.467-1.415.652-.578,1.2-.584,1.712-.073a1.132,1.132,0,0,1-.071,1.716c-.887.942-1.81,1.85-2.715,2.775C3590.208,135.575,3589.925,135.879,3589.549,136.273Z" transform="translate(-62.803 -29.022)" fill="#d8dde4"/>
  </g>
</svg>
