<svg xmlns="http://www.w3.org/2000/svg" width="14.789" height="13.912" viewBox="0 0 14.789 13.912">
  <g id="icon_new_user" transform="translate(-3127.682 517)">
    <path id="Path_59975" data-name="Path 59975" d="M3133.773-465.686h-4.811c-.108,0-.217,0-.326,0a.924.924,0,0,1-.955-1,4.491,4.491,0,0,1,.548-2.151,4.7,4.7,0,0,1,4.227-2.516c.868-.025,1.736-.023,2.6,0a4.693,4.693,0,0,1,4.249,2.538,4.969,4.969,0,0,1,.546,2.008,1,1,0,0,1-1.055,1.127C3137.125-465.7,3135.449-465.686,3133.773-465.686Zm4.679-1.348a1.539,1.539,0,0,0,0-.232,3.271,3.271,0,0,0-2.877-2.7,32.276,32.276,0,0,0-3.538-.008,3.047,3.047,0,0,0-2.514,1.549,2.865,2.865,0,0,0-.458,1.388Z" transform="translate(0 -37.409)" fill="#637798"/>
    <path id="Path_59976" data-name="Path 59976" d="M3145.63-510.045a3.431,3.431,0,0,1-3.493-3.474,3.4,3.4,0,0,1,3.485-3.481,3.4,3.4,0,0,1,3.477,3.455A3.432,3.432,0,0,1,3145.63-510.045Zm-.023-1.329a2.112,2.112,0,0,0,2.162-2.147,2.073,2.073,0,0,0-2.158-2.145,2.059,2.059,0,0,0-2.141,2.124A2.106,2.106,0,0,0,3145.606-511.374Z" transform="translate(-11.851)" fill="#637798"/>
    <path id="Path_59977" data-name="Path 59977" d="M3197.092-494.476c-.372,0-.7,0-1.02,0a2.174,2.174,0,0,1-.4-.024.64.64,0,0,1-.513-.616.629.629,0,0,1,.447-.628,1.851,1.851,0,0,1,.462-.057c.333-.008.667,0,1.038,0,0-.317,0-.591,0-.865,0-.132-.005-.265,0-.4a.664.664,0,0,1,.656-.681.652.652,0,0,1,.663.671c.016.276.005.553.006.83,0,.13,0,.26,0,.442.337,0,.646-.005.954,0a2.354,2.354,0,0,1,.5.047.625.625,0,0,1,.492.662.618.618,0,0,1-.57.6c-.274.028-.553.015-.83.018-.166,0-.333,0-.545,0,0,.225,0,.413,0,.6,0,.217.008.434,0,.65a.648.648,0,0,1-.67.694.644.644,0,0,1-.65-.677c-.014-.288,0-.578-.006-.867C3197.108-494.191,3197.1-494.309,3197.092-494.476Z" transform="translate(-57.915 -15.774)" fill="#637798"/>
  </g>
</svg>
