<svg xmlns="http://www.w3.org/2000/svg" width="14.045" height="14.042" viewBox="0 0 14.045 14.042">
  <g id="icon_following" transform="translate(-4322.535 776.399)">
    <path id="Path_59982" data-name="Path 59982" d="M4329.539-776.4a7.042,7.042,0,0,1,7.041,7,7.006,7.006,0,0,1-7.026,7.044,6.957,6.957,0,0,1-7.02-7.011A6.993,6.993,0,0,1,4329.539-776.4Zm.016,12.7a5.662,5.662,0,0,0,5.674-5.654,5.658,5.658,0,0,0-5.669-5.694,5.623,5.623,0,0,0-5.671,5.689A5.626,5.626,0,0,0,4329.555-763.7Z" fill="#637798"/>
    <path id="Path_59983" data-name="Path 59983" d="M4374.6-711.746a2.867,2.867,0,0,1,.251-.348q1.222-1.232,2.454-2.453a1.8,1.8,0,0,1,.464-.342.728.728,0,0,1,.864.188.762.762,0,0,1,.09.914,1.579,1.579,0,0,1-.232.28q-1.625,1.629-3.253,3.255l-.052.052a.828.828,0,0,1-1.286,0c-.177-.167-.345-.343-.517-.515q-.491-.491-.981-.982a2.06,2.06,0,0,1-.2-.216.792.792,0,0,1,.067-1.091.776.776,0,0,1,1.063.023c.315.286.607.6.91.9C4374.337-711.994,4374.433-711.9,4374.6-711.746Z" transform="translate(-45.865 -56.947)" fill="#637798"/>
  </g>
</svg>
