<svg id="notification" xmlns="http://www.w3.org/2000/svg" width="18" height="18" viewBox="0 0 18 18">
  <rect id="view-box" width="18" height="18" fill="none"/>
  <path id="Shape" d="M4.5,12.749v-.375H1.687A1.69,1.69,0,0,1,0,10.686V10.4A1.906,1.906,0,0,1,1.061,8.683a.936.936,0,0,0,.514-.755l.335-3.683a4.669,4.669,0,0,1,9.3,0l.334,3.683a.945.945,0,0,0,.515.754A1.91,1.91,0,0,1,13.122,10.4v.286a1.689,1.689,0,0,1-1.687,1.688H8.625v.376a2.062,2.062,0,1,1-4.125,0Zm1.125,0a.938.938,0,0,0,1.875,0v-.375H5.625Zm-2.591-8.4L2.7,8.03A2.053,2.053,0,0,1,1.567,9.689a.791.791,0,0,0-.442.712v.286a.563.563,0,0,0,.563.562h9.75A.563.563,0,0,0,12,10.686V10.4a.791.791,0,0,0-.44-.711A2.054,2.054,0,0,1,10.425,8.03l-.333-3.681a3.544,3.544,0,0,0-7.058,0Z" transform="translate(2.438 1.689)" fill="#3c536f"/>
</svg>
