<svg xmlns="http://www.w3.org/2000/svg" width="18.012" height="11.826" viewBox="0 0 18.012 11.826">
  <path id="Candidates_icon" d="M14.145,15.826v-.773a3.093,3.093,0,0,0-3.093-3.093H7.959a3.093,3.093,0,0,0-3.093,3.093v.773m13.145,0v-.773a3.093,3.093,0,0,0-3.093-3.093h-.387M1,15.826v-.773a3.093,3.093,0,0,1,3.093-3.093H4.48m8.892-2.32a2.32,2.32,0,0,0,0-4.64M5.64,9.64A2.32,2.32,0,1,1,5.64,5m6.186,2.32A2.32,2.32,0,1,1,9.506,5,2.32,2.32,0,0,1,11.826,7.32Z" transform="translate(-0.5 -4.5)" fill="none" stroke="#fff" stroke-linecap="round" stroke-linejoin="round" stroke-width="1"/>
</svg>
