<svg xmlns="http://www.w3.org/2000/svg" width="17.712" height="11.967" viewBox="0 0 17.712 11.967">
  <g id="email_icon" transform="translate(-17.486)">
    <g id="Group_16556" data-name="Group 16556" transform="translate(17.486 0)">
      <g id="Group_16555" data-name="Group 16555">
        <path id="Path_53400" data-name="Path 53400" d="M23.926,11.967H38.758a1.44,1.44,0,0,0,1.44-1.437V1.437A1.439,1.439,0,0,0,38.769,0H23.915a1.439,1.439,0,0,0-1.429,1.435v9.094A1.44,1.44,0,0,0,23.926,11.967Zm.15-.957,4.906-5.315,2.039,1.841a.478.478,0,0,0,.641,0L33.7,5.695l4.907,5.315ZM38.911.988a.476.476,0,0,1,.329.448v8.848L34.411,5.053ZM37.518.957,31.342,6.535,25.166.957Zm-14.074.479a.476.476,0,0,1,.329-.448l4.5,4.065-4.829,5.231Z" transform="translate(-22.486 0)" fill="#fff"/>
      </g>
    </g>
  </g>
</svg>
