<svg xmlns="http://www.w3.org/2000/svg" width="17.713" height="16.322" viewBox="0 0 17.713 16.322">
  <g id="interviews_icon" transform="translate(-7.5)">
    <path id="Path_53397" data-name="Path 53397" d="M22.789,1H21.148V0h-1V1h-3.23V0h-1V1h-3.23V0h-1V1H9.923A2.426,2.426,0,0,0,7.5,3.426V15.82a.5.5,0,0,0,.5.5H24.712a.5.5,0,0,0,.5-.5V3.426A2.426,2.426,0,0,0,22.789,1ZM8.5,15.319V3.426A1.423,1.423,0,0,1,9.923,2h1.758v.668h1V2h3.23v.668h1V2h3.23v.668h1V2h1.641a1.423,1.423,0,0,1,1.421,1.421V5.617H10.677a.5.5,0,0,0,0,1H24.211v8.7H8.5Z" fill="#fff"/>
  </g>
</svg>
