<svg xmlns="http://www.w3.org/2000/svg" width="17.712" height="14.58" viewBox="0 0 17.712 14.58">
  <path id="jobs_icon" d="M11.5,84.822h2.586a3.235,3.235,0,0,1,3.194-2.782h.6a3.235,3.235,0,0,1,3.194,2.782h2.586A2.782,2.782,0,0,1,26.432,87.6v6.247a2.782,2.782,0,0,1-2.775,2.775H11.5A2.782,2.782,0,0,1,8.72,93.844V87.6A2.782,2.782,0,0,1,11.5,84.822Zm2.117,7.5-1.2,1.705a.442.442,0,0,1-.723-.509l1.2-1.706a2.313,2.313,0,1,1,.723.509Zm.948-3.55A1.433,1.433,0,1,0,15.994,90.2a1.434,1.434,0,0,0-1.433-1.433Zm3.89,5.685a.443.443,0,0,1,0-.886h4.1a.443.443,0,0,1,0,.886Zm0-1.664a.443.443,0,0,1,0-.886h4.1a.443.443,0,0,1,0,.886Zm0-1.772a.443.443,0,0,1,0-.886h4.1a.443.443,0,0,1,0,.886Zm0-2.936a.443.443,0,0,1,0-.886h3.29a.443.443,0,0,1,0,.886Zm-3.471-3.259h5.193a2.35,2.35,0,0,0-2.3-1.9h-.6a2.35,2.35,0,0,0-2.3,1.9Zm8.677.886H11.5A1.9,1.9,0,0,0,9.606,87.6v6.247A1.9,1.9,0,0,0,11.5,95.734H23.657a1.9,1.9,0,0,0,1.889-1.889V87.6A1.9,1.9,0,0,0,23.657,85.707Z" transform="translate(-8.72 -82.04)" fill="#fff"/>
</svg>
