<svg xmlns="http://www.w3.org/2000/svg" width="17.711" height="17.711" viewBox="0 0 17.711 17.711">
  <g id="settings_icon" transform="translate(0 -0.001)">
    <g id="Group_16557" data-name="Group 16557" transform="translate(0 0.001)">
      <path id="Path_53402" data-name="Path 53402" d="M16.8,7l-1.243-.211a7.02,7.02,0,0,0-.5-1.206l.733-1.025a1.091,1.091,0,0,0-.118-1.41l-1.1-1.1a1.086,1.086,0,0,0-.773-.322,1.075,1.075,0,0,0-.633.2l-1.029.733a6.947,6.947,0,0,0-1.251-.514L10.682.915A1.093,1.093,0,0,0,9.6,0H8.044a1.093,1.093,0,0,0-1.08.914L6.749,2.173a6.847,6.847,0,0,0-1.2.507L4.529,1.947a1.093,1.093,0,0,0-1.41.118l-1.106,1.1a1.1,1.1,0,0,0-.118,1.41l.74,1.04a6.856,6.856,0,0,0-.492,1.21L.914,7.034A1.093,1.093,0,0,0,0,8.115V9.673a1.093,1.093,0,0,0,.914,1.08l1.258.215a6.847,6.847,0,0,0,.507,1.2L1.95,13.184a1.091,1.091,0,0,0,.118,1.41l1.1,1.1a1.086,1.086,0,0,0,.773.322,1.075,1.075,0,0,0,.633-.2l1.04-.74a7,7,0,0,0,1.169.481L6.993,16.8a1.093,1.093,0,0,0,1.08.914H9.635a1.093,1.093,0,0,0,1.08-.914l.211-1.243a7.02,7.02,0,0,0,1.206-.5l1.025.733a1.086,1.086,0,0,0,.636.2h0a1.086,1.086,0,0,0,.773-.322l1.1-1.1a1.1,1.1,0,0,0,.118-1.41l-.733-1.029a6.969,6.969,0,0,0,.5-1.206l1.243-.207a1.093,1.093,0,0,0,.914-1.08V8.078A1.08,1.08,0,0,0,16.8,7ZM16.72,9.636a.1.1,0,0,1-.081.1l-1.554.259a.5.5,0,0,0-.4.366,5.923,5.923,0,0,1-.644,1.55.5.5,0,0,0,.022.544l.914,1.288a.1.1,0,0,1-.011.126l-1.1,1.1a.094.094,0,0,1-.07.03.091.091,0,0,1-.055-.018l-1.284-.914a.5.5,0,0,0-.544-.022,5.923,5.923,0,0,1-1.55.644.491.491,0,0,0-.366.4l-.263,1.554a.1.1,0,0,1-.1.081H8.077a.1.1,0,0,1-.1-.081l-.259-1.554a.5.5,0,0,0-.366-.4,6.15,6.15,0,0,1-1.517-.622A.512.512,0,0,0,5.587,14a.487.487,0,0,0-.289.092L4,15.011a.11.11,0,0,1-.055.018.1.1,0,0,1-.07-.03l-1.1-1.1a.1.1,0,0,1-.011-.126l.91-1.276a.507.507,0,0,0,.022-.548A5.867,5.867,0,0,1,3.045,10.4a.507.507,0,0,0-.4-.366L1.08,9.769A.1.1,0,0,1,1,9.673V8.115a.1.1,0,0,1,.081-.1L2.623,7.76a.5.5,0,0,0,.4-.37,5.917,5.917,0,0,1,.633-1.554.494.494,0,0,0-.026-.54L2.712,4a.1.1,0,0,1,.011-.126l1.1-1.1a.094.094,0,0,1,.07-.03.091.091,0,0,1,.055.018l1.276.91a.507.507,0,0,0,.548.022,5.867,5.867,0,0,1,1.547-.651.507.507,0,0,0,.366-.4l.266-1.565A.1.1,0,0,1,8.051,1H9.609a.1.1,0,0,1,.1.081l.259,1.543a.5.5,0,0,0,.37.4,6.005,6.005,0,0,1,1.587.651.5.5,0,0,0,.544-.022l1.276-.918a.11.11,0,0,1,.055-.018.1.1,0,0,1,.07.03l1.1,1.1a.1.1,0,0,1,.011.126l-.914,1.284a.5.5,0,0,0-.022.544,5.923,5.923,0,0,1,.644,1.55.491.491,0,0,0,.4.366l1.554.263a.1.1,0,0,1,.081.1V9.636Z" transform="translate(0 -0.001)" fill="#fff"/>
      <path id="Path_53403" data-name="Path 53403" d="M139.922,136a3.822,3.822,0,1,0,3.822,3.822A3.824,3.824,0,0,0,139.922,136Zm0,6.645a2.823,2.823,0,1,1,2.823-2.823A2.825,2.825,0,0,1,139.922,142.646Z" transform="translate(-131.064 -130.969)" fill="#fff"/>
    </g>
  </g>
</svg>
