<svg xmlns="http://www.w3.org/2000/svg" width="17.05" height="17.049" viewBox="0 0 17.05 17.049">
  <g id="talentpool_icon" transform="translate(-2.549 -2.549)">
    <rect id="Rectangle_6187" data-name="Rectangle 6187" width="7" height="7" transform="translate(3.049 3.049)" fill="none" stroke="#fff" stroke-linecap="round" stroke-linejoin="round" stroke-width="1"/>
    <path id="Path_60014" data-name="Path 60014" d="M20.1,17.062A2.106,2.106,0,0,1,20.715,17h0a3.726,3.726,0,0,1,3.715,3.715h0a3.726,3.726,0,0,1-3.715,3.715h0A3.726,3.726,0,0,1,17,20.715h0a2.106,2.106,0,0,1,.062-.619" transform="translate(-5.331 -5.331)" fill="none" stroke="#fff" stroke-linecap="round" stroke-linejoin="round" stroke-width="1"/>
    <path id="Path_60015" data-name="Path 60015" d="M13.1,10h1.858a2.484,2.484,0,0,1,2.477,2.477v2.477a2.484,2.484,0,0,1-2.477,2.477H12.477A2.484,2.484,0,0,1,10,14.953V13.1" transform="translate(-2.666 -2.666)" fill="none" stroke="#fff" stroke-linecap="round" stroke-linejoin="round" stroke-width="1"/>
  </g>
</svg>
