<svg id="Group_17907" data-name="Group 17907" xmlns="http://www.w3.org/2000/svg" width="23.446" height="23.447" viewBox="0 0 23.446 23.447">
  <path id="Path_3992" data-name="Path 3992" d="M44.153,127.482l.22-.359-.22-.359a13.213,13.213,0,0,0-2.639-2.918,11.9,11.9,0,0,0-15.591,0,13.34,13.34,0,0,0-2.66,2.916l-.225.362.225.362a13.34,13.34,0,0,0,2.66,2.916,11.9,11.9,0,0,0,15.591,0A13.205,13.205,0,0,0,44.153,127.482ZM40.6,129.374a10.527,10.527,0,0,1-13.763,0,12.963,12.963,0,0,1-2.152-2.25,12.964,12.964,0,0,1,2.152-2.25,10.527,10.527,0,0,1,13.763,0,12.794,12.794,0,0,1,2.136,2.251A12.8,12.8,0,0,1,40.6,129.374Zm0,0" transform="translate(-21.983 -115.399)" fill="#7750e2"/>
  <path id="Path_3993" data-name="Path 3993" d="M169.995,165.867a4.128,4.128,0,1,0,4.128,4.128A4.132,4.132,0,0,0,169.995,165.867Zm0,6.882a2.754,2.754,0,1,1,2.754-2.754A2.757,2.757,0,0,1,169.995,172.749Zm0,0" transform="translate(-158.271 -158.271)" fill="#7750e2"/>
  <path id="Path_3994" data-name="Path 3994" d="M1.374,1.374H4.242V0H0V4.19H1.374Zm0,0" fill="#7750e2"/>
  <path id="Path_3995" data-name="Path 3995" d="M419.375,0V1.374h2.868V4.19h1.374V0Zm0,0" transform="translate(-400.171)" fill="#7750e2"/>
  <path id="Path_3996" data-name="Path 3996" d="M1.374,420.5H0v4.19H4.242v-1.374H1.374Zm0,0" transform="translate(0 -401.243)" fill="#7750e2"/>
  <path id="Path_3997" data-name="Path 3997" d="M422.243,423.316h-2.868v1.374h4.242V420.5h-1.374Zm0,0" transform="translate(-400.171 -401.243)" fill="#7750e2"/>
</svg>
