<svg id="group-outline-badged-svgrepo-com" xmlns="http://www.w3.org/2000/svg" width="23.416" height="23.447" viewBox="0 0 23.416 23.447">
  <path id="Path_53537" data-name="Path 53537" d="M10.1,12.592h.235a4.871,4.871,0,0,1,.068-1.515A1.583,1.583,0,1,1,11.514,8.8a4.985,4.985,0,0,1,1.174-.992,3.1,3.1,0,1,0-2.591,4.8Z" transform="translate(-5.045 -2.061)" fill="#1f55ff"/>
  <path id="Path_53538" data-name="Path 53538" d="M10.92,17.605a4.947,4.947,0,0,1-.97-1.667H9.473A6.568,6.568,0,0,0,4.6,17.848l-.182.212v5.3H5.935v-4.72a5.3,5.3,0,0,1,3.538-1.212,6.129,6.129,0,0,1,1.447.174Z" transform="translate(-4.42 -4.371)" fill="#1f55ff"/>
  <path id="Path_53539" data-name="Path 53539" d="M29.265,17.81a6.507,6.507,0,0,0-4.811-1.9,3.365,3.365,0,0,0-.682.045,4.947,4.947,0,0,1-1.023,1.7,5.985,5.985,0,0,1,1.7-.235,5.257,5.257,0,0,1,3.515,1.2v4.75h1.515V18.023Z" transform="translate(-8.864 -4.364)" fill="#1f55ff"/>
  <path id="Path_53540" data-name="Path 53540" d="M16.776,16.133a3.386,3.386,0,1,0-3.386-3.386A3.386,3.386,0,0,0,16.776,16.133Zm0-5.25a1.871,1.871,0,1,1-1.871,1.871A1.871,1.871,0,0,1,16.776,10.883Z" transform="translate(-6.595 -2.777)" fill="#1f55ff"/>
  <path id="Path_53541" data-name="Path 53541" d="M16.318,19.728A7.341,7.341,0,0,0,10.939,21.8l-.189.212v5.553a1.189,1.189,0,0,0,1.22,1.167h8.689a1.189,1.189,0,0,0,1.22-1.167V22l-.189-.212A7.257,7.257,0,0,0,16.318,19.728Zm4.038,7.485H12.25V22.622a6.121,6.121,0,0,1,4.068-1.379,6.06,6.06,0,0,1,4.038,1.364Z" transform="translate(-5.955 -5.289)" fill="#1f55ff"/>
  <path id="Path_53542" data-name="Path 53542" d="M25.863,12a1.515,1.515,0,0,1-1.583.318,4.947,4.947,0,0,1,.114,1.045,4.993,4.993,0,0,1,0,.515,3.03,3.03,0,0,0,.432.045,3.091,3.091,0,0,0,2.5-1.288A5.644,5.644,0,0,1,25.863,12Z" transform="translate(-9.235 -3.417)" fill="#1f55ff"/>
  <path id="Path_53543" data-name="Path 53543" d="M22.594,6.93A3.151,3.151,0,0,0,21.48,8.021a4.992,4.992,0,0,1,1.151,1.061,1.591,1.591,0,0,1,.447-.629,5.636,5.636,0,0,1-.485-1.523Z" transform="translate(-8.556 -2.188)" fill="#1f55ff"/>
  <path id="Exclusion_26" data-name="Exclusion 26" d="M3.787,7.575A3.788,3.788,0,1,1,7.575,3.788,3.791,3.791,0,0,1,3.787,7.575ZM2.449,3.543a.379.379,0,0,0-.268.647l.724.723a.339.339,0,0,0,.042.037.338.338,0,0,0,.038.044.379.379,0,0,0,.536,0L5.4,3.118a.379.379,0,0,0-.536-.536L3.253,4.19l-.536-.536A.377.377,0,0,0,2.449,3.543Z" transform="translate(15.841 0)" fill="#1f55ff"/>
</svg>
