<svg xmlns="http://www.w3.org/2000/svg" width="40.652" height="43.748" viewBox="0 0 40.652 43.748">
  <path id="launch" d="M7.281,43.748a1.888,1.888,0,0,1-1.415-3.136l4.994-5.664a1.888,1.888,0,1,1,2.831,2.5L8.7,43.109A1.89,1.89,0,0,1,7.281,43.748Zm11.519-.3a1.472,1.472,0,0,1-1.472-1.479A13.82,13.82,0,0,0,3.5,28.04a14.054,14.054,0,0,0-1.839.121,1.474,1.474,0,0,1-1.319-.509,1.463,1.463,0,0,1-.28-1.386,14.11,14.11,0,0,1,13.469-9.888,14.173,14.173,0,0,1,3.286.386l8.12-9.208a15.078,15.078,0,0,1,4.974-3.719L37.742.192a2.045,2.045,0,0,1,2.812,2.48L37.92,10.89A15.072,15.072,0,0,1,34.852,16.3L26.735,25.5A14.113,14.113,0,0,1,19.41,43.318,1.475,1.475,0,0,1,18.8,43.451Zm7.073-29.673a3.75,3.75,0,0,1,2.222.71,3.828,3.828,0,0,1,1.514,2.531,4.543,4.543,0,0,0-.049-9.085,4.56,4.56,0,0,0-3.679,1.873,4.506,4.506,0,0,0-.661,4.024A4.189,4.189,0,0,1,25.873,13.778ZM3.033,40a1.887,1.887,0,0,1-1.415-3.136L6.612,31.2a1.89,1.89,0,0,1,2.664-.167A1.885,1.885,0,0,1,9.444,33.7L4.45,39.362A1.886,1.886,0,0,1,3.033,40ZM29.555,14.28A1.8,1.8,0,0,1,28.1,11.417a1.812,1.812,0,0,1,1.461-.743,1.8,1.8,0,0,1,1.457,2.863A1.809,1.809,0,0,1,29.555,14.28Z" transform="translate(0 0)" fill="#fff"/>
</svg>
