<svg xmlns="http://www.w3.org/2000/svg" width="23.502" height="23.697" viewBox="0 0 23.502 23.697">
  <g id="Group_17905" data-name="Group 17905" transform="translate(0.125 0.125)">
    <path id="Path_4004" data-name="Path 4004" d="M63.559,177.5H55.1a.343.343,0,1,0,0,.687h8.46a.343.343,0,0,0,0-.687Z" transform="translate(-52.345 -169.371)" fill="#f9773d" stroke="#f9773d" stroke-width="0.25"/>
    <path id="Path_4005" data-name="Path 4005" d="M63.559,232.833H55.1a.343.343,0,1,0,0,.687h8.46a.343.343,0,0,0,0-.687Z" transform="translate(-52.345 -222.17)" fill="#f9773d" stroke="#f9773d" stroke-width="0.25"/>
    <path id="Path_4006" data-name="Path 4006" d="M63.9,288.51a.343.343,0,0,0-.343-.344H55.1a.343.343,0,1,0,0,.687h8.46A.343.343,0,0,0,63.9,288.51Z" transform="translate(-52.345 -274.97)" fill="#f9773d" stroke="#f9773d" stroke-width="0.25"/>
    <path id="Path_4007" data-name="Path 4007" d="M55.1,343.5a.343.343,0,0,0,0,.687h3.945a.343.343,0,0,0,0-.687Z" transform="translate(-52.345 -327.769)" fill="#f9773d" stroke="#f9773d" stroke-width="0.25"/>
    <path id="Path_4008" data-name="Path 4008" d="M55.417,54.555h3.594a.662.662,0,0,0,.661-.661V52.675a.662.662,0,0,0-.661-.661H55.417a.662.662,0,0,0-.661.661v1.218A.662.662,0,0,0,55.417,54.555Zm.025-1.854h3.543v1.167H55.443Z" transform="translate(-52.346 -49.632)" fill="#f9773d" stroke="#f9773d" stroke-width="0.25"/>
    <path id="Path_4009" data-name="Path 4009" d="M11.4,22.76H4a1.187,1.187,0,0,1-1.186-1.186V1.873A1.187,1.187,0,0,1,4,.687H15.194A.822.822,0,0,1,15.33.7V3.05A1.875,1.875,0,0,0,17.2,4.923h2.351a.823.823,0,0,1,.012.136v.516a.343.343,0,1,0,.687,0V5.06A1.492,1.492,0,0,0,19.814,4L16.256.44A1.492,1.492,0,0,0,15.194,0H4A1.875,1.875,0,0,0,2.128,1.873v19.7A1.875,1.875,0,0,0,4,23.447H11.4a.343.343,0,0,0,0-.687ZM16.017,1.173l3.064,3.064H17.2A1.187,1.187,0,0,1,16.017,3.05Z" transform="translate(-2.128 0)" fill="#f9773d" stroke="#f9773d" stroke-width="0.25"/>
    <path id="Path_4010" data-name="Path 4010" d="M233.135,161.849a2.637,2.637,0,0,0-1.573-2.4,12.934,12.934,0,0,0-2.974-.656h0a.128.128,0,0,1-.112-.126l0-1.065q.118-.088.232-.186a3.037,3.037,0,0,0,1.008-1.936.873.873,0,0,0,.749-.867l0-.586a.868.868,0,0,0-.288-.643l-.006-1.459a2.572,2.572,0,0,0-2.569-2.558h-.011l-2.3.01a1.306,1.306,0,0,0-1.224.871c0,.006-.006.011-.01.011a1.31,1.31,0,0,0-1.305,1.316l.008,1.842a.868.868,0,0,0-.282.645l0,.586a.872.872,0,0,0,.756.861,3.036,3.036,0,0,0,1.025,1.927q.115.1.234.184l0,1.064a.128.128,0,0,1-.111.127h0a12.938,12.938,0,0,0-2.969.681,2.637,2.637,0,0,0-1.553,2.414l.011,2.614a1.462,1.462,0,0,0,1.459,1.454h10.357a1.424,1.424,0,0,0,1.037-.46,1.538,1.538,0,0,0,.417-1.05Zm-4.511-2.36.267.036a.142.142,0,0,1,.072.248l-1.178,1.019a.142.142,0,0,1-.176.008l-.005,0h0l-.494-.353Zm-2.131.533-1.442-.894a.809.809,0,0,0,.134-.449l0-.67a3.286,3.286,0,0,0,2.6-.011l0,.67a.809.809,0,0,0,.138.448Zm.494,1.178-.235.558-.507,0-.237-.555.488-.355Zm-2.928-10.257a.7.7,0,0,0,.655-.47.617.617,0,0,1,.579-.412l2.3-.01h.008a1.884,1.884,0,0,1,1.882,1.874l.006,1.332a1.468,1.468,0,0,0-.335.121.683.683,0,0,1-.276.074l0-1.011a1.176,1.176,0,0,0-1.176-1.172h-.016a1.689,1.689,0,0,0-.517.084,2.354,2.354,0,0,1-1.407.006,1.742,1.742,0,0,0-.518-.079h-.01a1.178,1.178,0,0,0-1.172,1.182l0,.909a2.72,2.72,0,0,0-.612-.116l-.007-1.688A.623.623,0,0,1,224.059,150.944Zm-.162,4.217a.343.343,0,0,0-.343-.335h-.2a.185.185,0,0,1-.185-.184l0-.586a.181.181,0,0,1,.048-.124,1.62,1.62,0,0,1,.788.169.439.439,0,0,0,.746-.315l-.006-1.326a.491.491,0,0,1,.488-.492,1,1,0,0,1,.318.047,3.036,3.036,0,0,0,1.827-.008,1.049,1.049,0,0,1,.317-.05h0a.49.49,0,0,1,.49.488l0,1.142a.551.551,0,0,0,.488.545,1.375,1.375,0,0,0,.788-.142.84.84,0,0,1,.264-.08.18.18,0,0,1,.044.118l0,.586a.185.185,0,0,1-.184.186h-.2a.344.344,0,0,0-.342.338,2.373,2.373,0,0,1-.794,1.757,3.048,3.048,0,0,1-.306.234,2.629,2.629,0,0,1-2.933.013,3.032,3.032,0,0,1-.309-.232A2.374,2.374,0,0,1,223.9,155.161Zm1.31,10.125h-2.584l-.006-1.358a.343.343,0,0,0-.343-.342h0a.343.343,0,0,0-.342.345l.006,1.356h-.6a.774.774,0,0,1-.773-.77l-.011-2.614a1.95,1.95,0,0,1,1.148-1.784,7.909,7.909,0,0,1,1.583-.434.819.819,0,0,0,.292.635l1.186,1.009a.828.828,0,0,0,.537.2.818.818,0,0,0,.1-.006l.27.632Zm.177-4.475a.142.142,0,0,1-.176-.007l-1.186-1.009a.142.142,0,0,1,.07-.249l.267-.039,1.522.943Zm.518,4.475.416-2.838.371,0,.443,2.84Zm6.329-.244a.744.744,0,0,1-.539.244h-.6l-.006-1.394a.344.344,0,0,0-.343-.342h0a.344.344,0,0,0-.342.345l.006,1.391h-2.583l-.49-3.141.267-.635a.815.815,0,0,0,.633-.2l1.178-1.019a.819.819,0,0,0,.287-.637,7.908,7.908,0,0,1,1.586.421,1.95,1.95,0,0,1,1.163,1.775l.011,2.614A.845.845,0,0,1,232.229,165.042Z" transform="translate(-209.894 -142.526)" fill="#f9773d" stroke="#f9773d" stroke-width="0.25"/>
  </g>
</svg>
