<svg xmlns="http://www.w3.org/2000/svg" width="34.968" height="41.316" viewBox="0 0 34.968 41.316">
  <g id="meeting-date-svgrepo-com" transform="translate(-46.41 -8.363)">
    <path id="Path_67099" data-name="Path 67099" d="M53.113,45.029a3.879,3.879,0,0,1-3.873-3.874V24.243H76.745v9.017a9.687,9.687,0,0,1,2.83,1.187l-.037-18.729A2.326,2.326,0,0,0,77.211,13.4h0v-.953a4.107,4.107,0,0,0-8.215,0V13.4H67.1v-.953a4.108,4.108,0,0,0-8.215,0V13.4h-1.9v-.953a4.107,4.107,0,0,0-8.214,0V13.4a2.327,2.327,0,0,0-2.327,2.323L46.41,41.155a6.71,6.71,0,0,0,6.7,6.7H66.136a9.719,9.719,0,0,1-1.182-2.829H53.113ZM71.824,12.444a1.265,1.265,0,0,1,1.305-1.252,1.252,1.252,0,0,1,1.25,1.252v4.8a1.251,1.251,0,0,1-1.25,1.25h-.054a1.252,1.252,0,0,1-1.252-1.25Zm-10.11,0a1.279,1.279,0,0,1,2.557,0v4.8a1.252,1.252,0,0,1-1.252,1.25h-.055a1.252,1.252,0,0,1-1.25-1.25Zm-10.109,0a1.265,1.265,0,0,1,1.3-1.252,1.252,1.252,0,0,1,1.25,1.252v4.8a1.25,1.25,0,0,1-1.25,1.25h-.054a1.251,1.251,0,0,1-1.25-1.25Z" fill="#8993a4"/>
    <path id="Path_67100" data-name="Path 67100" d="M306.186,337.3a6.938,6.938,0,1,0,6.94,6.938A6.937,6.937,0,0,0,306.186,337.3Zm2.7,8.609a.707.707,0,0,1-.973.229l-2.1-1.3a.705.705,0,0,1-.336-.6v-4.1a.708.708,0,0,1,1.416,0v3.706l1.763,1.091A.708.708,0,0,1,308.885,345.9Z" transform="translate(-231.747 -301.493)" fill="#8993a4"/>
    <path id="Path_67101" data-name="Path 67101" d="M194.05,243.056v-.044a3.367,3.367,0,0,0,2.573-3.264c0-1.923-1.664-3.5-4.669-3.5a9.62,9.62,0,0,0-3.766.752.751.751,0,0,0-.416.888l.264.935a.751.751,0,0,0,1.007.492,6.029,6.029,0,0,1,2.176-.472c1.385,0,2.076.627,2.076,1.469,0,1.189-1.406,1.6-2.509,1.621h-.523a.751.751,0,0,0-.751.751v.853a.751.751,0,0,0,.751.751h.589c1.448,0,2.831.628,2.831,2.011,0,1.059-.865,1.881-2.572,1.881a7.145,7.145,0,0,1-2.5-.522.753.753,0,0,0-1,.5l-.282,1.039a.75.75,0,0,0,.42.883,9.111,9.111,0,0,0,3.593.69,8.257,8.257,0,0,0,2.554-.382,9.75,9.75,0,0,1,2.73-5.624A3.737,3.737,0,0,0,194.05,243.056Z" transform="translate(-129.145 -208.874)" fill="#8993a4"/>
  </g>
</svg>
