<svg xmlns="http://www.w3.org/2000/svg" width="74.645" height="75.248" viewBox="0 0 74.645 75.248">
  <g id="offer" transform="translate(159.726 -153.016)">
    <rect id="Rectangle_9240" data-name="Rectangle 9240" width="18" height="72" transform="translate(-158.493 155.016)" fill="#f4f0ff"/>
    <rect id="Rectangle_9241" data-name="Rectangle 9241" width="36" height="72" transform="translate(-140.493 155.016)" fill="#eff5ff"/>
    <rect id="Rectangle_9242" data-name="Rectangle 9242" width="40" height="14" transform="translate(-127.585 198.51) rotate(-9)" fill="#f4f0ff"/>
    <path id="Union_95" data-name="Union 95" d="M-1805.465,10334.263a2.9,2.9,0,0,1-3.009-2.929c-.01-.368,0-.736,0-1.1v-57.167a5.974,5.974,0,0,1,.016-.807,1.109,1.109,0,0,1,1.141-1.024,1.051,1.051,0,0,1,1.069,1.006,7.767,7.767,0,0,1,.031.952q0,28.551,0,57.1c0,.244-.005.49,0,.734.018.858.189,1.037,1.043,1.037q5.33.009,10.657,0h3.771v-70.841h-14.272c-1.053,0-1.193.138-1.2,1.178,0,1.4,0,2.791,0,4.188,0,.221.005.443-.018.659a1.136,1.136,0,0,1-1.126,1.125,1.142,1.142,0,0,1-1.1-1.156c-.021-1.836-.057-3.675.016-5.509a3.046,3.046,0,0,1,2.163-2.689h52.763c1.7.724,2.168,2.06,2.163,3.825-.042,11.733-.021,23.467-.021,35.2v1.051c1.094-.146,2.124-.271,3.149-.421,3.216-.467,6.429-.954,9.648-1.41a2.232,2.232,0,0,1,2.855,2.074q.953,6.341,1.86,12.693a2.252,2.252,0,0,1-1.976,2.5c-1.445.238-2.9.423-4.352.63q-5.3.754-10.6,1.5c-.506.07-.6.327-.6.791q.023,6.8.005,13.593a2.934,2.934,0,0,1-2.14,3.128,3.354,3.354,0,0,1-.866.1q-18.056,0-36.114,0Zm17-2.236c.233.014.4.034.568.034q16.608,0,33.213,0c.869,0,1.032-.163,1.032-1.029q0-6.649,0-13.3c0-.207-.031-.415-.047-.638-2.026.29-3.981.591-5.942.843a1.107,1.107,0,0,1-1.372-.983c-.057-.641.332-1.1,1.092-1.211,2.1-.313,4.209-.606,6.315-.913q5.948-.86,11.894-1.722c1.834-.265,3.667-.537,5.6-.82-.622-4.315-1.234-8.579-1.849-12.84l-36.676,5.282c.625,4.334,1.235,8.557,1.849,12.817.36-.038.625-.06.887-.1,2.176-.313,4.349-.646,6.528-.943.908-.125,1.468.249,1.546.943.075.67-.327,1.126-1.211,1.259-2.417.365-4.837.694-7.254,1.053a2.193,2.193,0,0,1-2.7-1.917q-.961-6.415-1.875-12.838a2.192,2.192,0,0,1,1.88-2.477c1.45-.221,2.9-.415,4.355-.625q6.493-.937,12.983-1.878c1.323-.192,2.64-.4,3.989-.6v-.516q0-18.335,0-36.665c0-.893-.158-1.022-1.19-1.022h-33.623Zm5.465-3.667a1.059,1.059,0,0,1-.934-1.133,1.023,1.023,0,0,1,1-1.059c.244-.023.49-.019.734-.019q5.579,0,11.16,0,5.544,0,11.087,0c.27,0,.54,0,.807.023a1,1,0,0,1,.973,1.012,1.074,1.074,0,0,1-.9,1.17,1.973,1.973,0,0,1-.511.023h-22.909c-.088,0-.179,0-.268,0A1.075,1.075,0,0,1-1783,10328.359Zm-15.5.019c-.827,0-1.657.013-2.487-.006a1.087,1.087,0,0,1-1.19-1.1,1.048,1.048,0,0,1,1.167-1.11q2.56-.031,5.122,0a1.114,1.114,0,0,1,1.185,1.123,1.162,1.162,0,0,1-1.235,1.092c-.32.006-.64.008-.96.008C-1797.437,10328.383-1797.971,10328.378-1798.506,10328.378Zm-2.443-4.653c-.817-.01-1.245-.428-1.235-1.125.008-.678.472-1.095,1.268-1.107.827-.014,1.657,0,2.487,0,.8,0,1.611-.011,2.415,0a1.19,1.19,0,0,1,1.3,1.1,1.145,1.145,0,0,1-1.263,1.128q-1.245.013-2.489.014T-1800.949,10323.725Zm21.008,0c-.905,0-1.808.014-2.713,0-.814-.016-1.279-.428-1.286-1.092-.01-.7.482-1.139,1.315-1.144q2.68-.016,5.356,0c.817,0,1.343.469,1.333,1.141-.008.656-.482,1.076-1.289,1.095-.339.006-.679.008-1.018.008C-1778.81,10323.735-1779.376,10323.729-1779.942,10323.729Zm-21.283-4.642a1.056,1.056,0,0,1-.954-1.183,1.02,1.02,0,0,1,1.04-1.02c.241-.021.488,0,.734,0v0c.267,0,.537-.013.807,0a1.065,1.065,0,0,1,1.05,1.03,1.105,1.105,0,0,1-.993,1.17c-.281.027-.566.041-.851.041S-1800.95,10319.115-1801.224,10319.088Zm18.378.013a1.088,1.088,0,0,1-1.094-1.139,1.077,1.077,0,0,1,1.146-1.079c.633-.028,1.271-.008,1.906,0,.612,0,1.227-.023,1.836,0a1.061,1.061,0,0,1,1.128,1.09,1.082,1.082,0,0,1-1.1,1.128q-.972.023-1.946.024Q-1781.91,10319.125-1782.846,10319.1Zm1.276-4.666c-.441,0-.882.021-1.323,0a1.02,1.02,0,0,1-1.043-1.019,1.043,1.043,0,0,1,.97-1.165,20.955,20.955,0,0,1,2.791.008.989.989,0,0,1,.928,1.123,1,1,0,0,1-1,1.048c-.173.014-.346.018-.52.018C-1781.035,10314.444-1781.3,10314.435-1781.57,10314.435Zm-19.625-.008a1,1,0,0,1-.983-.99,1,1,0,0,1,.869-1.17,6.627,6.627,0,0,1,1.828-.011,1.018,1.018,0,0,1,.926,1.136,1.017,1.017,0,0,1-1.027,1.038c-.27.016-.54,0-.807,0-.166,0-.333.008-.5.008C-1800.991,10314.439-1801.094,10314.437-1801.2,10314.427Zm31.73-1.427a2.655,2.655,0,0,1-1.579-2.054c-.023-.106-.054-.213-.073-.321a3,3,0,0,1,1.071-3.006,2.444,2.444,0,0,1,.726-.355,2.3,2.3,0,0,1,.291-.07s0,0,0,0c.182-.021.366-.044.547-.067h.005c.184-.013.366-.023.547-.041h.008a2.648,2.648,0,0,1,.293.013,2.479,2.479,0,0,1,.786.21,3,3,0,0,1,1.629,2.741c.005.109-.005.221-.01.327a2.652,2.652,0,0,1-1.149,2.321,3.291,3.291,0,0,1-1.312.472c-.052.008-.1.016-.156.021l-.093.008a1.386,1.386,0,0,1-.153.011c-.06,0-.12,0-.178,0A3.194,3.194,0,0,1-1769.466,10313Zm-.01-2.624c.062.641.526,1.416,1.424,1.12.939.117,1.245-.734,1.183-1.375-.112-1.081-.5-1.452-1.445-1.325h0C-1769.272,10308.855-1769.578,10309.294-1769.477,10310.376Zm5.851,1.551c-.233-1.5-.456-3.009-.651-4.516a1.287,1.287,0,0,1-.01-.184.724.724,0,0,1,.648-.817h0l.057-.008c1.481-.226,2.965-.447,4.454-.64a.82.82,0,0,1,1.014.731.86.86,0,0,1-.833.893c-1.217.183-2.436.36-3.608.531q.075.508.149,1.012c.8-.122,1.6-.238,2.406-.34a.531.531,0,0,1,.659.475.556.556,0,0,1-.539.578c-.8.121-1.6.237-2.37.349.082.563.163,1.119.243,1.661a.833.833,0,0,1-.765.921c-.026,0-.051,0-.076,0A.715.715,0,0,1-1763.625,10311.927Zm6.953-.849c-.231-1.5-.457-3.006-.648-4.513a1.244,1.244,0,0,1-.01-.206.717.717,0,0,1,.643-.794c.023,0,.047-.008.071-.011,1.48-.228,2.962-.449,4.447-.639a.821.821,0,0,1,1.014.729.857.857,0,0,1-.83.892c-1.219.183-2.438.36-3.61.532l.149,1.014c.8-.122,1.6-.238,2.408-.343a.534.534,0,0,1,.659.475.558.558,0,0,1-.54.581c-.8.119-1.6.236-2.371.35.083.563.164,1.117.245,1.658a.833.833,0,0,1-.765.921c-.028,0-.055,0-.082,0A.715.715,0,0,1-1756.672,10311.078Zm7.272-1.107c-.171-1.107-.322-2.217-.475-3.327-.052-.36-.106-.719-.132-1.079a.775.775,0,0,1,.7-.882c.622-.111,1.25-.194,1.88-.254a.77.77,0,0,1,.923.7.819.819,0,0,1-.711.934c-.176.039-.358.057-.537.083l-.516.083.1.531a3.017,3.017,0,0,0,.591-.036c.56-.072,1.115-.143,1.237.651.171,1.125-.939.876-1.556,1.117-.091.493.137.595.547.514a3.4,3.4,0,0,1,.7-.083.738.738,0,0,1,.786.675.736.736,0,0,1-.573.915,17.76,17.76,0,0,1-2.09.319.8.8,0,0,1-.083,0C-1749.022,10310.831-1749.319,10310.5-1749.4,10309.971Zm5.086-.837c-.114-.753-.22-1.5-.327-2.257-.1-.682-.179-1.364-.283-2.044-.067-.453.073-.853.506-.959a6.619,6.619,0,0,1,1.924-.244,1.879,1.879,0,0,1,1.735,1.356,2.032,2.032,0,0,1-.755,2.287c.345.3.664.563.97.841a.843.843,0,0,1,.135,1.245.8.8,0,0,1-1.209.013c-.337-.27-.661-.558-1.053-.89a3.314,3.314,0,0,0,0,.4.842.842,0,0,1-.705,1.079.913.913,0,0,1-.125.009C-1743.918,10309.975-1744.233,10309.661-1744.314,10309.134Zm1.281-3.93c-.06.023-.119.052-.119.15l.078.612a.212.212,0,0,0,.192.13.53.53,0,0,0,.529-.509.413.413,0,0,0-.453-.426A.618.618,0,0,0-1743.033,10305.2Zm-38.577,4.632v0c-.412,0-.83.031-1.242-.008a1.1,1.1,0,0,1-1.087-1.144,1.042,1.042,0,0,1,1.056-1.087,20.73,20.73,0,0,1,2.63.011,1,1,0,0,1,1.006,1.117,1.057,1.057,0,0,1-1.048,1.1,4.028,4.028,0,0,1-.5.027C-1781.064,10309.854-1781.338,10309.836-1781.609,10309.836Zm.01-4.671c-.438,0-.882.023-1.32,0a1.059,1.059,0,0,1-1.019-1.118,1.01,1.01,0,0,1,1-1.063,24.406,24.406,0,0,1,2.713,0,1,1,0,0,1,.98,1.076,1.045,1.045,0,0,1-1.03,1.1c-.166.011-.333.014-.5.014C-1781.052,10305.174-1781.325,10305.165-1781.6,10305.165Zm8.546-7.973c-.288,0-.664.023-.843-.14a1.655,1.655,0,0,1-.633-1.021,1.673,1.673,0,0,1,.682-.986,1.17,1.17,0,0,1,.705-.127c.049,0,.1,0,.145,0,2.228-.008,4.456,0,6.686,0,2.179,0,4.357,0,6.538,0,.265,0,.609-.044.781.1a2.191,2.191,0,0,1,.8,1,.928.928,0,0,1-.765,1.089,2.685,2.685,0,0,1-.724.086q-3,0-6.01,0Q-1769.373,10297.2-1773.053,10297.192Zm-8.88-.664c-.578-.692-1.141-1.4-1.691-2.116a1.109,1.109,0,0,1,.122-1.678,1.136,1.136,0,0,1,1.611.285c.288.327.555.669.9,1.084.744-1.084,1.413-2.072,2.1-3.055.5-.714,1.087-.882,1.67-.5a1.156,1.156,0,0,1,.189,1.735c-.942,1.4-1.886,2.788-2.853,4.168a1.313,1.313,0,0,1-1.022.675A1.393,1.393,0,0,1-1781.933,10296.528Zm9.656-4.007c-.418,0-.833.019-1.247,0a1.066,1.066,0,0,1-1.058-1.084,1.051,1.051,0,0,1,1.037-1.1c.879-.026,1.761-.028,2.64,0a1.06,1.06,0,0,1,1.032,1.112,1.059,1.059,0,0,1-1.011,1.068c-.177.016-.356.02-.534.02C-1771.705,10292.533-1771.992,10292.521-1772.278,10292.521Zm-.55-6.981c-.2,0-.394.008-.589-.011-.757-.067-1.177-.484-1.165-1.146a1.115,1.115,0,0,1,1.216-1.094c1.4-.019,2.791-.006,4.186-.006h2.791c2.3,0,4.6,0,6.9,0,.786,0,1.32.433,1.318,1.076a1.016,1.016,0,0,1-.859,1.112,4.449,4.449,0,0,1-.877.065l-6.463,0Zm-9.142-.692c-.558-.677-1.1-1.367-1.644-2.062a1.116,1.116,0,0,1,.1-1.683,1.161,1.161,0,0,1,1.665.313c.265.313.521.638.856,1.045.731-1.071,1.4-2.057,2.08-3.037.5-.718,1.092-.9,1.668-.528.6.389.677,1.061.184,1.792q-1.377,2.03-2.775,4.051a1.41,1.41,0,0,1-1.083.748A1.436,1.436,0,0,1-1781.97,10284.848Zm9.736-3.947c-.417,0-.835.022-1.247-.006a1.1,1.1,0,0,1-1.1-1.136,1.029,1.029,0,0,1,1.063-1.074c.853-.038,1.712-.036,2.568,0a1.1,1.1,0,0,1,1.084,1.074,1.153,1.153,0,0,1-1.12,1.136c-.157.011-.315.015-.473.015C-1771.717,10280.909-1771.976,10280.9-1772.234,10280.9Zm5.849-7.031q-3.416,0-6.829,0c-.884,0-1.351-.376-1.367-1.074-.016-.723.477-1.133,1.385-1.133q6.831,0,13.66,0c.856,0,1.362.4,1.38,1.079.018.71-.488,1.128-1.4,1.128q-1.708,0-3.416,0Zm-15.6-.68c-.537-.667-1.076-1.333-1.6-2a1.14,1.14,0,0,1,.08-1.74,1.128,1.128,0,0,1,1.66.329c.265.316.519.641.845,1.045.726-1.061,1.385-2.027,2.049-2.99.529-.763,1.133-.957,1.719-.562s.656,1.051.151,1.795q-1.377,2.035-2.773,4.051a1.382,1.382,0,0,1-1.07.727A1.436,1.436,0,0,1-1781.983,10273.189Zm8.421-3.955a1.023,1.023,0,0,1-1.014-1.131,1.055,1.055,0,0,1,1.063-1.092,12.393,12.393,0,0,1,1.32-.008V10267c.392,0,.786-.025,1.175.006a1.14,1.14,0,0,1,1.144,1.112,1.074,1.074,0,0,1-1.048,1.12c-.434.031-.87.047-1.307.047S-1773.119,10269.267-1773.561,10269.234Z" transform="translate(1648.767 -10106)" fill="#65578d"/>
  </g>
</svg>
