<svg id="Layer_x0020_1" xmlns="http://www.w3.org/2000/svg" width="26.075" height="23.447" viewBox="0 0 26.075 23.447">
  <path id="Path_53545" data-name="Path 53545" d="M27.956,56.264h2.6a.652.652,0,0,1,.652.652v2.713A3.538,3.538,0,0,1,32.24,64.4l2.133,1.681a.651.651,0,0,1-.8,1.023l-2.2-1.733c-.052.04-.106.079-.161.116v4.183h1.517a.652.652,0,0,1,.652.652A3.485,3.485,0,0,1,29.9,73.8H12.027A3.485,3.485,0,0,1,8.55,70.32a.652.652,0,0,1,.652-.652h1.517V56.916a.652.652,0,0,1,.652-.652h2.6V51a.652.652,0,0,1,.652-.652H27.3a.652.652,0,0,1,.652.652Zm3.4,5.619A2.243,2.243,0,1,0,29.886,64.7,2.243,2.243,0,0,0,31.353,61.883Zm-1.447-2.8V57.567H27.956v1.675c.064-.025.13-.047.2-.068A3.521,3.521,0,0,1,29.905,59.08Zm-3.252,1.026V51.653H15.274v14.8H26.653V65.006a3.542,3.542,0,0,1,0-4.9Zm1.3,5.763V67.1a.652.652,0,0,1-.652.652H14.622a.652.652,0,0,1-.652-.652V57.567H12.022v12.1H29.905V66.032A3.526,3.526,0,0,1,27.956,65.868Zm-7.644,6.626V70.972H9.954a2.185,2.185,0,0,0,2.073,1.522Zm1.3-1.522v1.522H29.9a2.184,2.184,0,0,0,2.073-1.522H21.615ZM17.661,55.645a.652.652,0,0,1,0-1.3h6.6a.652.652,0,0,1,0,1.3Zm0,8.115a.652.652,0,0,1,0-1.3h6.6a.652.652,0,0,1,0,1.3Zm0-5.41a.652.652,0,0,1,0-1.3h6.6a.652.652,0,0,1,0,1.3Zm0,2.7a.652.652,0,0,1,0-1.3h6.6a.652.652,0,0,1,0,1.3Z" transform="translate(-8.55 -50.35)" fill="#f6b43a"/>
</svg>
