<svg xmlns="http://www.w3.org/2000/svg" width="85.212" height="61.539" viewBox="0 0 85.212 61.539">
  <g id="to-do" transform="translate(727.404 9741.339)" opacity="0.38">
    <path id="Path_67087" data-name="Path 67087" d="M104.711,95.646H98.872v-4.9h8.636a2.4,2.4,0,0,0,2.55-2.357v-.849c0-15.912-13.159-29.011-29.937-30.348V54.009a2.456,2.456,0,1,0,.11-4.9H74.966a2.456,2.456,0,1,0-.11,4.9v3.154C58.078,58.329,44.59,71.508,44.59,87.541v.849A2.549,2.549,0,0,0,47.3,90.748h8.142v4.9H50.429c-4.081,0-7.484,2.987-7.484,6.785v5.358a2.706,2.706,0,0,0,2.714,2.552h63.822a2.558,2.558,0,0,0,2.55-2.552v-5.358A7.011,7.011,0,0,0,104.711,95.646ZM74.5,66.327a2.6,2.6,0,0,1,2.948,2.114,2.489,2.489,0,0,1-2.272,2.744,18.191,18.191,0,0,0-13.4,8.52,2.668,2.668,0,0,1-2.315,1.281,2.78,2.78,0,0,1-1.254-.3,2.365,2.365,0,0,1-1.056-3.321A23.557,23.557,0,0,1,74.5,66.327ZM60.71,90.748h32.9v4.9H60.71Z" transform="translate(-762.348 -9790.142)" fill="#f0690f"/>
    <path id="Path_67088" data-name="Path 67088" d="M51.547,52.566a1.491,1.491,0,0,0,2.283-1.916l-1.916-2.283a1.491,1.491,0,0,0-2.283,1.916Z" transform="translate(-762.041 -9789.1)" fill="#f0690f"/>
    <path id="Path_67089" data-name="Path 67089" d="M22.438,90.121a1.491,1.491,0,0,0-.546-2.036L19.31,86.594a1.491,1.491,0,0,0-1.491,2.582L20.4,90.667a1.49,1.49,0,0,0,2.036-.546Z" transform="translate(-741.297 -9815.227)" fill="#f0690f"/>
    <path id="Path_67090" data-name="Path 67090" d="M4.685,134.188l-2.936-.518a1.491,1.491,0,0,0-.518,2.936l2.936.518a1.516,1.516,0,0,0,.26.023,1.491,1.491,0,0,0,.257-2.959Z" transform="translate(-727.404 -9847.631)" fill="#f0690f"/>
    <path id="Path_67091" data-name="Path 67091" d="M270.689,133.955a1.492,1.492,0,0,0-1.727-1.209l-2.936.517a1.491,1.491,0,0,0,.257,2.959,1.514,1.514,0,0,0,.26-.023l2.936-.517A1.491,1.491,0,0,0,270.689,133.955Z" transform="translate(-912.904 -9846.997)" fill="#f0690f"/>
    <path id="Path_67092" data-name="Path 67092" d="M254.7,86.442a1.491,1.491,0,0,0-2.036-.546l-2.582,1.49a1.49,1.49,0,1,0,1.49,2.582l2.582-1.49A1.491,1.491,0,0,0,254.7,86.442Z" transform="translate(-900.324 -9814.754)" fill="#f0690f"/>
    <path id="Path_67093" data-name="Path 67093" d="M221.044,52.361a1.491,1.491,0,0,0,2.1-.184l1.916-2.283a1.491,1.491,0,1,0-2.283-1.916l-1.916,2.284A1.49,1.49,0,0,0,221.044,52.361Z" transform="translate(-882.387 -9788.784)" fill="#f0690f"/>
  </g>
</svg>
