<svg xmlns="http://www.w3.org/2000/svg" xmlns:xlink="http://www.w3.org/1999/xlink" width="94" height="94" viewBox="0 0 94 94">
  <defs>
    <clipPath id="clip-path">
      <circle id="Ellipse_2499" data-name="Ellipse 2499" cx="47" cy="47" r="47" fill="none"/>
    </clipPath>
  </defs>
  <g id="Group_25189" data-name="Group 25189" transform="translate(-1349.186 -205.734)">
    <g id="Group_25188" data-name="Group 25188" transform="translate(1349.186 205.734)">
      <g id="Group_25187" data-name="Group 25187" clip-path="url(#clip-path)">
        <circle id="Ellipse_2498" data-name="Ellipse 2498" cx="47" cy="47" r="47" fill="#f6c273"/>
        <path id="Path_67333" data-name="Path 67333" d="M1364.314,231.686,1307.3,288.7l58.456,55.073,35.1-35.1-24.512-32.595Z" transform="translate(-1329.173 -218.133)" fill="#32303a" style="mix-blend-mode: soft-light;isolation: isolate"/>
        <g id="woman" transform="translate(22.258 9.171)">
          <g id="Group_25182" data-name="Group 25182" transform="translate(16.78 41.198)">
            <path id="Path_67334" data-name="Path 67334" d="M1423.939,309.924l2.611-1.078v-6.661h10.444v6.661l2.611,1.078-2.611,15.962H1426.55Z" transform="translate(-1423.939 -302.185)" fill="#f6ccb8"/>
            <path id="Path_67335" data-name="Path 67335" d="M1439.383,302.268v3.465l-10.444,3.152v-6.617Z" transform="translate(-1426.328 -302.225)" fill="#f6ccb8" style="mix-blend-mode: multiply;isolation: isolate"/>
          </g>
          <g id="Group_25184" data-name="Group 25184" transform="translate(0 47.859)">
            <rect id="Rectangle_9365" data-name="Rectangle 9365" width="21.049" height="28.248" transform="translate(14.153 12.34)" fill="#f4b350"/>
            <g id="Group_25183" data-name="Group 25183">
              <path id="Path_67336" data-name="Path 67336" d="M1448.939,353.022V314.94c.062.011.12.028.182.04v-.04c3.81.04,9.25.737,12.985,4.321,4.343,4.168,5.572,10,6.131,14.933.162,1.43.274,14.014.352,18.828Z" transform="translate(-1419.103 -314.94)" fill="#42404d"/>
              <path id="Path_67337" data-name="Path 67337" d="M1411.238,353.022h-19.431c.078-4.813.19-17.4.352-18.828.558-4.93,1.788-10.765,6.131-14.933,3.722-3.573,9.137-4.276,12.944-4.321h.04v7.636h-.037Z" transform="translate(-1391.807 -314.94)" fill="#42404d"/>
            </g>
          </g>
          <g id="Group_25186" data-name="Group 25186" transform="translate(7.062)">
            <path id="Path_67338" data-name="Path 67338" d="M1417.008,267.811c3.6-.029,6.515-4.5,6.515-10.047s7.686-31.24-7.835-30.517C1403.237,227.827,1400.1,267.949,1417.008,267.811Z" transform="translate(-1405.329 -225.176)" fill="#4f3c30"/>
            <g id="Group_25185" data-name="Group 25185" transform="translate(3.059 4.8)">
              <path id="Path_67339" data-name="Path 67339" d="M1413.845,250.973v-5.431c0-5.768,6.677-13.056,11.964-13.056s11.964,7.287,11.964,13.056v5.431a2.635,2.635,0,0,1,2.659,2.611V256.3a2.635,2.635,0,0,1-2.659,2.611c0,5.768-6.678,13.264-11.964,13.264s-11.964-7.5-11.964-13.264a2.635,2.635,0,0,1-2.659-2.611v-2.716A2.635,2.635,0,0,1,1413.845,250.973Z" transform="translate(-1411.186 -232.486)" fill="#f6ccb8"/>
              <path id="Path_67340" data-name="Path 67340" d="M1425.808,262.514v9.661c-5.286,0-11.964-7.5-11.964-13.264a2.635,2.635,0,0,1-2.659-2.611v-2.716a2.635,2.635,0,0,1,2.659-2.611v-5.431c0-5.768,6.677-13.056,11.964-13.056v21.15a35.508,35.508,0,0,1,2.658,8.356Z" transform="translate(-1411.186 -232.486)" fill="#f6ccb8" opacity="0.8" style="mix-blend-mode: multiply;isolation: isolate"/>
            </g>
            <path id="Path_67341" data-name="Path 67341" d="M1414.755,265.957c1.051-.713,2.97-.717,4.707-.709,2.924,0,4.883.574,5.828,1.7a3.883,3.883,0,0,1,2.692,0c.946-1.127,2.9-1.7,5.828-1.7,1.737,0,3.656,0,4.706.709h1.837v1.984l-.794.441c-.017,3.1-1.529,6.684-5.749,6.684-3.471,0-5.622-1.884-6.391-5.6a3.545,3.545,0,0,1-.074-.782.817.817,0,0,0-1.419,0,3.545,3.545,0,0,1-.074.782c-.77,3.714-2.92,5.6-6.391,5.6-4.221,0-5.732-3.588-5.749-6.684l-.794-.441v-1.984Zm13.585,3.322c.676,3.262,2.465,4.847,5.471,4.847,4.579,0,4.811-4.828,4.811-5.8a2,2,0,0,0-.471-1.481c-.612-.61-2.839-.66-4.339-.66-3.308,0-4.615.753-5.129,1.384A1.952,1.952,0,0,0,1428.34,269.279Zm-8.878,4.847c3,0,4.794-1.585,5.471-4.847a1.953,1.953,0,0,0-.342-1.706c-.514-.632-1.821-1.384-5.129-1.384-1.7,0-3.665-.013-4.34.66a2,2,0,0,0-.471,1.481C1414.651,269.3,1414.883,274.127,1419.462,274.127Z" transform="translate(-1408.955 -243.339)" fill="#f05d44"/>
            <path id="Path_67342" data-name="Path 67342" d="M1439.886,266.068c3.774-12.594,6.412-20.408,4.351-28.906-4-16.5-24.157-17.483-26.2-7.126-.435,2.2-5.7,14.472-2.636,15.877a61.711,61.711,0,0,0,6.753-9.991C1439.886,235.868,1433.954,262.153,1439.886,266.068Z" transform="translate(-1409.686 -223.295)" fill="#4f3c30"/>
          </g>
        </g>
      </g>
    </g>
  </g>
</svg>
