<svg xmlns="http://www.w3.org/2000/svg" xmlns:xlink="http://www.w3.org/1999/xlink" width="94" height="94" viewBox="0 0 94 94">
  <defs>
    <clipPath id="clip-path">
      <circle id="Ellipse_2485" data-name="Ellipse 2485" cx="47" cy="47" r="47" fill="none"/>
    </clipPath>
  </defs>
  <g id="Group_25125" data-name="Group 25125" transform="translate(-1393.237 -683.094)">
    <g id="Group_25124" data-name="Group 25124" transform="translate(1393.237 683.094)">
      <g id="Group_25123" data-name="Group 25123" clip-path="url(#clip-path)">
        <circle id="Ellipse_2483" data-name="Ellipse 2483" cx="47" cy="47" r="47" fill="#c0b2da"/>
        <path id="Path_67244" data-name="Path 67244" d="M1404.913,701.746,1347.9,758.764l60.258,58.885,36.551-36.551-25.964-31.142Z" transform="translate(-1371.575 -692.006)" fill="#32303a" style="mix-blend-mode: soft-light;isolation: isolate"/>
        <g id="woman" transform="translate(22.955 7.505)">
          <g id="Group_25118" data-name="Group 25118" transform="translate(16.147 43.54)">
            <path id="Path_67245" data-name="Path 67245" d="M1470.724,787.5V780.84h10.445V787.5l2.611.2-2.611,16.838h-10.444l-2.611-16.838Z" transform="translate(-1468.113 -780.84)" fill="#f2ae75"/>
            <path id="Path_67246" data-name="Path 67246" d="M1483.557,780.924v3.37l-10.444,3.247v-6.617Z" transform="translate(-1470.502 -780.88)" fill="#f6ccb8" style="mix-blend-mode: multiply;isolation: isolate"/>
          </g>
          <g id="Group_25120" data-name="Group 25120" transform="translate(0 50.268)">
            <path id="Path_67247" data-name="Path 67247" d="M1462.588,845.711l19.267-4.393,1.172,4.393Z" transform="translate(-1449.327 -816.463)" fill="#32303a"/>
            <path id="Path_67248" data-name="Path 67248" d="M1464.5,845.711l1.172-4.393,19.267,4.393Z" transform="translate(-1450.239 -816.463)" fill="#32303a"/>
            <path id="Path_67249" data-name="Path 67249" d="M1437.194,831.119l.353-20.537c.572-4.477,1.608-9.515,5.342-13.1s8.258-3.458,12.2-3.757c0,0,.007.066.02.187l6.07,16.607,6.083-16.642.016-.152c3.938.3,8.451.173,12.186,3.757s4.771,8.622,5.342,13.1l.353,20.537Z" transform="translate(-1437.194 -793.725)" fill="#32303a"/>
            <g id="Group_25119" data-name="Group 25119" transform="translate(11.912 0)">
              <path id="Path_67250" data-name="Path 67250" d="M1495.181,797.974l-5.725,2.164,2.247,3.133-8.59,7.247,6.1-16.794Z" transform="translate(-1471.045 -793.725)" fill="#fff"/>
              <path id="Path_67251" data-name="Path 67251" d="M1460,797.974l5.979-4.249,6.089,16.794-8.59-7.247,2.247-3.133Z" transform="translate(-1460.004 -793.725)" fill="#fff"/>
            </g>
          </g>
          <g id="Group_25122" data-name="Group 25122" transform="translate(7.858)">
            <g id="Group_25121" data-name="Group 25121" transform="translate(1.564 7.337)">
              <path id="Path_67252" data-name="Path 67252" d="M1457.9,730v-5.431c0-5.768,6.678-13.056,11.964-13.056s11.964,7.287,11.964,13.056V730a2.635,2.635,0,0,1,2.659,2.611v2.716a2.636,2.636,0,0,1-2.659,2.611c0,5.768-6.678,13.264-11.964,13.264s-11.964-7.5-11.964-13.264a2.635,2.635,0,0,1-2.659-2.611v-2.716A2.635,2.635,0,0,1,1457.9,730Z" transform="translate(-1455.237 -711.515)" fill="#f2ae75"/>
              <path id="Path_67253" data-name="Path 67253" d="M1469.859,741.543V751.2c-5.286,0-11.964-7.5-11.964-13.264a2.635,2.635,0,0,1-2.659-2.611v-2.716A2.635,2.635,0,0,1,1457.9,730v-5.431c0-5.768,6.678-13.056,11.964-13.056v21.15a35.5,35.5,0,0,1,2.659,8.356Z" transform="translate(-1455.237 -711.515)" fill="#f6ccb8" opacity="0.8" style="mix-blend-mode: multiply;isolation: isolate"/>
            </g>
            <circle id="Ellipse_2484" data-name="Ellipse 2484" cx="7.311" cy="7.311" r="7.311" transform="translate(0.142)" fill="#2d1b10"/>
            <path id="Path_67254" data-name="Path 67254" d="M1458.805,744.986c1.05-.713,2.97-.717,4.707-.709,2.924,0,4.883.574,5.828,1.7a3.883,3.883,0,0,1,2.692,0c.945-1.127,2.9-1.7,5.828-1.7,1.737,0,3.656,0,4.707.709h1.836v1.984l-.794.441c-.017,3.1-1.528,6.684-5.749,6.684-3.471,0-5.621-1.884-6.391-5.6a3.552,3.552,0,0,1-.073-.782.817.817,0,0,0-1.419,0,3.553,3.553,0,0,1-.074.782c-.77,3.714-2.92,5.6-6.391,5.6-4.221,0-5.732-3.588-5.75-6.684l-.794-.441v-1.984Zm13.585,3.322c.676,3.262,2.465,4.847,5.47,4.847,4.579,0,4.811-4.828,4.811-5.8a2,2,0,0,0-.472-1.481c-.613-.61-2.84-.66-4.34-.66-3.307,0-4.615.753-5.129,1.384A1.952,1.952,0,0,0,1472.39,748.308Zm-8.878,4.847c3,0,4.795-1.585,5.47-4.847a1.951,1.951,0,0,0-.342-1.706c-.514-.632-1.821-1.384-5.129-1.384-1.7,0-3.665-.013-4.34.66a2,2,0,0,0-.472,1.481C1458.7,748.327,1458.933,753.156,1463.512,753.156Z" transform="translate(-1454.5 -719.831)" fill="#fff"/>
            <path id="Path_67255" data-name="Path 67255" d="M1473.765,721.516a8.073,8.073,0,0,0,2.256,3.958,17.685,17.685,0,0,1-8.763-5.494,7.549,7.549,0,0,0,2.287,3.922,16.268,16.268,0,0,1-2.773-1.6,19.3,19.3,0,0,1-4.522-5.019c-1.273,4.661-3.318,9.1-8.261,11.556-3.548-7.147-2.79-23.694,12.767-24.166,19.275-.585,18.612,20.015,17.28,25.044C1480,728.446,1474.584,722.733,1473.765,721.516Z" transform="translate(-1452.242 -700.905)" fill="#3c2417"/>
          </g>
        </g>
      </g>
    </g>
  </g>
</svg>
