<svg xmlns="http://www.w3.org/2000/svg" xmlns:xlink="http://www.w3.org/1999/xlink" width="94" height="94" viewBox="0 0 94 94">
  <defs>
    <clipPath id="clip-path">
      <circle id="Ellipse_2495" data-name="Ellipse 2495" cx="47" cy="47" r="47" fill="none"/>
    </clipPath>
  </defs>
  <g id="Group_25170" data-name="Group 25170" transform="translate(-985.324 -379.595)">
    <g id="Group_25169" data-name="Group 25169" transform="translate(985.324 379.595)">
      <g id="Group_25168" data-name="Group 25168" clip-path="url(#clip-path)">
        <circle id="Ellipse_2494" data-name="Ellipse 2494" cx="47" cy="47" r="47" fill="#c0b2da"/>
        <path id="Path_67309" data-name="Path 67309" d="M1004,403.949l-57.015,57.019,56.6,55.907,34.593-34.593-24.006-33.1Z" transform="translate(-967.008 -391.231)" fill="#32303a" style="mix-blend-mode: soft-light;isolation: isolate"/>
        <g id="woman" transform="translate(22.859 9.202)">
          <path id="Path_67310" data-name="Path 67310" d="M1042.079,446.244c.02.118.046.22.071.328.262,1.117.554,2.156.871,3.1a14.8,14.8,0,0,0,1.874,4,5.505,5.505,0,0,0,1.158,1.2,4.986,4.986,0,0,0,3.114.947h19.115a4.967,4.967,0,0,0,3.222-1.029,5.635,5.635,0,0,0,1.05-1.117,14.782,14.782,0,0,0,1.875-4c.317-.948.609-1.988.871-3.1.026-.108.051-.21.072-.318,3-13.189,2.105-36.567-4.687-43.609-2.786-2.888-6.233-5.429-11.96-5.429a14.843,14.843,0,0,0-10.126,3.7,23.483,23.483,0,0,0-1.834,1.726,10.071,10.071,0,0,0-.671.779C1039.917,411.271,1039.185,433.516,1042.079,446.244Z" transform="translate(-1034.52 -397.216)" fill="#3c2417"/>
          <g id="Group_25164" data-name="Group 25164" transform="translate(16.307 41.2)">
            <path id="Path_67311" data-name="Path 67311" d="M1060.324,483.848l2.611-1.078v-6.661h10.444v6.661l2.611,1.078-2.611,15.962h-10.444Z" transform="translate(-1060.324 -476.109)" fill="#f6ccb8"/>
            <path id="Path_67312" data-name="Path 67312" d="M1075.768,476.192v3.465l-10.444,3.152v-6.617Z" transform="translate(-1062.713 -476.149)" fill="#f6ccb8" style="mix-blend-mode: multiply;isolation: isolate"/>
          </g>
          <g id="Group_25166" data-name="Group 25166" transform="translate(0 47.86)">
            <rect id="Rectangle_9363" data-name="Rectangle 9363" width="21.049" height="26.595" transform="translate(13.681 12.341)" fill="#fff"/>
            <g id="Group_25165" data-name="Group 25165">
              <path id="Path_67313" data-name="Path 67313" d="M1085.3,494.016v-5.153c.219.041.424.1.636.15,3.764.045,8.728.226,12.322,3.676,4.343,4.167,5.038,10.3,5.6,15.234l.025.221c.173,1.531.332,14.221.469,19.029H1085.3V496.526h-.027Z" transform="translate(-1055.936 -488.863)" fill="#976545"/>
              <path id="Path_67314" data-name="Path 67314" d="M1029.566,508.143l.025-.221c.559-4.93,1.253-11.066,5.6-15.233,3.551-3.409,8.439-3.627,12.186-3.675.214-.051.421-.111.642-.151v.144h.075l.081,7.519-.143,0h-.014v30.645H1029.1C1029.234,522.364,1029.393,509.674,1029.566,508.143Z" transform="translate(-1029.097 -488.863)" fill="#976545"/>
            </g>
          </g>
          <g id="Group_25167" data-name="Group 25167" transform="translate(7.541 0)">
            <path id="Path_67315" data-name="Path 67315" d="M1050.107,424.7v-5.431c0-5.768,6.678-13.056,11.964-13.056s11.964,7.288,11.964,13.056V424.7a2.636,2.636,0,0,1,2.659,2.611v2.716a2.635,2.635,0,0,1-2.659,2.611c0,5.768-6.678,13.264-11.964,13.264s-11.964-7.5-11.964-13.264a2.635,2.635,0,0,1-2.659-2.611v-2.716A2.635,2.635,0,0,1,1050.107,424.7Z" transform="translate(-1045.406 -401.516)" fill="#f6ccb8"/>
            <path id="Path_67316" data-name="Path 67316" d="M1062.07,436.243V445.9c-5.286,0-11.964-7.5-11.964-13.264a2.635,2.635,0,0,1-2.659-2.611v-2.716a2.635,2.635,0,0,1,2.659-2.611v-5.431c0-5.768,6.678-13.056,11.964-13.056v21.15a35.512,35.512,0,0,1,2.659,8.356Z" transform="translate(-1045.406 -401.516)" fill="#f6ccb8" opacity="0.8" style="mix-blend-mode: multiply;isolation: isolate"/>
            <path id="Path_67317" data-name="Path 67317" d="M1044.446,411.083c2.349-9.686,9.219-14.024,15.766-13.862,6.548-.162,13.417,4.176,15.767,13.862,2.061,8.5.468,16.312-3.306,28.906-5.933-3.914,7.152-34.551-12.461-28.111-19.613-6.441-6.528,24.2-12.46,28.111C1043.978,427.395,1042.385,419.58,1044.446,411.083Z" transform="translate(-1043.538 -397.217)" fill="#3c2417"/>
            <path id="Path_67318" data-name="Path 67318" d="M1050.468,439.958h1.748c1-.677,2.826-.678,4.48-.674,2.784,0,4.647.546,5.547,1.619a3.695,3.695,0,0,1,2.563,0c.9-1.073,2.764-1.619,5.547-1.619,1.653,0,3.48,0,4.48.674h1.747v1.889l-.755.42c-.016,2.946-1.454,6.362-5.472,6.362-3.3,0-5.35-1.793-6.083-5.327a3.361,3.361,0,0,1-.07-.744.778.778,0,0,0-1.351,0,3.361,3.361,0,0,1-.07.744c-.733,3.534-2.779,5.327-6.083,5.327-4.017,0-5.456-3.415-5.472-6.362l-.756-.42Zm14.677,3.162c.643,3.1,2.347,4.614,5.207,4.614,4.358,0,4.579-4.6,4.579-5.517,0-1.414-3.152-1.541-4.579-1.541C1067.2,440.675,1064.851,441.8,1065.145,443.119Zm-8.45,4.614c2.86,0,4.564-1.509,5.207-4.614.294-1.323-2.059-2.444-5.207-2.444-1.427,0-4.579.127-4.579,1.541C1052.117,443.138,1052.338,447.733,1056.7,447.733Z" transform="translate(-1046.849 -417.315)" fill="#42404d"/>
          </g>
        </g>
      </g>
    </g>
  </g>
</svg>
