<svg id="img" xmlns="http://www.w3.org/2000/svg" width="32.034" height="32.035" viewBox="0 0 32.034 32.035">
  <path id="Path_60066" data-name="Path 60066" d="M540.864,281.21a16.01,16.01,0,1,1-.037-1.1Q540.864,280.657,540.864,281.21Z" transform="translate(-508.83 -265.193)" fill="#f25a57"/>
  <path id="Path_60067" data-name="Path 60067" d="M508.83,296.988a16.023,16.023,0,0,0,12.951,15.724l3.066-3.067V284.672h0a.265.265,0,0,1-.042,0,.247.247,0,0,1-.15-.047l-.006,0s-.021,0-.05-.02c-.165-.084-.681-.406-.749-.436a3.653,3.653,0,0,0-3.209.365,9.517,9.517,0,0,0-1.339.918l-10.43,10.43Q508.83,296.435,508.83,296.988Z" transform="translate(-508.83 -280.971)" fill="#d03835"/>
  <g id="Group_18067" data-name="Group 18067" transform="translate(6.459 2.974)">
    <g id="Group_18066" data-name="Group 18066" transform="translate(0)">
      <g id="Group_18063" data-name="Group 18063">
        <g id="Group_18062" data-name="Group 18062">
          <path id="Path_60068" data-name="Path 60068" d="M568.672,409.475a15.942,15.942,0,0,1-6.492,2.87,16.112,16.112,0,0,1-3.066.293h0a15.947,15.947,0,0,1-9.557-3.163,9.72,9.72,0,0,1,5.786-6.393,10,10,0,0,1,1.319-.426c.111-.027.221-.052.333-.077a10.212,10.212,0,0,1,2.119-.221h0a10.206,10.206,0,0,1,2.118.221l.133.029.2.048A9.773,9.773,0,0,1,568.672,409.475Z" transform="translate(-549.556 -383.578)" fill="#066873"/>
          <path id="Path_60069" data-name="Path 60069" d="M559.987,343.652a1.191,1.191,0,0,1-.147.29,1.355,1.355,0,0,1-.4.333,1.274,1.274,0,0,1-.641.236h-.009a.9.9,0,0,1-.43-.129,2.242,2.242,0,0,1-.74-.831,5.717,5.717,0,0,1-.648-1.415,2.853,2.853,0,0,1-.028-1.542,1.386,1.386,0,0,1,.157-.365,1.073,1.073,0,0,1,.623-.438l.049-.013a1.335,1.335,0,0,1,.56-.013,1.447,1.447,0,0,1,.187.05c.031.01.062.021.092.034a1.591,1.591,0,0,1,.181.084,2.335,2.335,0,0,1,.685.583,3.131,3.131,0,0,1,.526.943,3.3,3.3,0,0,1,.137.532A3.172,3.172,0,0,1,559.987,343.652Z" transform="translate(-555.69 -330.893)" fill="#daaa82"/>
          <path id="Path_60070" data-name="Path 60070" d="M644.7,343.547a2.242,2.242,0,0,1-.74.831.888.888,0,0,1-.439.129,1.275,1.275,0,0,1-.641-.235,1.365,1.365,0,0,1-.4-.333,1.2,1.2,0,0,1-.147-.29,3.234,3.234,0,0,1,.513-3.135,2.044,2.044,0,0,1,1.145-.751,1.2,1.2,0,0,1,1.232.463,1.361,1.361,0,0,1,.157.364,2.855,2.855,0,0,1-.027,1.542A5.715,5.715,0,0,1,644.7,343.547Z" transform="translate(-627.446 -330.889)" fill="#daaa82"/>
          <g id="Group_18059" data-name="Group 18059" transform="translate(7.106 16.356)">
            <path id="Path_60071" data-name="Path 60071" d="M599.261,391.214v4.116a2.452,2.452,0,0,1-2.452,2.452h0a2.452,2.452,0,0,1-2.452-2.452v-4.116Z" transform="translate(-594.356 -390.557)" fill="#daaa82"/>
            <path id="Path_60072" data-name="Path 60072" d="M599.261,387.071v2.454c-.064.076-.132.149-.2.22a4.636,4.636,0,0,1-1.938,1.166c-.1.032-.209.06-.314.085a4.7,4.7,0,0,1-1.084.127,4.3,4.3,0,0,1-1.367-.218v-3.835Z" transform="translate(-594.356 -387.071)" fill="#1f1e21" opacity="0.5" style="mix-blend-mode: overlay;isolation: isolate"/>
          </g>
          <path id="Path_60073" data-name="Path 60073" d="M582.013,312.324v9.124a3.721,3.721,0,0,1-1.239,2.717c-.687.641-1.539,1.432-2.233,2.063a3.942,3.942,0,0,1-.533.406c-.108.068-.219.132-.334.191a4.644,4.644,0,0,1-2.119.5,4.724,4.724,0,0,1-1.629-.287,4.228,4.228,0,0,1-.49-.215c-.114-.058-.226-.122-.333-.191a3.95,3.95,0,0,1-.535-.407c-.693-.631-1.546-1.422-2.232-2.063a4.015,4.015,0,0,1-.3-.306c-.038-.043-.075-.086-.111-.131s-.092-.117-.135-.176l-.045-.065c-.036-.051-.07-.1-.1-.156l0-.007c-.017-.027-.034-.055-.05-.083a3.605,3.605,0,0,1-.216-.429c-.022-.053-.044-.107-.064-.16,0-.009-.006-.017-.009-.026-.009-.025-.018-.05-.026-.075s-.02-.06-.029-.089-.018-.061-.027-.092-.016-.059-.023-.089c-.015-.061-.029-.122-.04-.183-.006-.031-.012-.061-.017-.092s-.01-.061-.014-.092-.007-.053-.01-.079,0-.042-.006-.063q-.015-.151-.016-.3v-9.145Z" transform="translate(-565.998 -307.823)" fill="#f3bcca"/>
          <path id="Path_60074" data-name="Path 60074" d="M576.7,290.892a13.632,13.632,0,0,1-.18,1.96,5.123,5.123,0,0,1-.47,1.428l-.219.423a1.489,1.489,0,0,1-.134.278l-.012.012a.272.272,0,0,1-.205.053c-.04,0-.08,0-.121,0l-.186,0h-12.45l-.186,0h-.12a.272.272,0,0,1-.205-.053l-.011-.012a1.493,1.493,0,0,1-.134-.278l-.22-.423a5.127,5.127,0,0,1-.47-1.428l0-.008a13.655,13.655,0,0,1-.178-1.952,8.616,8.616,0,0,1,.036-1.214,6.4,6.4,0,0,1,.919-2.782,7.432,7.432,0,0,1,2.632-2.354,3.653,3.653,0,0,1,3.209-.365l.009,0a2.911,2.911,0,0,1,.367.217l0,0c.056.037.112.073.17.108a1.048,1.048,0,0,0,.36.163h0a.267.267,0,0,0,.042,0,.247.247,0,0,0,.15-.046l.006,0s.021,0,.05-.02c.165-.084.681-.406.749-.436a3.653,3.653,0,0,1,3.209.365,7.431,7.431,0,0,1,2.632,2.354,6.4,6.4,0,0,1,.919,2.782A8.616,8.616,0,0,1,576.7,290.892Z" transform="translate(-559.343 -283.945)" fill="#542509"/>
          <path id="Path_60075" data-name="Path 60075" d="M582.014,312.324v9.124a3.546,3.546,0,0,1-.514,1.825l0,0-.013.021-.023.037q-.074.12-.158.235c-.019.026-.038.053-.059.079l-.061.077c-.019.024-.038.047-.057.069-.047.055-.095.11-.145.163l-.063.066-.059.06-.086.083c-.687.641-1.539,1.433-2.233,2.063a3.94,3.94,0,0,1-.533.406c-.108.068-.219.132-.334.191a4.644,4.644,0,0,1-2.119.5,4.728,4.728,0,0,1-1.629-.287,4.247,4.247,0,0,1-.49-.215c-.115-.058-.226-.122-.333-.191a3.924,3.924,0,0,1-.535-.407c-.693-.631-1.546-1.422-2.232-2.063a3.958,3.958,0,0,1-.3-.306c-.039-.043-.076-.086-.111-.131s-.092-.117-.135-.176l-.045-.065c-.036-.052-.07-.1-.1-.155l0-.007c-.017-.027-.034-.055-.05-.083a3.6,3.6,0,0,1-.216-.429c-.023-.053-.044-.107-.064-.16,0-.009-.006-.017-.009-.026-.009-.025-.018-.05-.026-.075s-.02-.06-.029-.089-.018-.061-.027-.092-.016-.059-.023-.089c-.015-.061-.029-.122-.04-.183-.006-.031-.012-.061-.017-.092s-.01-.061-.014-.092-.007-.053-.01-.079,0-.042-.006-.063c-.01-.1-.015-.2-.016-.3v-9.145Z" transform="translate(-565.999 -307.823)" fill="#eeb997"/>
          <g id="Group_18061" data-name="Group 18061" transform="translate(2.855 1.352)">
            <g id="Group_18060" data-name="Group 18060">
              <path id="Path_60076" data-name="Path 60076" d="M581.055,301.775v1.731a.675.675,0,0,1-.674.674c0-.343,0-.686-.007-1.029a2.1,2.1,0,0,0-.1-.932.7.7,0,0,0-.052-.086,4.362,4.362,0,0,1-.586-1c-.121-.335-.019-.672-.111-1.022a.686.686,0,0,0-.476-.576,4.255,4.255,0,0,0-1.066-.039,6.412,6.412,0,0,1-1.858-.083,2.031,2.031,0,0,1-.813-.409,2.707,2.707,0,0,1-1.048-1.965,3.167,3.167,0,0,1-.791,1.936,2.268,2.268,0,0,1-.174.167,3.522,3.522,0,0,1-2.591.746c-.388-.028-.938-.293-1.309-.153a.8.8,0,0,0-.43.687,5.731,5.731,0,0,1-.077.847c-.111.4-.47.684-.6,1.083a2.732,2.732,0,0,0-.05.8c-.006.343-.007.686-.007,1.029a.675.675,0,0,1-.674-.674v-1.731h.063v-4.224c0-.265.06-.523.054-.784a7.093,7.093,0,0,1,.007-.989,4.167,4.167,0,0,1,.532-1.639,3.386,3.386,0,0,1,2.053-1.6,2.544,2.544,0,0,1,.592-.071h6.893a3.105,3.105,0,0,1,2.391,1.29,3.57,3.57,0,0,1,.255.377,4.166,4.166,0,0,1,.532,1.639,7.093,7.093,0,0,1,.007.989c-.007.261.054.519.054.784v4.224Z" transform="translate(-567.558 -292.472)" fill="#542509"/>
            </g>
          </g>
          <path id="Path_60077" data-name="Path 60077" d="M569.083,369.8v.028l0-.028Z" transform="translate(-565.984 -356.184)" fill="#1f1e21" opacity="0.5" style="mix-blend-mode: overlay;isolation: isolate"/>
        </g>
        <path id="Path_60078" data-name="Path 60078" d="M650.2,365.72v.064l-.057.009c0-.014,0-.027,0-.042A.578.578,0,0,0,650.2,365.72Z" transform="translate(-634.188 -352.75)" fill="#1f1e21" opacity="0.5" style="mix-blend-mode: overlay;isolation: isolate"/>
        <path id="Path_60079" data-name="Path 60079" d="M582,314.509" transform="translate(-576.853 -309.661)" fill="#1f1e21"/>
      </g>
      <g id="Group_18064" data-name="Group 18064" transform="translate(0 18.811)">
        <path id="Path_60080" data-name="Path 60080" d="M561.918,405.173v.752a2.8,2.8,0,0,1-2.8,2.8V412.8a15.947,15.947,0,0,1-9.557-3.163,9.72,9.72,0,0,1,5.786-6.393,10.013,10.013,0,0,1,1.319-.426v-.267c.107.068.219.133.333.191a4.237,4.237,0,0,0,.49.215,4.728,4.728,0,0,0,1.629.287v4.078a2.452,2.452,0,0,1-2.452-2.452v.657a2.452,2.452,0,0,0,2.452,2.452h0A2.8,2.8,0,0,0,561.918,405.173Z" transform="translate(-549.556 -402.549)" fill="#1f1e21" opacity="0.5" style="mix-blend-mode: overlay;isolation: isolate"/>
      </g>
      <path id="Path_60081" data-name="Path 60081" d="M571.191,301.34a4.12,4.12,0,0,1-.725.892c-.687.641-1.539,1.433-2.233,2.063a3.931,3.931,0,0,1-.533.406c-.108.068-.219.132-.334.191a4.644,4.644,0,0,1-2.119.5,4.728,4.728,0,0,1-1.629-.287,4.248,4.248,0,0,1-.49-.215c-.115-.058-.226-.122-.333-.191a3.922,3.922,0,0,1-.535-.407c-.693-.631-1.546-1.422-2.232-2.063a3.93,3.93,0,0,1-.3-.306c-.039-.043-.076-.086-.111-.131s-.092-.117-.135-.176l-.045-.065c-.036-.052-.07-.1-.1-.155l0-.007c-.017-.027-.034-.055-.05-.083a3.6,3.6,0,0,1-.216-.429c-.023-.053-.044-.107-.064-.16,0-.009-.006-.017-.009-.026-.009-.025-.018-.05-.026-.075s-.02-.06-.029-.089l-.027-.092q-.012-.044-.023-.089c-.015-.061-.029-.122-.04-.183q-.009-.046-.017-.092c0-.031-.01-.061-.014-.092s-.007-.053-.01-.079,0-.042-.006-.063q-.015-.151-.016-.3l0-.028a.9.9,0,0,1-.43-.129,2.244,2.244,0,0,1-.74-.831,5.722,5.722,0,0,1-.648-1.415,2.853,2.853,0,0,1-.028-1.542,1.4,1.4,0,0,1,.157-.365,1.074,1.074,0,0,1,.623-.438,13.692,13.692,0,0,1-.178-1.952,8.616,8.616,0,0,1,.036-1.214,6.4,6.4,0,0,1,.919-2.782,7.431,7.431,0,0,1,2.632-2.354,4.923,4.923,0,0,1,.455-.23c-1.639,1.485-1.918,2.923-1.526,4.134a5.4,5.4,0,0,0,4.4,3.354,3.166,3.166,0,0,0,.791-1.936v.131a1.718,1.718,0,0,0,.047.322l.017.064c.006.021.013.043.019.064s.014.042.021.063a2.752,2.752,0,0,0,1.273,1.535,4.464,4.464,0,0,0,2.343.277,4.255,4.255,0,0,1,1.066.039,4.287,4.287,0,0,0-1.057.141,6.748,6.748,0,0,1-1.748.239,1.977,1.977,0,0,0-1.343.319,1.788,1.788,0,0,0-.636,1.52c-.006,1.842,0,3.684,0,5.525v.821a1.708,1.708,0,0,0,2.407,1.567l.049-.024c.115-.059.226-.123.334-.191a3.921,3.921,0,0,0,.533-.406c.694-.631,1.546-1.422,2.233-2.063A4.223,4.223,0,0,0,571.191,301.34Z" transform="translate(-555.69 -285.89)" fill="#1f1e21" opacity="0.5" style="mix-blend-mode: overlay;isolation: isolate"/>
      <g id="Group_18065" data-name="Group 18065" transform="translate(9.555 5.919)">
        <path id="Path_60082" data-name="Path 60082" d="M609.8,321.263v.131A1.274,1.274,0,0,1,609.8,321.263Z" transform="translate(-609.802 -321.263)" fill="#48569c"/>
      </g>
    </g>
    <path id="Path_60083" data-name="Path 60083" d="M609.8,321.263v.131A1.274,1.274,0,0,1,609.8,321.263Z" transform="translate(-600.247 -315.344)" fill="#1f1e21" opacity="0.2"/>
  </g>
</svg>
