<svg id="img" xmlns="http://www.w3.org/2000/svg" width="32.016" height="32.016" viewBox="0 0 32.016 32.016">
  <g id="Group_18042" data-name="Group 18042" transform="translate(0 0)">
    <g id="Group_18041" data-name="Group 18041" transform="translate(0 0)">
      <path id="Path_60021" data-name="Path 60021" d="M1136.213,69.841a16.017,16.017,0,0,1-17.9,15.9q-.627-.074-1.24-.2A16.012,16.012,0,0,1,1104.2,70.127c0-.1,0-.191,0-.286q0-.6.044-1.19a16.008,16.008,0,0,1,31.935.093Q1136.213,69.288,1136.213,69.841Z" transform="translate(-1104.197 -53.833)" fill="#8485a4"/>
    </g>
  </g>
  <path id="Path_60022" data-name="Path 60022" d="M1120.207,69.314V95.229l-3.138,3.138A16.012,16.012,0,0,1,1104.2,82.952c0-.1,0-.191,0-.286q0-.6.044-1.19l9.769-9.77a1.093,1.093,0,0,1,.121-.093,1.755,1.755,0,0,1,1.275-.191c-.048-.009.088-.538.1-.587a2.016,2.016,0,0,1,2.586-1.248.624.624,0,0,1,.057.031.725.725,0,0,1,.172.12,1.215,1.215,0,0,1,.677-.6A1.419,1.419,0,0,1,1120.207,69.314Z" transform="translate(-1104.197 -66.658)" fill="#626584"/>
  <g id="Group_18045" data-name="Group 18045" transform="translate(6.455 2.362)">
    <g id="Group_18044" data-name="Group 18044" transform="translate(0 0)">
      <path id="Path_60023" data-name="Path 60023" d="M1164.027,198.11a15.932,15.932,0,0,1-6.488,2.869,16.1,16.1,0,0,1-3.064.293h0a15.977,15.977,0,0,1-9.551-3.162,9.768,9.768,0,0,1,7.1-6.814c.111-.027.221-.052.333-.077a10.2,10.2,0,0,1,2.117-.221h0a10.2,10.2,0,0,1,2.117.221l.133.029.2.048A9.768,9.768,0,0,1,1164.027,198.11Z" transform="translate(-1144.922 -171.617)" fill="#066873"/>
      <path id="Path_60024" data-name="Path 60024" d="M1155.346,132.289a1.2,1.2,0,0,1-.147.29,1.354,1.354,0,0,1-.4.333,1.271,1.271,0,0,1-.64.235h-.018l-.045,0-.028,0-.022,0-.009,0-.052-.011h0l-.033-.009a.9.9,0,0,1-.127-.046l-.052-.025-.05-.027a1.4,1.4,0,0,1-.277-.211c-.033-.033-.065-.066-.1-.1s-.061-.071-.09-.108c-.058-.074-.112-.152-.164-.231-.039-.059-.076-.119-.112-.18-.067-.112-.133-.224-.2-.338-.031-.058-.061-.115-.091-.173-.059-.116-.115-.233-.167-.353s-.1-.24-.138-.363c-.01-.031-.02-.062-.03-.093l-.027-.094c-.029-.1-.053-.209-.072-.316a2.784,2.784,0,0,1,0-1.056c.012-.057.026-.113.042-.169l.014-.048a1.507,1.507,0,0,1,.093-.231c.015-.029.032-.058.05-.086a.972.972,0,0,1,.233-.248,1.061,1.061,0,0,1,.144-.092,1.243,1.243,0,0,1,.294-.11,1.332,1.332,0,0,1,.56-.013,1.473,1.473,0,0,1,.187.05,1.577,1.577,0,0,1,.224.093l.049.025a2.335,2.335,0,0,1,.685.582,3.1,3.1,0,0,1,.526.942c.014.041.028.083.041.125a3.309,3.309,0,0,1,.095.4s0,0,0,0A3.171,3.171,0,0,1,1155.346,132.289Z" transform="translate(-1151.052 -118.927)" fill="#daaa82"/>
      <path id="Path_60025" data-name="Path 60025" d="M1240.061,132.184a2.243,2.243,0,0,1-.74.831.889.889,0,0,1-.439.129,1.273,1.273,0,0,1-.641-.235,1.361,1.361,0,0,1-.4-.333,1.2,1.2,0,0,1-.147-.29,3.232,3.232,0,0,1,.513-3.133,2.042,2.042,0,0,1,1.145-.75,1.2,1.2,0,0,1,1.231.463,1.361,1.361,0,0,1,.157.364,2.854,2.854,0,0,1-.028,1.541A5.708,5.708,0,0,1,1240.061,132.184Z" transform="translate(-1222.818 -118.924)" fill="#daaa82"/>
      <path id="Path_60026" data-name="Path 60026" d="M1169.217,76.078a1.961,1.961,0,0,1,.188.991.712.712,0,0,1-.676.637,2.124,2.124,0,0,1,.151.494c0,.025.009.05.013.075a2.142,2.142,0,0,1,0,.638.97.97,0,0,1-.518.793c.067-.026.088.432.083.472a.884.884,0,0,1-.221.458,1.458,1.458,0,0,0-.287.5c0,.014-.01.028-.014.042-.034.1-.062.215-.091.334-.024-.176-.047-.352-.07-.528-.011-.083-.022-.166-.041-.247-.043-.18-.073-.255-.156-.284a.561.561,0,0,0-.183-.019h-10.88c-.046,0-.093,0-.14,0a1.755,1.755,0,0,0-.291,0,2.2,2.2,0,0,0-.33.095.91.91,0,0,0-.19.073.384.384,0,0,0-.045.029.628.628,0,0,0-.168.22,2.382,2.382,0,0,0-.27,1.019c-.015-.116-.032-.232-.053-.347,0-.019-.007-.037-.01-.055,0,0,0,0,0,0a8.8,8.8,0,0,1-.269-1.018c-.019-.338.033-.6-.236-.87-.1-.1-.228-.183-.339-.279a1.4,1.4,0,0,1-.46-.967,1.366,1.366,0,0,1,.21-.837,1.614,1.614,0,0,1-.083-2.56,1.655,1.655,0,0,1,1.145-2.468.944.944,0,0,1,.217-.964.969.969,0,0,1,.086-.086,1.117,1.117,0,0,1,.121-.093,1.756,1.756,0,0,1,1.275-.191c-.048-.009.088-.538.1-.587a2.016,2.016,0,0,1,2.586-1.248.639.639,0,0,1,.057.031.726.726,0,0,1,.172.12,1.216,1.216,0,0,1,.677-.6,1.42,1.42,0,0,1,1.2.176c.027.018.054.037.08.057.058.045.275.194.239.288a.976.976,0,0,1,.526-.538,1.469,1.469,0,0,1,.823-.078,1.2,1.2,0,0,1,1.054.924,1.239,1.239,0,0,1,1.954,1.112.932.932,0,0,1,1.008,1.4.88.88,0,0,1,1.029.343,1.255,1.255,0,0,1,.094,1.129,1.187,1.187,0,0,1,1.307.773A1.435,1.435,0,0,1,1169.217,76.078Z" transform="translate(-1151.926 -68.733)" fill="#232022"/>
      <g id="Group_18043" data-name="Group 18043" transform="translate(7.101 16.958)">
        <path id="Path_60027" data-name="Path 60027" d="M1194.622,179.853v4.114a2.451,2.451,0,0,1-2.451,2.451h0a2.451,2.451,0,0,1-2.45-2.451v-4.114Z" transform="translate(-1189.72 -179.196)" fill="#daaa82"/>
        <path id="Path_60028" data-name="Path 60028" d="M1194.622,175.71v2.453c-.064.075-.131.149-.2.22a4.635,4.635,0,0,1-1.937,1.165c-.1.032-.208.06-.314.085a4.7,4.7,0,0,1-1.084.128,4.3,4.3,0,0,1-1.367-.218V175.71Z" transform="translate(-1189.72 -175.71)" fill="#1f1e21" opacity="0.5" style="mix-blend-mode: overlay;isolation: isolate"/>
      </g>
      <path id="Path_60029" data-name="Path 60029" d="M1177.369,100.963v9.118a3.719,3.719,0,0,1-1.238,2.715c-.686.641-1.538,1.432-2.231,2.062a3.9,3.9,0,0,1-.533.406c-.108.068-.219.132-.334.191a4.641,4.641,0,0,1-2.118.5,4.721,4.721,0,0,1-1.628-.287,4.207,4.207,0,0,1-.489-.215c-.114-.058-.225-.122-.333-.191a3.94,3.94,0,0,1-.535-.407c-.693-.631-1.545-1.421-2.231-2.062a3.718,3.718,0,0,1-1.238-2.715v-9.118Z" transform="translate(-1161.364 -95.854)" fill="#f3bcca"/>
      <path id="Path_60030" data-name="Path 60030" d="M1177.37,100.964v9.118a3.718,3.718,0,0,1-1.238,2.715c-.686.641-1.538,1.432-2.231,2.062a3.925,3.925,0,0,1-.533.406c-.108.068-.219.133-.334.191a4.639,4.639,0,0,1-2.118.5,4.721,4.721,0,0,1-1.628-.287,4.171,4.171,0,0,1-.489-.215c-.114-.058-.225-.122-.333-.19a3.947,3.947,0,0,1-.535-.407c-.693-.631-1.545-1.421-2.231-2.062a3.719,3.719,0,0,1-1.239-2.694v-9.14Z" transform="translate(-1161.365 -95.855)" fill="#eeb997"/>
      <path id="Path_60031" data-name="Path 60031" d="M1176.908,100.094l-.106,8.6a.669.669,0,0,1-.337.09c.01,0-.025-1.8-.022-1.988a1.428,1.428,0,0,0-.064-.509.82.82,0,0,0-.267-.357.724.724,0,0,0-.32-.106.847.847,0,0,1-.594-.586,1.116,1.116,0,0,1,.184-.933.537.537,0,0,1-.392-.094,1.057,1.057,0,0,1-.441-.485.691.691,0,0,1,.045-.639.628.628,0,0,1-.416.211,1.336,1.336,0,0,1-.473-.045,1.384,1.384,0,0,1-.458-.185.655.655,0,0,1-.283-.394,1.12,1.12,0,0,1-1.043.791,3.737,3.737,0,0,1-.436-.007,1.22,1.22,0,0,1-.793-.464c.054.069-.052.234-.083.3a.759.759,0,0,1-.239.258,1.745,1.745,0,0,1-.728.325,1.814,1.814,0,0,1-1.3-.257,1.272,1.272,0,0,1-.279-.258c-.065-.08-.094-.2-.159-.268.044.047-.234.313-.267.339a1.05,1.05,0,0,1-.417.2.953.953,0,0,1-.8-.159,1,1,0,0,1-.127,1.068,2.241,2.241,0,0,1-.326.327c-.044.034-.361.226-.411.139a1.016,1.016,0,0,1,.022.962,1.311,1.311,0,0,1-.419.454c-.159.113-.391.173-.533.3a1.7,1.7,0,0,0-.325,1.164,7.042,7.042,0,0,0,0,.909.669.669,0,0,1-.4-.132l-.107-8.56Z" transform="translate(-1160.797 -95.123)" fill="#232022"/>
      <path id="Path_60032" data-name="Path 60032" d="M1164.444,158.441h0v.028Z" transform="translate(-1161.35 -144.221)" fill="#1f1e21" opacity="0.5" style="mix-blend-mode: overlay;isolation: isolate"/>
    </g>
    <path id="Path_60033" data-name="Path 60033" d="M1160.411,87.2l-.055.09c-.018.03-.038.059-.058.089l-.04.058c-.027.039-.055.078-.084.116l-.034.045c-.032.041-.065.082-.1.122l-.047.055-.048.054-.049.054-.063.066-.048.048-.005.005-.038.037-.054.051c-.558.521-1.225,1.141-1.827,1.693l-.272.25-.132.12a3.88,3.88,0,0,1-.463.36l-.071.046a3.84,3.84,0,0,1-.334.191,4.639,4.639,0,0,1-2.118.5V95.33a2.444,2.444,0,0,1-.786-.129q-.056-.019-.112-.041c-.056-.022-.11-.046-.164-.072-.036-.017-.071-.036-.105-.054-.053-.028-.1-.058-.153-.09-.033-.021-.066-.043-.1-.066a2.4,2.4,0,0,1-.314-.265,2.44,2.44,0,0,1-.718-1.733v.657a2.452,2.452,0,0,0,2.45,2.452,2.8,2.8,0,0,0,2.8-2.8v.752a2.8,2.8,0,0,1-2.8,2.8V100.8a16.056,16.056,0,0,1-1.9-.112,15.9,15.9,0,0,1-5.023-1.457q-.232-.112-.461-.23t-.453-.245q-.224-.126-.444-.259-.329-.2-.648-.414t-.627-.444a9.518,9.518,0,0,1,2.486-4.227q.227-.226.468-.435c.081-.07.162-.139.245-.206a9.855,9.855,0,0,1,1.324-.911c.093-.054.188-.106.284-.157s.191-.1.288-.148l.147-.071c.147-.07.3-.135.448-.2q.3-.125.615-.23.391-.131.8-.232v-.267a3.93,3.93,0,0,1-.535-.407c-.693-.631-1.545-1.421-2.231-2.062l-.073-.071-.054-.054-.016-.017c-.015-.015-.031-.031-.045-.047l-.025-.026-.014-.015-.005-.006-.033-.037-.016-.019c-.022-.024-.043-.048-.063-.073l-.007-.008-.038-.046-.028-.035-.05-.064,0,0-.042-.058-.027-.037-.043-.06,0,0-.041-.06-.013-.02-.026-.04-.014-.023-.012-.019-.04-.067-.006-.009,0-.007c-.015-.025-.029-.05-.043-.075s-.034-.061-.05-.092-.035-.069-.051-.1l-.014-.029-.018-.038-.006-.014,0,0-.009-.019,0-.012a.021.021,0,0,1,0-.006l0-.008c0-.009-.008-.018-.011-.026s-.005-.013-.008-.019l-.009-.021-.005-.013-.012-.031c-.01-.025-.02-.051-.029-.076l-.009-.026-.006-.018c-.007-.019-.014-.038-.02-.057s-.01-.03-.015-.045-.01-.029-.014-.044q-.014-.046-.027-.092l0-.013c-.007-.025-.014-.05-.02-.076s-.015-.061-.022-.091-.013-.061-.019-.091-.012-.061-.016-.092-.01-.061-.014-.093-.006-.049-.009-.074a.017.017,0,0,0,0,0l0-.014c0-.013,0-.026,0-.038s0-.007,0-.011l-.007-.075c0-.018,0-.037,0-.055a.037.037,0,0,0,0-.007s0-.008,0-.012,0-.016,0-.023l0-.038v-.007s0-.006,0-.01c0-.025,0-.051,0-.076v-.029H1148l-.045,0-.028,0-.022,0-.009,0-.051-.011h0l-.033-.009a.894.894,0,0,1-.127-.046l-.052-.025-.05-.027a1.4,1.4,0,0,1-.277-.211c-.033-.033-.065-.066-.1-.1s-.061-.071-.09-.108c-.058-.074-.113-.152-.164-.231-.039-.059-.076-.119-.112-.18-.067-.112-.133-.224-.2-.338-.031-.058-.061-.115-.091-.173-.06-.116-.116-.233-.167-.353s-.1-.24-.138-.363c-.01-.031-.02-.062-.03-.093s-.019-.062-.027-.094c-.029-.1-.053-.21-.072-.316a2.787,2.787,0,0,1,0-1.056c.012-.057.026-.113.042-.169,0-.016.009-.032.015-.048a1.5,1.5,0,0,1,.093-.231c.015-.029.032-.058.05-.086.063-.1.17-.158.233-.248a1.04,1.04,0,0,1,.144-.092,1.366,1.366,0,0,1,.21-.837,1.615,1.615,0,0,1-.083-2.56,1.655,1.655,0,0,1,1.146-2.468.992.992,0,0,1,.423-1.143,1.755,1.755,0,0,1,1.275-.191c-.048-.009.088-.538.1-.587a2.016,2.016,0,0,1,2.586-1.248.605.605,0,0,1,.057.031c-.156-.09-.74.379-.852.468a3.177,3.177,0,0,0-.872,1.073,3.924,3.924,0,0,0-.3,2.361,4.1,4.1,0,0,0,2.21,3.086,3.3,3.3,0,0,0,2.1.314.382.382,0,0,1,.093-.023c.043.005.02,0,.049.028s.069.087.11.123a1.3,1.3,0,0,0,.253.18,1.738,1.738,0,0,0,1.224.056.784.784,0,0,0,.175-.089,1.739,1.739,0,0,0,.158-.121,1.015,1.015,0,0,0,.32-.517.629.629,0,0,0,.269.4,1.127,1.127,0,0,0,.417.181.992.992,0,0,0,.93-.139l-.029.055a.985.985,0,0,1-.619.484,1.049,1.049,0,0,1-.927-.215.982.982,0,0,1-.092-.088,1.117,1.117,0,0,1-.6.467,2.433,2.433,0,0,1-.863.223c-1.588.067-1.235,1.986-1.235,3.067,0,.609.016,1.221,0,1.831-.026,1.047.1,2.1.122,3.152q.007.314.007.623c0,.011,0,.022,0,.033a1.707,1.707,0,0,0,2.405,1.532l.047-.022,0,0c.115-.058.226-.123.333-.191a3.937,3.937,0,0,0,.533-.406c.694-.631,1.545-1.421,2.231-2.062A4.148,4.148,0,0,0,1160.411,87.2Z" transform="translate(-1144.919 -71.15)" fill="#1f1e21" opacity="0.5" style="mix-blend-mode: overlay;isolation: isolate"/>
    <path id="Path_60034" data-name="Path 60034" d="M1245.567,154.36v.064l-.057.009c0-.014,0-.027,0-.042A.621.621,0,0,0,1245.567,154.36Z" transform="translate(-1229.561 -140.787)" fill="#1f1e21" opacity="0.5" style="mix-blend-mode: overlay;isolation: isolate"/>
    <path id="Path_60035" data-name="Path 60035" d="M1177.362,103.15" transform="translate(-1172.219 -97.694)" fill="#1f1e21"/>
  </g>
</svg>
