<svg id="img" xmlns="http://www.w3.org/2000/svg" width="31.998" height="31.999" viewBox="0 0 31.998 31.999">
  <g id="Group_18054" data-name="Group 18054" transform="translate(0 0)">
    <g id="Group_18053" data-name="Group 18053" transform="translate(0 0)">
      <path id="Path_60051" data-name="Path 60051" d="M71.2,281.192a16,16,0,0,1-32,.286q0-.143,0-.286a16,16,0,0,1,31.961-1.1Q71.2,280.639,71.2,281.192Z" transform="translate(-39.197 -265.193)" fill="#f3cea1"/>
    </g>
  </g>
  <path id="Path_60052" data-name="Path 60052" d="M55.209,282.722v27.215l-1.894,1.894a16,16,0,0,1-14.1-15.6l9.246-9.245s0,0,0,0l.372-.371,0,0a3.857,3.857,0,0,1,1.809-.918,2.043,2.043,0,0,1,.324-.029c0-.022.006-.045.009-.067a2.415,2.415,0,0,1,.592-1.234A5.483,5.483,0,0,1,55.209,282.722Z" transform="translate(-39.211 -279.945)" fill="#cf9242" opacity="0.7"/>
  <g id="Group_18057" data-name="Group 18057" transform="translate(6.452 1.882)">
    <g id="Group_18056" data-name="Group 18056" transform="translate(0 0)">
      <path id="Path_60053" data-name="Path 60053" d="M99.017,409.467a15.92,15.92,0,0,1-6.484,2.867,16.088,16.088,0,0,1-3.063.293h0a15.968,15.968,0,0,1-9.546-3.16,9.763,9.763,0,0,1,7.1-6.81c.111-.027.221-.052.333-.077a10.192,10.192,0,0,1,2.116-.221h0a10.2,10.2,0,0,1,2.116.221l.133.029.2.048A9.762,9.762,0,0,1,99.017,409.467Z" transform="translate(-79.923 -382.51)" fill="#309180"/>
      <path id="Path_60054" data-name="Path 60054" d="M90.349,343.647a1.191,1.191,0,0,1-.147.289,1.354,1.354,0,0,1-.4.333,1.272,1.272,0,0,1-.64.235h-.006a.891.891,0,0,1-.433-.129,2.24,2.24,0,0,1-.739-.83,5.71,5.71,0,0,1-.648-1.413,2.849,2.849,0,0,1-.028-1.54,1.383,1.383,0,0,1,.157-.364,1.083,1.083,0,0,1,.671-.45,1.332,1.332,0,0,1,.56-.013,1.453,1.453,0,0,1,.187.05,1.606,1.606,0,0,1,.273.118,2.332,2.332,0,0,1,.684.582,3.1,3.1,0,0,1,.526.942,3.274,3.274,0,0,1,.137.532A3.166,3.166,0,0,1,90.349,343.647Z" transform="translate(-86.056 -329.814)" fill="#daaa82"/>
      <path id="Path_60055" data-name="Path 60055" d="M175.06,343.543a2.243,2.243,0,0,1-.74.83.889.889,0,0,1-.438.129,1.272,1.272,0,0,1-.64-.235,1.364,1.364,0,0,1-.4-.333,1.206,1.206,0,0,1-.147-.289,3.23,3.23,0,0,1,.513-3.132,2.041,2.041,0,0,1,1.144-.75,1.2,1.2,0,0,1,1.231.463,1.363,1.363,0,0,1,.157.364,2.853,2.853,0,0,1-.028,1.54A5.707,5.707,0,0,1,175.06,343.543Z" transform="translate(-157.827 -329.812)" fill="#daaa82"/>
      <path id="Path_60056" data-name="Path 60056" d="M107.242,285.1a13.631,13.631,0,0,1-.179,1.958,5.12,5.12,0,0,1-.469,1.426l-.219.422a1.487,1.487,0,0,1-.134.277l-.012.012a.273.273,0,0,1-.205.052c-.04,0-.08,0-.12,0l-.186,0H92.729a11.577,11.577,0,0,1-.747-2.211c-.546-2.386-.052-5.521,2.749-6.162a1.593,1.593,0,0,1,.351-1.087,4.681,4.681,0,0,1,2.507-1.714,7.192,7.192,0,0,1,1.5-.273q.2-.016.4-.024c.39-.016.782-.009,1.171.012.6.033,1.311.055,1.689-.415a.773.773,0,0,1,.515.452,1.017,1.017,0,0,0-.373-.754A9.066,9.066,0,0,1,104,278.42a3.083,3.083,0,0,1,.779,1.838c0,.046.812.5.905.573a7.427,7.427,0,0,1,.8.794,4.118,4.118,0,0,1,.72,2.265A8.607,8.607,0,0,1,107.242,285.1Z" transform="translate(-89.906 -277.074)" fill="#f46948"/>
      <g id="Group_18055" data-name="Group 18055" transform="translate(7.097 17.427)">
        <path id="Path_60057" data-name="Path 60057" d="M129.62,391.214v4.112a2.449,2.449,0,0,1-2.449,2.449h0a2.449,2.449,0,0,1-2.449-2.449v-4.112Z" transform="translate(-124.721 -390.558)" fill="#daaa82"/>
        <path id="Path_60058" data-name="Path 60058" d="M129.62,387.071v2.452q-.1.113-.2.22a4.63,4.63,0,0,1-1.936,1.165c-.1.032-.208.06-.313.085a4.7,4.7,0,0,1-1.083.127,4.291,4.291,0,0,1-1.366-.218v-3.83Z" transform="translate(-124.721 -387.071)" fill="#1f1e21" opacity="0.5" style="mix-blend-mode: overlay;isolation: isolate"/>
      </g>
      <path id="Path_60059" data-name="Path 60059" d="M112.363,312.324v9.113a3.717,3.717,0,0,1-1.237,2.714c-.686.64-1.537,1.431-2.23,2.061a3.924,3.924,0,0,1-.533.406c-.108.068-.219.132-.334.191a4.638,4.638,0,0,1-2.117.5,4.718,4.718,0,0,1-1.627-.287,4.2,4.2,0,0,1-.489-.215c-.114-.058-.225-.122-.333-.19a3.937,3.937,0,0,1-.534-.406c-.692-.63-1.544-1.421-2.23-2.061a3.716,3.716,0,0,1-1.238-2.714v-9.113Z" transform="translate(-96.366 -306.739)" fill="#f3bcca"/>
      <path id="Path_60060" data-name="Path 60060" d="M112.363,312.324v9.113a3.717,3.717,0,0,1-1.237,2.714c-.686.64-1.537,1.431-2.23,2.061a3.924,3.924,0,0,1-.533.406c-.108.068-.219.132-.334.191a4.638,4.638,0,0,1-2.117.5,4.718,4.718,0,0,1-1.627-.287,4.2,4.2,0,0,1-.489-.215c-.114-.058-.225-.122-.333-.19a3.937,3.937,0,0,1-.534-.406c-.692-.63-1.544-1.421-2.23-2.061a3.717,3.717,0,0,1-1.238-2.692v-9.134Z" transform="translate(-96.366 -306.739)" fill="#eeb997"/>
      <path id="Path_60061" data-name="Path 60061" d="M111.251,301.734v1.73a.674.674,0,0,1-.673.673c0-.527-.009-1.356-.018-1.959-.011-.8-.717-.89-1.288-1.277a2.365,2.365,0,0,1-.877-1.288,7.04,7.04,0,0,1-.23-1.568q-3.87.128-7.743.086a4.591,4.591,0,0,1-.345,2.093,5.9,5.9,0,0,1-.727,1.27c-.041.051-.083.1-.127.153a2.968,2.968,0,0,1-.307.313,3.438,3.438,0,0,1-.4.218c-.059.027-.1.041-.1.03,0,.643,0,1.286,0,1.929a.674.674,0,0,1-.673-.673v-8.334q.1-.114.215-.221a4.54,4.54,0,0,1,1.945-1.043c.106-.03.214-.057.326-.083l.007-.014a4.75,4.75,0,0,1,1.035-1.326h4.5c1.465,0,2.982-.129,4.209.837a3.72,3.72,0,0,1,1.1,1.417,3.3,3.3,0,0,1,.118,1.348v5.689Z" transform="translate(-94.917 -290.002)" fill="#f46948"/>
      <path id="Path_60062" data-name="Path 60062" d="M99.445,369.8h0v.028Z" transform="translate(-96.352 -355.111)" fill="#1f1e21" opacity="0.5" style="mix-blend-mode: overlay;isolation: isolate"/>
    </g>
    <path id="Path_60063" data-name="Path 60063" d="M95.407,297.339l-.055.09c-.019.03-.038.059-.058.089l-.04.058c-.027.039-.055.078-.084.116l-.035.045c-.032.041-.065.082-.1.122l-.047.055-.048.054-.049.054-.063.066-.048.048-.005.005-.038.037-.054.052c-.686.641-1.538,1.431-2.231,2.061a3.92,3.92,0,0,1-.533.406c-.107.068-.219.132-.334.191a4.64,4.64,0,0,1-2.117.5v4.073a2.449,2.449,0,0,1-2.449-2.449v.656a2.451,2.451,0,0,0,2.449,2.451,2.8,2.8,0,0,0,2.8-2.8v.751a2.8,2.8,0,0,1-2.8,2.8v4.064a15.968,15.968,0,0,1-9.546-3.16,9.763,9.763,0,0,1,7.1-6.811V300.7a3.94,3.94,0,0,1-.534-.406c-.692-.63-1.544-1.42-2.229-2.061-.044-.041-.086-.082-.128-.124l-.061-.063-.025-.026L84.03,298l0-.005-.033-.037c-.029-.033-.058-.066-.086-.1l-.038-.046-.028-.034-.05-.064,0,0c-.04-.052-.078-.105-.115-.159l-.041-.06-.013-.02-.026-.041c-.026-.041-.051-.082-.075-.124s-.063-.111-.092-.167c-.018-.034-.035-.069-.051-.1s-.026-.054-.038-.082c0-.008-.008-.015-.011-.023s-.008-.018-.011-.026-.014-.03-.02-.045l-.014-.034c0-.01-.008-.021-.012-.031s-.02-.051-.03-.076l-.009-.026a.182.182,0,0,1-.006-.018c-.007-.019-.014-.038-.02-.057s-.01-.03-.015-.045-.01-.029-.014-.044l-.027-.092,0-.013c-.007-.025-.014-.05-.02-.075s-.015-.061-.022-.091-.013-.061-.019-.091-.012-.061-.016-.092-.01-.061-.014-.092l-.009-.074a.013.013,0,0,0,0,0l0-.014c0-.013,0-.026,0-.038s0-.007,0-.011l-.006-.076c0-.018,0-.037,0-.055s0-.012,0-.019c0-.023,0-.046,0-.069,0,0,0-.007,0-.01,0-.025,0-.051,0-.076v-.028h-.006l-.05,0-.029,0-.022,0-.009,0-.051-.011h0a.962.962,0,0,1-.212-.08l-.05-.027a2.23,2.23,0,0,1-.74-.83,5.723,5.723,0,0,1-.648-1.413,2.854,2.854,0,0,1-.028-1.54,1.393,1.393,0,0,1,.157-.364,1.082,1.082,0,0,1,.671-.45c-.546-2.386-.052-5.521,2.749-6.162a1.593,1.593,0,0,1,.351-1.087,4.681,4.681,0,0,1,2.507-1.714,7.194,7.194,0,0,1,1.5-.273c.14,0,.273-.012.4-.024a8.817,8.817,0,0,0-2.241,1.734,3.971,3.971,0,0,0-1.252,3.145c.191,2.874,3.349,2.542,3.349,2.542l3.815-.081s-1.115.334-1.676.487a3.78,3.78,0,0,0-1.437.512,1.728,1.728,0,0,0-.59,1.312v7.692c0,.011,0,.023,0,.033a1.706,1.706,0,0,0,2.4,1.532l.046-.022,0,0c.114-.059.225-.123.333-.191a3.905,3.905,0,0,0,.533-.406c.694-.63,1.544-1.42,2.23-2.061A4.145,4.145,0,0,0,95.407,297.339Z" transform="translate(-79.924 -280.819)" fill="#1f1e21" opacity="0.5" style="mix-blend-mode: overlay;isolation: isolate"/>
    <path id="Path_60064" data-name="Path 60064" d="M180.568,365.721v.064l-.057.009c0-.014,0-.027,0-.042A.572.572,0,0,0,180.568,365.721Z" transform="translate(-164.572 -351.677)" fill="#1f1e21" opacity="0.5" style="mix-blend-mode: overlay;isolation: isolate"/>
    <path id="Path_60065" data-name="Path 60065" d="M112.363,314.51" transform="translate(-107.224 -308.579)" fill="#1f1e21"/>
  </g>
</svg>
