<svg xmlns="http://www.w3.org/2000/svg" width="31.999" height="31.999" viewBox="0 0 31.999 31.999">
  <g id="img" transform="translate(-274.013 -32.833)">
    <g id="Group_18048" data-name="Group 18048" transform="translate(274.013 32.833)">
      <g id="Group_18047" data-name="Group 18047" transform="translate(0 0)">
        <path id="Path_60036" data-name="Path 60036" d="M306.012,48.833a16,16,0,0,1-32,.286c0-.1,0-.19,0-.286a16,16,0,0,1,31.962-1.1Q306.012,48.28,306.012,48.833Z" transform="translate(-274.013 -32.833)" fill="#64bca4"/>
      </g>
    </g>
    <path id="Path_60037" data-name="Path 60037" d="M290.026,54.94V81.431l-1.894,1.894a16,16,0,0,1-14.1-15.6l9.209-9.209.037-.037a0,0,0,0,1,0,0s4.66-3.316,5.374-3.43A8.571,8.571,0,0,1,290.026,54.94Z" transform="translate(-0.014 -18.604)" fill="#479c85"/>
    <g id="Group_18051" data-name="Group 18051" transform="translate(280.465 36.335)">
      <g id="Group_18050" data-name="Group 18050" transform="translate(0 0)">
        <path id="Path_60038" data-name="Path 60038" d="M333.833,177.107a15.919,15.919,0,0,1-6.484,2.867,16.091,16.091,0,0,1-3.063.293h0a15.968,15.968,0,0,1-9.546-3.16,9.763,9.763,0,0,1,7.1-6.81c.11-.027.221-.053.333-.077a10.2,10.2,0,0,1,2.116-.22h0a10.21,10.21,0,0,1,2.116.22l.133.029.2.048A9.761,9.761,0,0,1,333.833,177.107Z" transform="translate(-314.739 -151.77)" fill="#592404"/>
        <path id="Path_60039" data-name="Path 60039" d="M325.165,111.287a1.192,1.192,0,0,1-.147.289,1.354,1.354,0,0,1-.4.333,1.271,1.271,0,0,1-.64.235h-.006a.891.891,0,0,1-.433-.129,2.242,2.242,0,0,1-.74-.83,5.72,5.72,0,0,1-.648-1.413,2.849,2.849,0,0,1-.028-1.54,1.394,1.394,0,0,1,.157-.364,1.085,1.085,0,0,1,.671-.45,1.331,1.331,0,0,1,.56-.013,1.439,1.439,0,0,1,.187.05,1.607,1.607,0,0,1,.273.118,2.333,2.333,0,0,1,.684.582,3.106,3.106,0,0,1,.526.942,3.272,3.272,0,0,1,.137.532A3.169,3.169,0,0,1,325.165,111.287Z" transform="translate(-320.872 -99.073)" fill="#daaa82"/>
        <path id="Path_60040" data-name="Path 60040" d="M409.877,111.183a2.242,2.242,0,0,1-.74.83.888.888,0,0,1-.438.129,1.272,1.272,0,0,1-.64-.235,1.36,1.36,0,0,1-.4-.333,1.2,1.2,0,0,1-.147-.29,3.23,3.23,0,0,1,.512-3.131,2.04,2.04,0,0,1,1.144-.75,1.2,1.2,0,0,1,1.231.463,1.356,1.356,0,0,1,.157.364,2.851,2.851,0,0,1-.027,1.54A5.71,5.71,0,0,1,409.877,111.183Z" transform="translate(-392.644 -99.072)" fill="#daaa82"/>
        <path id="Path_60041" data-name="Path 60041" d="M341.681,63.305a5.125,5.125,0,0,1-.469,1.426l-.219.422a6.154,6.154,0,0,0-.562,1.42c-.024-.176-.047-.352-.07-.527a2.505,2.505,0,0,0-.041-.247c-.065-.274-.1-.3-.339-.3H329.106a3.414,3.414,0,0,0-.43,0,2.2,2.2,0,0,0-.33.095.74.74,0,0,0-.235.1.631.631,0,0,0-.168.221,2.382,2.382,0,0,0-.27,1.018c-.018-.136-.038-.271-.064-.4a8.164,8.164,0,0,0-.47-1.516,11.851,11.851,0,0,1-.539-1.726l-.026-.116-.006-.025a7.66,7.66,0,0,1-.172-2.375.153.153,0,0,1,0-.017,5.156,5.156,0,0,1,.885-2.237c.115-.177.236-.349.359-.516a7.339,7.339,0,0,1,2.524-2.121q.218-.114.441-.213a8.293,8.293,0,0,1,2.088-.619,8.571,8.571,0,0,1,1.373-.106,8.743,8.743,0,0,1,6.02,2.422,5.866,5.866,0,0,1,1.728,3.987A8.31,8.31,0,0,1,341.681,63.305Z" transform="translate(-324.524 -54.94)" fill="#e99f32"/>
        <g id="Group_18049" data-name="Group 18049" transform="translate(7.098 15.807)">
          <path id="Path_60042" data-name="Path 60042" d="M364.437,158.854v4.112a2.449,2.449,0,0,1-2.449,2.449h0a2.449,2.449,0,0,1-2.449-2.449v-4.112Z" transform="translate(-359.538 -158.198)" fill="#daaa82"/>
          <path id="Path_60043" data-name="Path 60043" d="M364.437,154.711v2.452c-.064.076-.131.149-.2.22a4.634,4.634,0,0,1-1.936,1.164q-.156.048-.313.085a4.705,4.705,0,0,1-1.083.127,4.289,4.289,0,0,1-1.366-.218v-3.831Z" transform="translate(-359.538 -154.711)" fill="#1f1e21" opacity="0.5" style="mix-blend-mode: overlay;isolation: isolate"/>
        </g>
        <path id="Path_60044" data-name="Path 60044" d="M347.18,79.963v9.113a3.717,3.717,0,0,1-1.237,2.714c-.686.641-1.537,1.431-2.23,2.061a3.92,3.92,0,0,1-.533.406c-.108.068-.219.132-.334.191a4.64,4.64,0,0,1-2.117.5,4.72,4.72,0,0,1-1.627-.287,4.22,4.22,0,0,1-.489-.215c-.114-.058-.225-.122-.333-.19a3.916,3.916,0,0,1-.534-.407c-.693-.63-1.544-1.42-2.23-2.061a3.715,3.715,0,0,1-1.238-2.714V79.963Z" transform="translate(-331.183 -75.999)" fill="#f3bcca"/>
        <path id="Path_60045" data-name="Path 60045" d="M347.181,79.964v9.113a3.716,3.716,0,0,1-1.237,2.714c-.686.641-1.537,1.431-2.23,2.061a3.921,3.921,0,0,1-.533.406q-.162.1-.334.191a4.639,4.639,0,0,1-2.117.5,4.72,4.72,0,0,1-1.627-.287,4.214,4.214,0,0,1-.489-.215c-.114-.058-.225-.122-.333-.19a3.933,3.933,0,0,1-.534-.407c-.692-.63-1.544-1.421-2.23-2.061A3.717,3.717,0,0,1,334.28,89.1V79.964Z" transform="translate(-331.184 -75.999)" fill="#eeb997"/>
        <path id="Path_60046" data-name="Path 60046" d="M347.181,79.964v8.46a.667.667,0,0,1-.336.09c0-.478-.005-.956-.011-1.433,0-.4.145-.926-.188-1.218-.315-.276-.725-.351-.825-.8-.165-.736.086-1.551-.253-2.252a1.726,1.726,0,0,0-1.826-.721,5.646,5.646,0,0,0-1.451.731,4.044,4.044,0,0,1-1.581.348,4.523,4.523,0,0,1-1.962-.385c-.593-.265-1.1-.911-1.8-.767-.545.111-.752.773-.724,1.252a5.007,5.007,0,0,1,.06,1.274,2.9,2.9,0,0,1-1.5,2.009c-.059.027-.1.041-.1.03,0,.643,0,1.286,0,1.929a.668.668,0,0,1-.4-.132V79.964Z" transform="translate(-331.184 -75.999)" fill="#e99f32"/>
        <path id="Path_60047" data-name="Path 60047" d="M334.262,137.441h0v.028Z" transform="translate(-331.169 -124.37)" fill="#1f1e21" opacity="0.5" style="mix-blend-mode: overlay;isolation: isolate"/>
      </g>
      <path id="Path_60048" data-name="Path 60048" d="M330.222,70.4l-.055.09c-.019.03-.038.059-.058.089l-.04.058c-.027.039-.055.078-.084.116l-.035.045c-.032.041-.065.082-.1.122l-.047.055-.048.054-.049.054-.063.066-.048.048-.005.006-.038.037-.054.051c-.687.641-1.538,1.431-2.231,2.061a3.909,3.909,0,0,1-.533.406q-.161.1-.334.191a4.64,4.64,0,0,1-2.117.5v4.073a2.449,2.449,0,0,1-2.449-2.45v.656a2.451,2.451,0,0,0,2.449,2.451,2.8,2.8,0,0,0,2.8-2.8v.751a2.8,2.8,0,0,1-2.8,2.8V84a15.968,15.968,0,0,1-9.546-3.16,9.763,9.763,0,0,1,7.1-6.811v-.267a3.952,3.952,0,0,1-.534-.407c-.693-.63-1.544-1.42-2.229-2.061-.044-.04-.086-.082-.128-.124l-.061-.063-.025-.026-.014-.015,0-.005-.033-.037c-.029-.033-.058-.066-.086-.1l-.038-.046-.028-.034-.05-.064,0,0c-.04-.053-.078-.105-.115-.159l-.041-.06-.013-.02-.026-.041c-.026-.041-.051-.082-.075-.124s-.063-.111-.093-.167c-.017-.034-.035-.069-.051-.1s-.026-.054-.038-.081a.246.246,0,0,1-.011-.024c0-.009-.008-.017-.011-.026s-.014-.03-.02-.045l-.014-.034-.012-.031c-.01-.025-.02-.051-.03-.076l-.009-.026-.006-.018c-.007-.019-.014-.038-.02-.057s-.01-.03-.015-.045-.01-.03-.014-.044c-.009-.031-.018-.061-.027-.092l0-.013c-.007-.025-.014-.05-.02-.075s-.015-.061-.022-.091-.013-.061-.019-.091-.011-.061-.016-.092-.01-.061-.014-.093-.006-.049-.009-.074a.018.018,0,0,0,0,0l0-.014c0-.013,0-.026,0-.038s0-.007,0-.011l-.007-.076c0-.018,0-.037,0-.055s0-.012,0-.019c0-.023,0-.046,0-.069,0,0,0-.007,0-.01,0-.025,0-.051,0-.076v-.029h-.007l-.05,0-.029,0-.022,0-.009,0-.051-.011h0a.955.955,0,0,1-.212-.08l-.05-.027a2.23,2.23,0,0,1-.74-.83,5.719,5.719,0,0,1-.648-1.414,2.854,2.854,0,0,1-.028-1.54,1.393,1.393,0,0,1,.157-.364,1.083,1.083,0,0,1,.671-.45c-.009-.039-.018-.078-.026-.116,0-.008,0-.017-.006-.025a8.959,8.959,0,0,1-.17-2.392,5.819,5.819,0,0,1,1.243-2.752,7.339,7.339,0,0,1,2.524-2.121,8.27,8.27,0,0,1,2.53-.832c-2.991,1.131-2.455,3.428-2.267,3.981.713,2.1,3.638,3.086,3.638,3.086a4.04,4.04,0,0,0,1.563-.348,5.645,5.645,0,0,1,1.451-.731,2.226,2.226,0,0,1,1.179.135,2.229,2.229,0,0,0-1.187.011,4.792,4.792,0,0,0-1.351.9,3.885,3.885,0,0,1-.862.475,1.21,1.21,0,0,0-.8,1.129l0,1.81v.569c-.176,1.714.009,3.565.009,5.305,0,.011,0,.022,0,.033a1.706,1.706,0,0,0,2.4,1.532l.046-.023,0,0c.114-.058.225-.122.333-.191a3.916,3.916,0,0,0,.533-.406c.694-.63,1.544-1.42,2.23-2.061A4.143,4.143,0,0,0,330.222,70.4Z" transform="translate(-314.739 -55.501)" fill="#1f1e21" opacity="0.5" style="mix-blend-mode: overlay;isolation: isolate"/>
      <path id="Path_60049" data-name="Path 60049" d="M415.385,133.36v.064l-.057.009c0-.014,0-.027,0-.042A.578.578,0,0,0,415.385,133.36Z" transform="translate(-399.388 -120.936)" fill="#1f1e21" opacity="0.5" style="mix-blend-mode: overlay;isolation: isolate"/>
      <path id="Path_60050" data-name="Path 60050" d="M347.18,82.15" transform="translate(-342.04 -77.839)" fill="#1f1e21"/>
    </g>
  </g>
</svg>
