<svg xmlns="http://www.w3.org/2000/svg" width="33.799" height="33.961" viewBox="0 0 33.799 33.961">
  <g id="profile" transform="translate(0)">
    <g id="Ellipse_679" data-name="Ellipse 679" transform="translate(7.934)" fill="#d8dde4" stroke="#d8dde4" stroke-width="2">
      <circle cx="8.965" cy="8.965" r="8.965" stroke="none"/>
      <circle cx="8.965" cy="8.965" r="7.965" fill="none"/>
    </g>
    <g id="Path_14996" data-name="Path 14996" transform="translate(0.052 19.561)" fill="#d8dde4">
      <path d="M 32.74698257446289 13.39976215362549 L 0.9495120644569397 13.39976215362549 C 0.9545515775680542 12.868896484375 0.9968913793563843 12.13355731964111 1.143301129341125 11.28855228424072 C 1.535361170768738 9.025781631469727 2.450241088867188 7.079391956329346 3.862531185150146 5.503451824188232 C 6.540491104125977 2.515182018280029 10.90935134887695 1.000002026557922 16.8477611541748 1.000002026557922 C 22.79905128479004 1.000002026557922 27.17364120483398 2.521582126617432 29.85002136230469 5.522481918334961 C 32.37664413452148 8.355470657348633 32.73218154907227 11.80524635314941 32.74698257446289 13.39976215362549 Z" stroke="none"/>
      <path d="M 16.8477611541748 2.000001907348633 C 11.21847152709961 2.000001907348633 7.105731964111328 3.397082328796387 4.623781204223633 6.152421951293945 C 3.344831466674805 7.572251796722412 2.509561538696289 9.333751678466797 2.141170501708984 11.3879919052124 C 2.076351165771484 11.74946022033691 2.032257080078125 12.0895471572876 2.002826690673828 12.39976215362549 L 31.69265365600586 12.39976215362549 C 31.66702461242676 12.1292896270752 31.63026428222656 11.83620452880859 31.5783519744873 11.52642250061035 C 31.22732162475586 9.431732177734375 30.39473152160645 7.6356520652771 29.10370063781738 6.188081741333008 C 26.62522125244141 3.409071922302246 22.50173187255859 2.000001907348633 16.8477611541748 2.000001907348633 M 16.8477611541748 1.9073486328125e-06 C 35.36094284057617 1.9073486328125e-06 33.70931243896484 14.39976215362549 33.70931243896484 14.39976215362549 L -0.01379013061523438 14.39976215362549 C -0.01379013061523438 14.39976215362549 -1.665428161621094 1.9073486328125e-06 16.8477611541748 1.9073486328125e-06 Z" stroke="none" fill="#d8dde4"/>
    </g>
  </g>
</svg>
