<svg xmlns="http://www.w3.org/2000/svg" xmlns:xlink="http://www.w3.org/1999/xlink" width="94" height="94" viewBox="0 0 94 94">
  <defs>
    <clipPath id="clip-path">
      <circle id="Ellipse_2480" data-name="Ellipse 2480" cx="47" cy="47" r="47" fill="none"/>
    </clipPath>
  </defs>
  <g id="Group_25109" data-name="Group 25109" transform="translate(-1377.918 -945.771)">
    <g id="Group_25108" data-name="Group 25108" transform="translate(1377.918 945.771)">
      <g id="Group_25107" data-name="Group 25107" clip-path="url(#clip-path)">
        <circle id="Ellipse_2479" data-name="Ellipse 2479" cx="47" cy="47" r="47" fill="#ff9597"/>
        <path id="Path_67224" data-name="Path 67224" d="M1396.368,969.47l-57.015,57.018,56.721,56.249,34.664-34.664-24.077-33.03Z" transform="translate(-1359.493 -957.094)" fill="#32303a" style="mix-blend-mode: soft-light;isolation: isolate"/>
        <g id="woman" transform="translate(22.924 8.833)">
          <path id="Path_67225" data-name="Path 67225" d="M1434.021,1012.671c.021.12.047.225.073.334.266,1.138.564,2.2.888,3.165a15.085,15.085,0,0,0,1.911,4.078,5.6,5.6,0,0,0,1.18,1.222,5.085,5.085,0,0,0,3.175.966h19.49a5.063,5.063,0,0,0,3.285-1.05,5.727,5.727,0,0,0,1.071-1.138,15.089,15.089,0,0,0,1.911-4.078c.324-.966.621-2.026.888-3.165.026-.11.052-.214.073-.324,3.055-13.447,2.146-37.281-4.778-44.462-2.841-2.945-6.355-5.536-12.194-5.536a15.135,15.135,0,0,0-10.324,3.776,23.908,23.908,0,0,0-1.87,1.76,10.245,10.245,0,0,0-.684.794C1431.817,977.014,1431.07,999.694,1434.021,1012.671Z" transform="translate(-1426.852 -962.684)" fill="#3c2417"/>
          <g id="Group_25103" data-name="Group 25103" transform="translate(16.308 42.195)">
            <path id="Path_67226" data-name="Path 67226" d="M1453.042,1051.222l2.611-1.078v-6.661H1466.1v6.661l2.611,1.078-2.611,15.962h-10.444Z" transform="translate(-1453.042 -1043.484)" fill="#f6ccb8"/>
            <path id="Path_67227" data-name="Path 67227" d="M1468.487,1043.567v3.465l-10.444,3.152v-6.617Z" transform="translate(-1455.431 -1043.523)" fill="#f6ccb8" style="mix-blend-mode: multiply;isolation: isolate"/>
          </g>
          <g id="Group_25105" data-name="Group 25105" transform="translate(0 48.856)">
            <rect id="Rectangle_9358" data-name="Rectangle 9358" width="21.049" height="25.342" transform="translate(13.681 12.341)" fill="#f080b1"/>
            <g id="Group_25104" data-name="Group 25104">
              <path id="Path_67228" data-name="Path 67228" d="M1478.017,1061.391v-5.153c.219.04.424.1.636.15,3.764.045,8.728.226,12.322,3.675,4.343,4.168,5.038,10.3,5.6,15.234l.025.221c.173,1.53.332,12.967.469,17.776h-19.048V1063.9h-.027Z" transform="translate(-1448.654 -1056.238)" fill="#32303a"/>
              <path id="Path_67229" data-name="Path 67229" d="M1422.284,1075.518l.025-.221c.558-4.93,1.253-11.066,5.6-15.233,3.551-3.408,8.439-3.626,12.186-3.674.214-.051.421-.111.642-.151v37.056h-18.919C1421.953,1088.486,1422.111,1077.049,1422.284,1075.518Z" transform="translate(-1421.815 -1056.238)" fill="#32303a"/>
            </g>
          </g>
          <g id="woman-2" data-name="woman" transform="translate(9.454 2.682)">
            <g id="Group_25106" data-name="Group 25106" transform="translate(0 3.114)">
              <path id="Path_67230" data-name="Path 67230" d="M1442.577,992.269v-5.431c0-5.768,6.678-13.056,11.964-13.056s11.964,7.287,11.964,13.056v5.431a2.635,2.635,0,0,1,2.658,2.611v2.715a2.635,2.635,0,0,1-2.658,2.611c0,5.768-6.678,13.265-11.964,13.265s-11.964-7.5-11.964-13.265a2.635,2.635,0,0,1-2.659-2.611V994.88A2.635,2.635,0,0,1,1442.577,992.269Z" transform="translate(-1439.918 -973.782)" fill="#f6ccb8"/>
              <path id="Path_67231" data-name="Path 67231" d="M1454.54,1003.81v9.661c-5.285,0-11.964-7.5-11.964-13.265a2.635,2.635,0,0,1-2.659-2.611V994.88a2.635,2.635,0,0,1,2.659-2.611v-5.431c0-5.768,6.678-13.056,11.964-13.056v21.15a35.511,35.511,0,0,1,2.659,8.356Z" transform="translate(-1439.918 -973.782)" fill="#f6ccb8" opacity="0.8" style="mix-blend-mode: multiply;isolation: isolate"/>
            </g>
            <path id="Path_67232" data-name="Path 67232" d="M1448.185,984.659a8.076,8.076,0,0,1-2.257,3.958,17.684,17.684,0,0,0,8.763-5.493,7.55,7.55,0,0,1-2.288,3.922,16.287,16.287,0,0,0,2.774-1.6,21.623,21.623,0,0,0,5.045-5.019c2.068,4.193,5.415,10.053,8.011,10.131,3.549-7.147,3.906-22.741-13.04-22.741s-14.4,17.712-13.071,22.741A31.226,31.226,0,0,0,1448.185,984.659Z" transform="translate(-1440.507 -967.819)" fill="#3c2417"/>
          </g>
        </g>
      </g>
    </g>
  </g>
</svg>
