<svg xmlns="http://www.w3.org/2000/svg" width="12.122" height="12.122" viewBox="0 0 12.122 12.122">
  <path id="Applicants" d="M.291,3.5,5.806,6a.606.606,0,0,0,.5,0l5.515-2.5a.529.529,0,0,0,0-.948L6.311.047a.606.606,0,0,0-.5,0L.291,2.549A.529.529,0,0,0,.291,3.5Zm11.534,2.09L10.45,4.964,6.623,6.7a1.365,1.365,0,0,1-1.13,0L1.667,4.964.291,5.587a.528.528,0,0,0,0,.947l5.515,2.5a.608.608,0,0,0,.5,0l5.515-2.5a.528.528,0,0,0,0-.947Zm0,3.026-1.37-.621L6.623,9.729a1.365,1.365,0,0,1-1.13,0L1.662,7.992l-1.37.621a.528.528,0,0,0,0,.947l5.515,2.5a.608.608,0,0,0,.5,0l5.515-2.5A.528.528,0,0,0,11.825,8.613Z" transform="translate(0.003 0.007)" fill="#8993a4"/>
</svg>
