<svg xmlns="http://www.w3.org/2000/svg" width="12.514" height="11.404" viewBox="0 0 12.514 11.404">
  <g id="briefcase-svgrepo-com" opacity="0.7">
    <path id="Path_58385" data-name="Path 58385" d="M.515,8.96v.006H2.6a1.01,1.01,0,0,1,2.011,0H7.725a1.01,1.01,0,0,1,2.011,0H12V8.96a1.536,1.536,0,0,0,.515-1.148v-2.2a1.54,1.54,0,0,0-1.54-1.54H9.244A2.893,2.893,0,0,0,6.257,1.98,2.892,2.892,0,0,0,3.27,4.068H1.54A1.54,1.54,0,0,0,0,5.608v2.2A1.534,1.534,0,0,0,.515,8.96ZM6.257,3.381a1.8,1.8,0,0,1,1.516.688H4.741A1.8,1.8,0,0,1,6.257,3.381ZM12,9.526v2.318a1.54,1.54,0,0,1-1.54,1.54h-8.4a1.54,1.54,0,0,1-1.54-1.54V9.526H2.6a1.01,1.01,0,0,0,2.011,0H7.725a1.01,1.01,0,0,0,2.011,0H12Z" transform="translate(0 -1.98)"/>
  </g>
</svg>
