<svg xmlns="http://www.w3.org/2000/svg" width="12.099" height="12.1" viewBox="0 0 12.099 12.1">
  <path id="calender" d="M12.284,3.21h-1.21V2.6a.6.6,0,0,0-1.21,0v.6H6.235V2.6a.6.6,0,1,0-1.21,0v.6H3.815A1.815,1.815,0,0,0,2,5.025v7.26A1.815,1.815,0,0,0,3.815,14.1h8.47A1.815,1.815,0,0,0,14.1,12.284V5.025A1.815,1.815,0,0,0,12.284,3.21Zm.6,9.074a.6.6,0,0,1-.6.6H3.815a.6.6,0,0,1-.6-.6V8.05h9.679Zm0-5.445H3.21V5.025a.6.6,0,0,1,.6-.6h1.21v.6a.6.6,0,0,0,1.21,0v-.6h3.63v.6a.6.6,0,0,0,1.21,0v-.6h1.21a.6.6,0,0,1,.6.6Z" transform="translate(-2 -2)" fill="#42526e"/>
</svg>
