<svg xmlns="http://www.w3.org/2000/svg" width="11.189" height="11.191" viewBox="0 0 11.189 11.191">
  <path id="call" d="M41.064,43.2a4.707,4.707,0,0,1-2.2-.749,14.293,14.293,0,0,1-3.453-2.583,13.1,13.1,0,0,1-2.593-3.452c-.92-1.674-.763-2.551-.588-2.926a2.336,2.336,0,0,1,.916-.982,4.4,4.4,0,0,1,.715-.38l.069-.03a.669.669,0,0,1,.548-.05,1.606,1.606,0,0,1,.521.4,8.661,8.661,0,0,1,1.3,1.934,1.927,1.927,0,0,1,.256.792,1.252,1.252,0,0,1-.319.745c-.033.045-.065.087-.1.129-.19.25-.232.322-.2.451a4.739,4.739,0,0,0,1.154,1.711,4.543,4.543,0,0,0,1.692,1.126c.134.029.208-.015.466-.212l.115-.087a1.259,1.259,0,0,1,.756-.338h0a1.81,1.81,0,0,1,.8.279,9.543,9.543,0,0,1,1.927,1.294,1.606,1.606,0,0,1,.4.52.674.674,0,0,1-.05.55l-.03.069a4.409,4.409,0,0,1-.382.714,2.336,2.336,0,0,1-.984.914A1.684,1.684,0,0,1,41.064,43.2Z" transform="translate(-32.099 -32.01)" fill="#42526e" opacity="0.455"/>
</svg>
