<svg xmlns="http://www.w3.org/2000/svg" width="14" height="14.002" viewBox="0 0 14 14.002">
  <path id="call-svgrepo-com_1_" data-name="call-svgrepo-com (1)" d="M43.316,46.012a5.89,5.89,0,0,1-2.751-.938,17.883,17.883,0,0,1-4.32-3.231A16.393,16.393,0,0,1,33,37.524c-1.151-2.094-.955-3.192-.736-3.661a2.923,2.923,0,0,1,1.146-1.229,5.511,5.511,0,0,1,.9-.475l.086-.038a.837.837,0,0,1,.686-.063,2.01,2.01,0,0,1,.652.5,10.836,10.836,0,0,1,1.63,2.42,2.411,2.411,0,0,1,.32.991,1.566,1.566,0,0,1-.4.932c-.041.056-.082.109-.121.161-.238.313-.29.4-.256.564a5.929,5.929,0,0,0,1.444,2.141,5.683,5.683,0,0,0,2.117,1.409c.168.036.26-.018.583-.265l.143-.108a1.575,1.575,0,0,1,.946-.423h0a2.265,2.265,0,0,1,1,.349,11.94,11.94,0,0,1,2.411,1.618,2.009,2.009,0,0,1,.5.65.843.843,0,0,1-.063.688c-.012.026-.024.054-.038.086a5.517,5.517,0,0,1-.478.893A2.923,2.923,0,0,1,44.24,45.81,2.107,2.107,0,0,1,43.316,46.012Z" transform="translate(-32.099 -32.01)" opacity="0.7"/>
</svg>
