<svg xmlns="http://www.w3.org/2000/svg" width="34.045" height="34.045" viewBox="0 0 34.045 34.045">
  <g id="change_photo" data-name="change photo" transform="translate(-382.262 -3206.723)">
    <circle id="Ellipse_2229" data-name="Ellipse 2229" cx="17.022" cy="17.022" r="17.022" transform="translate(382.262 3206.723)" fill="#d5e3fa"/>
    <g id="camera-svgrepo-com" transform="translate(392.795 3218.647)">
      <circle id="Ellipse_2178" data-name="Ellipse 2178" cx="1.894" cy="1.894" r="1.894" transform="translate(4.595 3.678)" fill="#a2b7d9"/>
      <path id="Path_59317" data-name="Path 59317" d="M43.588,81.854H41.878a.423.423,0,0,1-.279-.145l-.751-1.186a.448.448,0,0,0-.04-.054,1.291,1.291,0,0,0-.987-.47H37.156a1.291,1.291,0,0,0-.987.47.449.449,0,0,0-.04.054l-.751,1.188a.379.379,0,0,1-.25.145v-.232a.464.464,0,0,0-.464-.464h-.7a.463.463,0,0,0-.464.464v.232h-.116A1.392,1.392,0,0,0,32,83.246v5.56A1.392,1.392,0,0,0,33.391,90.2h10.2a1.392,1.392,0,0,0,1.391-1.391V83.245A1.392,1.392,0,0,0,43.588,81.854Zm-5.1,6.489a2.781,2.781,0,1,1,2.781-2.781A2.781,2.781,0,0,1,38.489,88.343Z" transform="translate(-32 -80.001)" fill="#a2b7d9"/>
    </g>
  </g>
</svg>
