<svg xmlns="http://www.w3.org/2000/svg" width="18" height="17.999" viewBox="0 0 18 17.999">
  <g id="checklist" transform="translate(-3350 21782)">
    <g id="Group_24858" data-name="Group 24858" transform="translate(3350 -21782)">
      <path id="Ellipse_2416" data-name="Ellipse 2416" d="M9,1.5A7.5,7.5,0,1,0,16.5,9,7.508,7.508,0,0,0,9,1.5M9,0A9,9,0,1,1,0,9,9,9,0,0,1,9,0Z" transform="translate(0)" fill="#42526e"/>
    </g>
    <path id="Path_67073" data-name="Path 67073" d="M3357.8-21769.846l-.576-.488-2.3-1.945a.75.75,0,0,1-.088-1.057.75.75,0,0,1,1.057-.088l1.722,1.457,3.873-4.625a.749.749,0,0,1,1.056-.092.75.75,0,0,1,.094,1.057Z" transform="translate(0.267 0.508)" fill="#42526e"/>
  </g>
</svg>
