<svg id="clarification" xmlns="http://www.w3.org/2000/svg" width="20" height="20" viewBox="0 0 20 20">
  <circle id="Ellipse_2383" data-name="Ellipse 2383" cx="10" cy="10" r="10" fill="#e2e9f4"/>
  <g id="confused-svgrepo-com" transform="translate(5.211 5.211)">
    <g id="Group_24833" data-name="Group 24833">
      <g id="Group_24832" data-name="Group 24832">
        <g id="Path_67065" data-name="Path 67065" fill="#091e42">
          <path d="M 4.789212226867676 9.67844295501709 C 2.093292236328125 9.67844295501709 -0.09999774396419525 7.48516321182251 -0.09999774396419525 4.789253234863281 C -0.09999774396419525 2.093313217163086 2.093292236328125 -0.09999680519104004 4.789212226867676 -0.09999680519104004 C 4.865942478179932 -0.09999680519104004 4.938072204589844 -0.07012680917978287 4.992322444915771 -0.01588680595159531 C 5.046572208404541 0.03836319595575333 5.076432228088379 0.1105131953954697 5.076422214508057 0.1872531920671463 C 5.076422214508057 0.3456031978130341 4.947582244873047 0.4744431972503662 4.789212226867676 0.4744431972503662 C 2.410042285919189 0.4744431972503662 0.4744422435760498 2.41006326675415 0.4744422435760498 4.789253234863281 C 0.4744422435760498 7.168413162231445 2.410062313079834 9.104002952575684 4.789252281188965 9.104002952575684 C 7.168432235717773 9.104002952575684 9.104042053222656 7.168413162231445 9.104042053222656 4.789253234863281 C 9.104042053222656 3.948483228683472 8.862192153930664 3.1337730884552 8.404632568359375 2.433193206787109 C 7.958482265472412 1.750093221664429 7.332102298736572 1.209013223648071 6.593192100524902 0.8684532046318054 C 6.449402332305908 0.8021631836891174 6.386312484741211 0.6312332153320312 6.452552318572998 0.4874031841754913 C 6.499342441558838 0.3858931958675385 6.601762294769287 0.3203231990337372 6.71348237991333 0.3203231990337372 C 6.755142211914062 0.3203231990337372 6.795562267303467 0.329203188419342 6.833612442016602 0.3467331826686859 C 7.670782089233398 0.732613205909729 8.380322456359863 1.345473170280457 8.885552406311035 2.119073152542114 C 9.404292106628418 2.913363218307495 9.678462028503418 3.836693286895752 9.678432464599609 4.789253234863281 C 9.678432464599609 7.48516321182251 7.485142230987549 9.67844295501709 4.789212226867676 9.67844295501709 Z" stroke="none"/>
          <path d="M 4.789212226867676 2.86102294921875e-06 C 2.148422241210938 2.86102294921875e-06 1.9073486328125e-06 2.148443222045898 1.9073486328125e-06 4.789253234863281 C 1.9073486328125e-06 7.430023193359375 2.148422241210938 9.57844352722168 4.789212226867676 9.57844352722168 C 7.430002212524414 9.57844352722168 9.578422546386719 7.430023193359375 9.578422546386719 4.789253234863281 C 9.578462600708008 3.856112957000732 9.309892654418945 2.951703071594238 8.801822662353516 2.173753261566162 C 8.306872367858887 1.4158935546875 7.611792087554932 0.8155336380004883 6.791782379150391 0.4375629425048828 C 6.697782516479492 0.3942728042602539 6.586672306060791 0.4353122711181641 6.543382167816162 0.5292329788208008 C 6.50013256072998 0.623143196105957 6.541142463684082 0.7343435287475586 6.63505220413208 0.7776336669921875 C 7.391072273254395 1.126083374023438 8.03193187713623 1.679673194885254 8.488351821899414 2.378513336181641 C 8.956572532653809 3.095413208007812 9.204042434692383 3.929043292999268 9.204042434692383 4.789253234863281 C 9.204042434692383 7.223583221435547 7.223562240600586 9.20400333404541 4.789252281188965 9.20400333404541 C 2.354942321777344 9.20400333404541 0.3744421005249023 7.223563194274902 0.3744421005249023 4.789253234863281 C 0.3744421005249023 2.354933261871338 2.354902267456055 0.3744430541992188 4.789212226867676 0.3744430541992188 C 4.892632484436035 0.3744430541992188 4.976422309875488 0.2906427383422852 4.976422309875488 0.1872329711914062 C 4.976442337036133 0.08379364013671875 4.892632484436035 2.86102294921875e-06 4.789212226867676 2.86102294921875e-06 M 4.789212226867676 -0.1999969482421875 C 4.892652034759521 -0.1999969482421875 4.989902019500732 -0.1597270965576172 5.063032150268555 -0.08659648895263672 C 5.136172294616699 -0.01344680786132812 5.17644214630127 0.08381366729736328 5.176422119140625 0.1872730255126953 C 5.176422119140625 0.4007434844970703 5.002722263336182 0.5744428634643555 4.789212226867676 0.5744428634643555 C 2.465182304382324 0.5744428634643555 0.5744419097900391 2.465203285217285 0.5744419097900391 4.789253234863281 C 0.5744419097900391 7.113273143768311 2.465202331542969 9.004003524780273 4.789252281188965 9.004003524780273 C 7.113292217254639 9.004003524780273 9.004042625427246 7.113273143768311 9.004042625427246 4.789253234863281 C 9.004042625427246 3.967953205108643 8.767812728881836 3.172152996063232 8.320901870727539 2.487873077392578 C 7.88505220413208 1.820533275604248 7.273152351379395 1.291953086853027 6.551332473754883 0.9592733383178711 C 6.357481956481934 0.869903564453125 6.272422313690186 0.6394634246826172 6.361721992492676 0.4455728530883789 C 6.424792289733887 0.3087129592895508 6.562862396240234 0.2203235626220703 6.713481903076172 0.2203235626220703 C 6.769701957702637 0.2203235626220703 6.824192047119141 0.2322931289672852 6.875462532043457 0.2559127807617188 C 7.729732513427734 0.6496734619140625 8.453752517700195 1.275032997131348 8.969272613525391 2.064393043518066 C 9.498661994934082 2.874993324279785 9.778462409973145 3.817233085632324 9.778422355651855 4.789263248443604 C 9.778422355651855 7.540303230285645 7.540272235870361 9.778443336486816 4.789212226867676 9.778443336486816 C 2.03815221786499 9.778443336486816 -0.1999979019165039 7.540303230285645 -0.1999979019165039 4.789253234863281 C -0.1999979019165039 2.038173198699951 2.03815221786499 -0.1999969482421875 4.789212226867676 -0.1999969482421875 Z" stroke="none" fill="#091e42"/>
        </g>
      </g>
    </g>
    <g id="Group_24835" data-name="Group 24835" transform="translate(3.767 5.784)">
      <g id="Group_24834" data-name="Group 24834">
        <path id="Path_67066" data-name="Path 67066" d="M238.393,355.523l-.313-.313a.187.187,0,0,0-.265,0l-.177.177-.219-.219a.187.187,0,0,0-.265,0l-.265.265-.239-.239a.187.187,0,0,0-.265,0l-.232.233-.161-.161a.187.187,0,0,0-.265,0l-.3.3a.187.187,0,0,0,.265.265l.171-.171.161.161a.187.187,0,0,0,.265,0l.232-.232.239.239a.187.187,0,0,0,.265,0l.265-.265.219.22a.187.187,0,0,0,.265,0l.177-.177.18.18a.187.187,0,1,0,.265-.265Z" transform="translate(-235.369 -355.113)" fill="#091e42"/>
      </g>
    </g>
    <g id="Group_24837" data-name="Group 24837" transform="translate(5.755 0.187)">
      <g id="Group_24836" data-name="Group 24836">
        <g id="Ellipse_2382" data-name="Ellipse 2382" fill="#091e42" stroke="#091e42" stroke-width="0.2">
          <circle cx="0.187" cy="0.187" r="0.187" stroke="none"/>
          <circle cx="0.187" cy="0.187" r="0.287" fill="none"/>
        </g>
      </g>
    </g>
    <g id="Group_24839" data-name="Group 24839" transform="translate(2.757 2.998)">
      <g id="Group_24838" data-name="Group 24838">
        <path id="Path_67067" data-name="Path 67067" d="M182.8,206.687l-1.159-.512a.187.187,0,0,0-.151.343l.769.339-.768.335a.187.187,0,1,0,.15.343l1.159-.505a.187.187,0,0,0,0-.343Z" transform="translate(-181.377 -206.159)" fill="#091e42"/>
      </g>
    </g>
    <g id="Group_24841" data-name="Group 24841" transform="translate(6.187 2.998)">
      <g id="Group_24840" data-name="Group 24840">
        <path id="Path_67068" data-name="Path 67068" d="M366.168,207.195l-.768-.335.769-.339a.187.187,0,1,0-.151-.343l-1.159.512a.187.187,0,0,0,0,.343l1.159.506a.187.187,0,0,0,.15-.343Z" transform="translate(-364.747 -206.162)" fill="#091e42"/>
      </g>
    </g>
  </g>
</svg>
