<svg xmlns="http://www.w3.org/2000/svg" width="15.615" height="14.037" viewBox="0 0 15.615 14.037">
  <g id="company_type" data-name="company type" transform="translate(-2.25 -3.25)">
    <path id="users-Regular" d="M13.861,14.772v.406a2.807,2.807,0,0,1-.728,1.888.6.6,0,1,1-.89-.8,1.6,1.6,0,0,0,.417-1.081v-.406a2.351,2.351,0,0,0-1.783-2.291.721.721,0,0,0-.526.066,4.785,4.785,0,0,1-4.585,0,.728.728,0,0,0-.532-.07,2.353,2.353,0,0,0-1.783,2.292v.406a1.609,1.609,0,0,0,.417,1.084.6.6,0,0,1-.89.8,2.8,2.8,0,0,1-.728-1.887V14.77a3.551,3.551,0,0,1,2.694-3.457,1.942,1.942,0,0,1,1.407.186,3.572,3.572,0,0,0,3.416,0,1.939,1.939,0,0,1,1.4-.183,3.551,3.551,0,0,1,2.693,3.456Zm1.31-3.457a.6.6,0,1,0-.29,1.166,2.351,2.351,0,0,1,1.783,2.291v.406a1.6,1.6,0,0,1-.417,1.081.6.6,0,0,0,.89.8,2.807,2.807,0,0,0,.728-1.888v-.406A3.551,3.551,0,0,0,15.171,11.315ZM4.252,7.054a3.8,3.8,0,1,1,3.8,3.8,3.8,3.8,0,0,1-3.8-3.8Zm1.2,0a2.6,2.6,0,1,0,2.6-2.6,2.6,2.6,0,0,0-2.6,2.6Zm10.41,0A3.806,3.806,0,0,0,12.534,3.28a.6.6,0,0,0-.149,1.192,2.6,2.6,0,0,1,1.3,4.615.6.6,0,1,0,.752.937A3.792,3.792,0,0,0,15.863,7.054Z" transform="translate(0)" fill="#d2d6dc"/>
  </g>
</svg>
