<svg id="currency" xmlns="http://www.w3.org/2000/svg" width="8.405" height="15.711" viewBox="0 0 8.405 15.711">
  <g id="Group_16782" data-name="Group 16782" transform="translate(0 0)">
    <g id="Group_16781" data-name="Group 16781" transform="translate(0 0)">
      <path id="Path_53519" data-name="Path 53519" d="M164.628,82.21a7.618,7.618,0,0,0-2.767-1.22V76.142a2.727,2.727,0,0,1,1.478.464,2.037,2.037,0,0,1,.791,1.633.624.624,0,0,0,.172.464.5.5,0,0,0,.361.155.46.46,0,0,0,.361-.155.626.626,0,0,0,.172-.464,2.784,2.784,0,0,0-.911-2.166,3.8,3.8,0,0,0-2.424-.877v-.928c0-.286-.149-.43-.447-.43a.38.38,0,0,0-.43.43V75.2a3.882,3.882,0,0,0-2.475.877,3.052,3.052,0,0,0-1.048,2.424,2.6,2.6,0,0,0,.928,2.08,6.172,6.172,0,0,0,2.6,1.135V86.9a3.494,3.494,0,0,1-1.925-.688,2.715,2.715,0,0,1-.877-2.235.606.606,0,0,0-.155-.447.46.46,0,0,0-.688,0,.606.606,0,0,0-.155.447,3.638,3.638,0,0,0,1.22,3.042,5.035,5.035,0,0,0,2.578.825V89.1q0,.447.43.447a.4.4,0,0,0,.447-.447V87.865a4.43,4.43,0,0,0,2.613-1.014,3.1,3.1,0,0,0,1.117-2.458A2.673,2.673,0,0,0,164.628,82.21Zm-3.643-1.461a4.028,4.028,0,0,1-1.891-.928,2.149,2.149,0,0,1,.275-3.129,3.018,3.018,0,0,1,1.616-.567Zm2.6,5.517a3.424,3.424,0,0,1-1.719.636V81.987a5.042,5.042,0,0,1,2.028.86,2.1,2.1,0,0,1,.6,1.65A2.064,2.064,0,0,1,163.58,86.266Z" transform="translate(-157.185 -73.839)" fill="#091e42"/>
    </g>
  </g>
</svg>
