<svg xmlns="http://www.w3.org/2000/svg" width="12.113" height="15.145" viewBox="0 0 12.113 15.145">
  <path id="delete" d="M24757.328,22044.143h-4.543a2.276,2.276,0,0,1-2.273-2.273v-7.57a.759.759,0,0,1,.758-.758h7.568a.759.759,0,0,1,.758.758v7.57A2.273,2.273,0,0,1,24757.328,22044.143Zm-.33-9.006v7.006h1v-7h-1Zm-2.5,0v7.006h1v-7h-1Zm-2.5,0v7.006h1v-7h-1Zm8.352-3.111h-10.594a.755.755,0,1,1,0-1.51h3.025v-.758a.76.76,0,0,1,.758-.76h3.027a.76.76,0,0,1,.758.76v.758h3.025a.755.755,0,1,1,0,1.51Z" transform="translate(-24749 -22028.998)" fill="#828282"/>
</svg>
