<svg id="dislike" xmlns="http://www.w3.org/2000/svg" width="21.247" height="18.307" viewBox="0 0 21.247 18.307">
  <path id="Path_67038" data-name="Path 67038" d="M0,0H4.813V12.166H0Z" transform="translate(15.783)" fill="#c72525"/>
  <path id="Path_67039" data-name="Path 67039" d="M137.063,53.221h.283a1.392,1.392,0,0,0-1.414,1.369h0a1.392,1.392,0,0,0,1.414,1.369h6.23l-1.752,3.793a2.072,2.072,0,0,0,1.517,2.53v0a.988.988,0,0,0,1.192-.684l.865-1.814c.338-.709.671-1.421.966-2.148a4,4,0,0,1,2.589-2.314h0a7.3,7.3,0,0,1,2.061-.3h.569V45.94h-.69a5.922,5.922,0,0,1-1.818-.285l-1.116-.36a5.922,5.922,0,0,0-1.818-.285h-7.664a1.392,1.392,0,0,0-1.414,1.369h0a1.392,1.392,0,0,0,1.414,1.369h-.566a1.392,1.392,0,0,0-1.414,1.369h0a1.392,1.392,0,0,0,1.414,1.369h-.849a1.392,1.392,0,0,0-1.414,1.369h0A1.392,1.392,0,0,0,137.063,53.221Z" transform="translate(-135.649 -44.009)" fill="#fff"/>
  <ellipse id="Ellipse_2369" data-name="Ellipse 2369" cx="1" cy="1" rx="1" ry="1" transform="translate(17.19 2)" fill="#ecf0f1"/>
  <path id="Path_67028" data-name="Path 67028" d="M0,42.172a1.77,1.77,0,0,0,.761,1.454,1.743,1.743,0,0,0-.494,1.216A1.765,1.765,0,0,0,2.039,46.6H7.275L5.887,49.719a.478.478,0,0,0-.023.069A2.463,2.463,0,0,0,7.55,52.78.441.441,0,0,0,7.6,52.8a1.317,1.317,0,0,0,1.011-.132,1.391,1.391,0,0,0,.638-.8l.806-1.745c.292-.632.628-1.37.925-2.126a3.391,3.391,0,0,1,2.176-2.017,6.28,6.28,0,0,1,1.827-.278h.1v1.108a.448.448,0,0,0,.439.443h5.165a.442.442,0,0,0,.431-.443V35.017a.437.437,0,0,0-.431-.438H15.524a.444.444,0,0,0-.439.438v.941h-.214a5.01,5.01,0,0,1-1.586-.26l-1.057-.348a5.862,5.862,0,0,0-1.858-.3H3.111A1.763,1.763,0,0,0,1.689,37.87a.425.425,0,0,0-.106.158,1.766,1.766,0,0,0-.45,2.492A1.774,1.774,0,0,0,0,42.172Zm15.948-6.731h4.31V46.389h-4.31Zm-14.3,5.841c.039.011,1.971.028,1.971.028a.431.431,0,1,0,0-.862s-.993-.037-1.045-.037a.924.924,0,0,1-.909-.925.958.958,0,0,1,.694-.9H4.424a.428.428,0,1,0,0-.856l-1.313-.018a.9.9,0,1,1,0-1.8h7.26a5,5,0,0,1,1.586.252l1.057.352a5.866,5.866,0,0,0,1.858.3h.214v8.017h-.1a7.145,7.145,0,0,0-2.078.315,4.244,4.244,0,0,0-2.728,2.524c-.288.735-1.743,3.9-1.75,3.927a.525.525,0,0,1-.244.317.466.466,0,0,1-.317.058l-.039-.012a1.6,1.6,0,0,1-1.141-1.918l1.645-3.68a.449.449,0,0,0-.032-.419.44.44,0,0,0-.362-.206h-5.9a.9.9,0,0,1-.909-.9.887.887,0,0,1,.694-.87H2.977a.428.428,0,1,0,0-.856l-1.206-.042a.9.9,0,0,1-.122-1.794Z" transform="translate(0.127 -34.579)" fill="#42526e"/>
  <path id="Path_67029" data-name="Path 67029" d="M37.478,364.342a1,1,0,1,0-1-1A1,1,0,0,0,37.478,364.342Zm0-1.429a.429.429,0,1,1-.429.429A.429.429,0,0,1,37.478,362.913Z" transform="translate(-19.288 -360.342)" fill="#42526e"/>
</svg>
