<svg xmlns="http://www.w3.org/2000/svg" width="9.573" height="12.243" viewBox="0 0 9.573 12.243">
  <g id="experience" transform="translate(-141.5 -1132)">
    <path id="Subtraction_1" data-name="Subtraction 1" d="M2.818,3.7h0a.4.4,0,0,1-.343-.2l-.7-1.2H.4a.4.4,0,0,1-.344-.6L1.036,0A5.356,5.356,0,0,0,4.3,1.537L3.164,3.5a.4.4,0,0,1-.346.2Z" transform="translate(141.5 1140.546)" fill="#8993a4"/>
    <path id="Subtraction_2" data-name="Subtraction 2" d="M2.819,0h0a.4.4,0,0,0-.343.2l-.7,1.2H.4a.4.4,0,0,0-.345.6l.983,1.7A5.356,5.356,0,0,1,4.3,2.16L3.165.2A.4.4,0,0,0,2.819,0Z" transform="translate(151.073 1144.242) rotate(180)" fill="#8993a4"/>
    <path id="Exclusion_17" data-name="Exclusion 17" d="M4.758,9.517A4.758,4.758,0,1,1,9.517,4.759,4.758,4.758,0,0,1,4.758,9.517Zm0-7.025a.315.315,0,0,0-.285.179L3.953,3.723,2.8,3.891a.318.318,0,0,0-.175.543l.836.82-.2,1.156a.306.306,0,0,0,.306.372.324.324,0,0,0,.139-.032L4.754,6.2l1.029.543a.318.318,0,0,0,.459-.34l-.2-1.155.837-.82a.306.306,0,0,0-.159-.536L5.571,3.723,5.04,2.671a.32.32,0,0,0-.286-.179Z" transform="translate(141.556 1131.999)" fill="#8993a4"/>
  </g>
</svg>
