<svg xmlns="http://www.w3.org/2000/svg" width="13.787" height="8.681" viewBox="0 0 13.787 8.681">
  <path id="expiry_date" data-name="expiry date" d="M5.044,14.559a.461.461,0,0,1-.5-.344l-.678-3.245-.446.77a.525.525,0,0,1-.44.266H.511a.511.511,0,1,1,0-1.021H2.688l.971-1.64A.51.51,0,0,1,4.6,9.5l.41,1.983L5.944,6.29a.5.5,0,0,1,.5-.412h0a.5.5,0,0,1,.5.416l1,5.829.321-.814a.511.511,0,0,1,.475-.325h4.531a.511.511,0,0,1,0,1.022H9.092l-.864,2.184a.511.511,0,0,1-.978-.1L6.435,9.325,5.546,14.2a.457.457,0,0,1-.5.358Z" transform="translate(0 -5.878)" fill="#ff2d2d"/>
</svg>
