<svg xmlns="http://www.w3.org/2000/svg" width="11.779" height="11.689" viewBox="0 0 11.779 11.689">
  <g id="followers" transform="translate(0 -1.25)">
    <path id="XMLID_487_" d="M54.5,5.757A2.253,2.253,0,1,0,52.25,3.5,2.256,2.256,0,0,0,54.5,5.757Zm0-3.429A1.176,1.176,0,1,1,53.327,3.5,1.177,1.177,0,0,1,54.5,2.327Z" transform="translate(-50.374)" fill="#ffca42"/>
    <path id="XMLID_490_" d="M203.919,176.908a.539.539,0,0,0-.762.762l.7.7-.7.7a.539.539,0,0,0,.762.762L205,178.747a.539.539,0,0,0,0-.762Z" transform="translate(-195.709 -169.198)" fill="#ffca42"/>
    <path id="XMLID_491_" d="M8.008,116.75a3.767,3.767,0,0,0-3.027,1.525A4.13,4.13,0,0,0,0,122.316a.539.539,0,0,0,.539.539h4.51a3.77,3.77,0,1,0,2.959-6.1Zm-6.883,5.028a3.058,3.058,0,0,1,3-2.514,3.092,3.092,0,0,1,.317.017,3.77,3.77,0,0,0,.006,2.5Zm6.883,1.436a2.693,2.693,0,1,1,2.693-2.693A2.7,2.7,0,0,1,8.008,123.214Z" transform="translate(0 -111.352)" fill="#ffca42"/>
  </g>
</svg>
