<svg id="grid_view" data-name="grid view" xmlns="http://www.w3.org/2000/svg" width="16.195" height="16.195" viewBox="0 0 16.195 16.195">
  <path id="_-Color" data-name="🎨-Color" d="M8.705,11.834a1.656,1.656,0,0,1,1.656,1.656v4.049a1.656,1.656,0,0,1-1.656,1.656H4.656A1.656,1.656,0,0,1,3,17.539V13.49a1.656,1.656,0,0,1,1.656-1.656Zm8.834,0a1.656,1.656,0,0,1,1.656,1.656v4.049a1.656,1.656,0,0,1-1.656,1.656H13.49a1.656,1.656,0,0,1-1.656-1.656V13.49a1.656,1.656,0,0,1,1.656-1.656ZM8.705,3a1.656,1.656,0,0,1,1.656,1.656V8.705a1.656,1.656,0,0,1-1.656,1.656H4.656A1.656,1.656,0,0,1,3,8.705V4.656A1.656,1.656,0,0,1,4.656,3Zm8.834,0a1.656,1.656,0,0,1,1.656,1.656V8.705a1.656,1.656,0,0,1-1.656,1.656H13.49a1.656,1.656,0,0,1-1.656-1.656V4.656A1.656,1.656,0,0,1,13.49,3Z" transform="translate(-3 -3)" fill="#535353"/>
</svg>
