<svg xmlns="http://www.w3.org/2000/svg" width="16.346" height="16.195" viewBox="0 0 16.346 16.195">
  <g id="Grid" transform="translate(0.151)">
    <path id="Rectangle_9324_-_Outline" data-name="Rectangle 9324 - Outline" d="M2,1.15A.851.851,0,0,0,1.15,2V5.5A.851.851,0,0,0,2,6.35H5.5a.851.851,0,0,0,.85-.85V2a.851.851,0,0,0-.85-.85H2M2,0H5.5a2,2,0,0,1,2,2V5.5a2,2,0,0,1-2,2H2a2,2,0,0,1-2-2V2A2,2,0,0,1,2,0Z" transform="translate(-0.151)" fill="#b4b6be"/>
    <path id="Rectangle_9327_-_Outline" data-name="Rectangle 9327 - Outline" d="M2,1.15A.851.851,0,0,0,1.15,2V5.5A.851.851,0,0,0,2,6.35H5.5a.851.851,0,0,0,.85-.85V2a.851.851,0,0,0-.85-.85H2M2,0H5.5a2,2,0,0,1,2,2V5.5a2,2,0,0,1-2,2H2a2,2,0,0,1-2-2V2A2,2,0,0,1,2,0Z" transform="translate(-0.151 8.695)" fill="#b4b6be"/>
    <path id="Rectangle_9325_-_Outline" data-name="Rectangle 9325 - Outline" d="M2,1.15A.851.851,0,0,0,1.15,2V5.5A.851.851,0,0,0,2,6.35H5.5a.851.851,0,0,0,.85-.85V2a.851.851,0,0,0-.85-.85H2M2,0H5.5a2,2,0,0,1,2,2V5.5a2,2,0,0,1-2,2H2a2,2,0,0,1-2-2V2A2,2,0,0,1,2,0Z" transform="translate(8.695)" fill="#b4b6be"/>
    <path id="Rectangle_9326_-_Outline" data-name="Rectangle 9326 - Outline" d="M2,1.15A.851.851,0,0,0,1.15,2V5.5A.851.851,0,0,0,2,6.35H5.5a.851.851,0,0,0,.85-.85V2a.851.851,0,0,0-.85-.85H2M2,0H5.5a2,2,0,0,1,2,2V5.5a2,2,0,0,1-2,2H2a2,2,0,0,1-2-2V2A2,2,0,0,1,2,0Z" transform="translate(8.695 8.695)" fill="#b4b6be"/>
  </g>
</svg>
