<svg id="Component_200_5" data-name="Component 200 – 5" xmlns="http://www.w3.org/2000/svg" width="21.118" height="18.266" viewBox="0 0 21.118 18.266">
  <path id="Path_67028" data-name="Path 67028" d="M21.118,45.252a1.77,1.77,0,0,0-.761-1.454,1.743,1.743,0,0,0,.493-1.216A1.765,1.765,0,0,0,19.08,40.82H13.843l1.388-3.115a.478.478,0,0,0,.023-.069,2.462,2.462,0,0,0-1.686-2.991.441.441,0,0,0-.052-.019,1.317,1.317,0,0,0-1.011.132,1.391,1.391,0,0,0-.638.8l-.806,1.745c-.292.632-.628,1.37-.925,2.126a3.391,3.391,0,0,1-2.176,2.017,6.28,6.28,0,0,1-1.827.278h-.1V40.617a.448.448,0,0,0-.439-.443H.431A.442.442,0,0,0,0,40.617V52.406a.437.437,0,0,0,.431.438H5.6a.444.444,0,0,0,.439-.438v-.941h.214a5.009,5.009,0,0,1,1.585.26l1.057.348a5.862,5.862,0,0,0,1.858.3h7.26a1.763,1.763,0,0,0,1.421-2.817.425.425,0,0,0,.106-.158,1.766,1.766,0,0,0,.45-2.492A1.773,1.773,0,0,0,21.118,45.252ZM5.172,51.983H.862V41.036h4.31Zm14.3-5.841c-.039-.011-1.97-.028-1.97-.028a.431.431,0,0,0,0,.862s.993.037,1.045.037a.924.924,0,0,1,.909.925.958.958,0,0,1-.694.9H16.695a.428.428,0,1,0,0,.856l1.313.018a.9.9,0,1,1,0,1.8h-7.26a5,5,0,0,1-1.585-.252L8.106,50.9a5.866,5.866,0,0,0-1.858-.3H6.034V42.587h.1a7.144,7.144,0,0,0,2.078-.315,4.244,4.244,0,0,0,2.728-2.523c.288-.735,1.743-3.9,1.75-3.926a.525.525,0,0,1,.244-.317.466.466,0,0,1,.317-.058l.039.012a1.6,1.6,0,0,1,1.141,1.918l-1.645,3.679a.449.449,0,0,0,.032.419.44.44,0,0,0,.362.205h5.9a.9.9,0,0,1,.909.9.887.887,0,0,1-.694.87H18.142a.428.428,0,1,0,0,.856l1.206.042a.9.9,0,0,1,.122,1.794Z" transform="translate(0 -34.579)" fill="#42526e"/>
  <path id="Path_67029" data-name="Path 67029" d="M37.478,362.342a1,1,0,1,0,1,1A1,1,0,0,0,37.478,362.342Zm0,1.429a.429.429,0,1,1,.429-.429A.429.429,0,0,1,37.478,363.771Z" transform="translate(-34.493 -348.339)" fill="#42526e"/>
</svg>
