<svg xmlns="http://www.w3.org/2000/svg" width="16.321" height="16.195" viewBox="0 0 16.321 16.195">
  <g id="list" transform="translate(0 -0.25)">
    <g id="Group_18233" data-name="Group 18233" transform="translate(0 0.25)">
      <path id="Path_60092" data-name="Path 60092" d="M1.062,4.911H3.6A1.063,1.063,0,0,0,4.661,3.849V1.312A1.063,1.063,0,0,0,3.6.25H1.062A1.063,1.063,0,0,0,0,1.312V3.849A1.063,1.063,0,0,0,1.062,4.911ZM.81,1.312a.251.251,0,0,1,.251-.251H3.6a.251.251,0,0,1,.251.251V3.849A.251.251,0,0,1,3.6,4.1H1.062A.251.251,0,0,1,.81,3.849Z" transform="translate(0 -0.25)" fill="#b4b6be"/>
      <path id="Path_60093" data-name="Path 60093" d="M0,178.249a1.063,1.063,0,0,0,1.062,1.062H3.6a1.063,1.063,0,0,0,1.062-1.062v-2.537A1.063,1.063,0,0,0,3.6,174.65H1.062A1.063,1.063,0,0,0,0,175.712Zm.81-2.54a.251.251,0,0,1,.251-.251H3.6a.251.251,0,0,1,.251.251v2.537a.251.251,0,0,1-.251.251H1.062a.251.251,0,0,1-.251-.251Z" transform="translate(0 -168.881)" fill="#b4b6be"/>
      <path id="Path_60094" data-name="Path 60094" d="M0,352.549a1.063,1.063,0,0,0,1.062,1.062H3.6a1.063,1.063,0,0,0,1.062-1.062v-2.537A1.063,1.063,0,0,0,3.6,348.95H1.062A1.063,1.063,0,0,0,0,350.012Zm.81-2.537a.251.251,0,0,1,.251-.251H3.6a.251.251,0,0,1,.251.251v2.537a.251.251,0,0,1-.251.251H1.062a.251.251,0,0,1-.251-.251Z" transform="translate(0 -337.416)" fill="#b4b6be"/>
      <path id="Path_60095" data-name="Path 60095" d="M199.52,31.75h-9.113a.407.407,0,1,0,0,.814h9.113a.407.407,0,0,0,0-.814Z" transform="translate(-183.715 -30.708)" fill="#b4b6be" stroke="#b4b6be" stroke-width="0.22"/>
      <path id="Path_60096" data-name="Path 60096" d="M199.52,85.15h-9.113a.407.407,0,1,0,0,.814h9.113a.407.407,0,0,0,0-.814Z" transform="translate(-183.715 -82.342)" fill="#b4b6be" stroke="#b4b6be" stroke-width="0.22"/>
      <path id="Path_60097" data-name="Path 60097" d="M199.52,206.05h-9.113a.407.407,0,0,0,0,.814h9.113a.407.407,0,0,0,0-.814Z" transform="translate(-183.715 -199.243)" fill="#b4b6be" stroke="#b4b6be" stroke-width="0.22"/>
      <path id="Path_60098" data-name="Path 60098" d="M199.52,259.55h-9.113a.407.407,0,0,0,0,.814h9.113a.407.407,0,0,0,0-.814Z" transform="translate(-183.715 -250.973)" fill="#b4b6be" stroke="#b4b6be" stroke-width="0.22"/>
      <path id="Path_60099" data-name="Path 60099" d="M199.52,380.45h-9.113a.407.407,0,0,0,0,.814h9.113a.407.407,0,0,0,0-.814Z" transform="translate(-183.715 -367.874)" fill="#b4b6be" stroke="#b4b6be" stroke-width="0.22"/>
      <path id="Path_60100" data-name="Path 60100" d="M199.923,434.257a.407.407,0,0,0-.407-.407h-9.11a.407.407,0,0,0,0,.814h9.113A.408.408,0,0,0,199.923,434.257Z" transform="translate(-183.715 -419.507)" fill="#b4b6be" stroke="#b4b6be" stroke-width="0.22"/>
    </g>
  </g>
</svg>
