<svg xmlns="http://www.w3.org/2000/svg" width="16.31" height="16.194" viewBox="0 0 16.31 16.194">
  <g id="list_view" data-name="list view" transform="translate(-1233.691 -8260.672)">
    <path id="Path_60092" data-name="Path 60092" d="M1.062,4.911H3.6A1.063,1.063,0,0,0,4.661,3.849V1.312A1.063,1.063,0,0,0,3.6.25H1.062A1.063,1.063,0,0,0,0,1.312V3.849A1.063,1.063,0,0,0,1.062,4.911Z" transform="translate(1233.691 8260.422)" fill="#535353"/>
    <path id="Path_60093" data-name="Path 60093" d="M0,178.249a1.063,1.063,0,0,0,1.062,1.062H3.6a1.063,1.063,0,0,0,1.062-1.062v-2.537A1.063,1.063,0,0,0,3.6,174.65H1.062A1.063,1.063,0,0,0,0,175.712Z" transform="translate(1233.691 8091.791)" fill="#535353"/>
    <path id="Path_60094" data-name="Path 60094" d="M0,352.549a1.063,1.063,0,0,0,1.062,1.062H3.6a1.063,1.063,0,0,0,1.062-1.062v-2.537A1.063,1.063,0,0,0,3.6,348.95H1.062A1.063,1.063,0,0,0,0,350.012Z" transform="translate(1233.691 7923.256)" fill="#535353"/>
    <path id="Path_60095" data-name="Path 60095" d="M199.52,31.75h-9.113a.407.407,0,0,0,0,.814h9.113a.407.407,0,1,0,0-.814Z" transform="translate(1049.975 8229.964)" fill="#535353" stroke="#535353" stroke-width="0.2"/>
    <path id="Path_60096" data-name="Path 60096" d="M199.52,85.15h-9.113a.407.407,0,0,0,0,.814h9.113a.407.407,0,1,0,0-.814Z" transform="translate(1049.975 8178.33)" fill="#535353" stroke="#535353" stroke-width="0.2"/>
    <path id="Path_60097" data-name="Path 60097" d="M199.52,206.05h-9.113a.407.407,0,0,0,0,.814h9.113a.407.407,0,1,0,0-.814Z" transform="translate(1049.975 8061.43)" fill="#535353" stroke="#535353" stroke-width="0.2"/>
    <path id="Path_60098" data-name="Path 60098" d="M199.52,259.55h-9.113a.407.407,0,0,0,0,.814h9.113a.407.407,0,0,0,0-.814Z" transform="translate(1049.975 8009.699)" fill="#535353" stroke="#535353" stroke-width="0.2"/>
    <path id="Path_60099" data-name="Path 60099" d="M199.52,380.45h-9.113a.407.407,0,0,0,0,.814h9.113a.407.407,0,0,0,0-.814Z" transform="translate(1049.975 7892.798)" fill="#535353" stroke="#535353" stroke-width="0.2"/>
    <path id="Path_60100" data-name="Path 60100" d="M199.923,434.257a.407.407,0,0,0-.407-.407h-9.11a.407.407,0,0,0,0,.814h9.113A.408.408,0,0,0,199.923,434.257Z" transform="translate(1049.975 7841.164)" fill="#535353" stroke="#535353" stroke-width="0.2"/>
  </g>
</svg>
