<svg xmlns="http://www.w3.org/2000/svg" width="10.524" height="14.188" viewBox="0 0 10.524 14.188">
  <g id="location" transform="translate(-41.028 0.075)">
    <g id="Group_17495" data-name="Group 17495" transform="translate(41.103)">
      <g id="Group_17494" data-name="Group 17494" transform="translate(0)">
        <path id="Path_59318" data-name="Path 59318" d="M46.29,0A5.193,5.193,0,0,0,41.1,5.187c0,2.769,4.729,8.488,4.93,8.73a.334.334,0,0,0,.514,0c.2-.242,4.93-5.961,4.93-8.73A5.193,5.193,0,0,0,46.29,0Zm0,13.173c-.419-.524-1.29-1.639-2.152-2.914-1.548-2.29-2.366-4.043-2.366-5.071a4.518,4.518,0,0,1,9.037,0c0,1.028-.818,2.782-2.366,5.071C47.58,11.533,46.709,12.649,46.29,13.173Z" transform="translate(-41.103)" fill="#d2d6dc" stroke="#d2d6dc" stroke-width="0.15"/>
        <path id="Path_59319" data-name="Path 59319" d="M152.034,212.727a.334.334,0,0,0-.464.09c-.451.668-.956,1.367-1.5,2.08a.334.334,0,1,0,.531.406c.553-.723,1.067-1.433,1.525-2.112A.334.334,0,0,0,152.034,212.727Z" transform="translate(-145.147 -203.193)" fill="#d2d6dc" stroke="#d2d6dc" stroke-width="0.15"/>
        <path id="Path_59320" data-name="Path 59320" d="M98.741,57.5a2.741,2.741,0,1,0,2.741,2.741A2.744,2.744,0,0,0,98.741,57.5Zm0,4.813a2.072,2.072,0,1,1,2.072-2.072A2.075,2.075,0,0,1,98.741,62.313Z" transform="translate(-93.554 -54.938)" fill="#d2d6dc" stroke="#d2d6dc" stroke-width="0.15"/>
      </g>
    </g>
  </g>
</svg>
