<svg id="noun_Attachment_1084336" xmlns="http://www.w3.org/2000/svg" width="9.134" height="17.999" viewBox="0 0 9.134 17.999">
  <path id="Path_8" data-name="Path 8" d="M4.068,17.5h-.03A4.683,4.683,0,0,1-.5,12.709a.74.74,0,0,1,0-.087V2.717q0-.009,0-.018A3.389,3.389,0,0,1,.482.429a3.1,3.1,0,0,1,4.456.03,3.393,3.393,0,0,1,.953,2.283s0,.008,0,.012V12.812a1.844,1.844,0,0,1-1.806,1.876,1.844,1.844,0,0,1-1.806-1.876V3.7a.444.444,0,1,1,.888,0v9.109a.956.956,0,0,0,.919.988A.956.956,0,0,0,5,12.812V2.761A2.37,2.37,0,0,0,2.71.388,2.365,2.365,0,0,0,.389,2.727v9.912q0,.014,0,.028t0,.03a3.8,3.8,0,0,0,3.655,3.914,3.555,3.555,0,0,0,2.6-1.114,3.974,3.974,0,0,0,1.1-2.751V3.7a.444.444,0,1,1,.888,0V12.75a4.86,4.86,0,0,1-1.35,3.364A4.435,4.435,0,0,1,4.068,17.5Z" transform="translate(0.5 0.5)" fill="#115b8d"/>
</svg>
