<svg xmlns="http://www.w3.org/2000/svg" width="18.324" height="12.827" viewBox="0 0 18.324 12.827">
  <g id="personal" transform="translate(-102 -1642.173)">
    <path id="user-detail-svgrepo-com" d="M13.911,10.5h6.413V12.33H13.911Zm.916,3.665h5.5v1.832h-5.5Zm-1.832-7.33h7.33V8.665h-7.33Z" transform="translate(100 1637.173)" fill="#156bf5"/>
    <path id="user-detail-svgrepo-com-2" data-name="user-detail-svgrepo-com" d="M3.832,17.827h9.162v-.916A4.586,4.586,0,0,0,8.413,12.33H6.581A4.586,4.586,0,0,0,2,16.911v.916ZM7.5,11.413A3.137,3.137,0,0,0,10.7,8.207,3.137,3.137,0,0,0,7.5,5,3.137,3.137,0,0,0,4.291,8.207,3.137,3.137,0,0,0,7.5,11.413Z" transform="translate(100 1637.173)" fill="#99bcf5"/>
  </g>
</svg>
