<svg xmlns="http://www.w3.org/2000/svg" width="18" height="9.008" viewBox="0 0 18 9.008">
  <g id="reply_all" data-name="reply all" transform="translate(0 -4.492)">
    <path id="Path_66995" data-name="Path 66995" d="M5.02,4.51H4.97m.74,6.276a1,1,0,0,1,0,1.417.967.967,0,0,1-.69.28H5a1.22,1.22,0,0,1-.55-.17c-.01-.01-.14-.09-.16-.11L.4,9.287A1.017,1.017,0,0,1,0,8.5V8.492a1.04,1.04,0,0,1,.4-.8L4.29,4.78c.02-.02.15-.1.16-.11a1.1,1.1,0,0,1,.52-.17H5a1.017,1.017,0,0,1,.71.28,1,1,0,0,1,0,1.416l-.05.05L4.49,7.383a1.5,1.5,0,0,0,0,2.217l1.17,1.137Z" fill="#636363"/>
    <path id="Path_66996" data-name="Path 66996" d="M18,12.5a1,1,0,0,1-1,1,1.023,1.023,0,0,1-.79-.38l-.04-.06A6.177,6.177,0,0,0,13,10.637a3.664,3.664,0,0,0-1-.15V11.5a.974.974,0,0,1-.55.868,1,1,0,0,1-1.05-.09l-4-2.993a1,1,0,0,1,0-1.6l4-2.993A1,1,0,0,1,12,5.47V6.5C14.15,6.5,17.91,9.59,18,12.5Z" fill="#636363"/>
  </g>
</svg>
