<svg xmlns="http://www.w3.org/2000/svg" width="14.275" height="12.297" viewBox="0 0 14.275 12.297">
  <g id="Salary" transform="translate(-141.5 -1107.445)">
    <path id="XMLID_71_" d="M10.521,17.258c0-1.064-2.25-2.254-5.26-2.254S0,16.194,0,17.258s2.25,2.254,5.26,2.254S10.521,18.323,10.521,17.258Z" transform="translate(141.5 1092.441)" fill="#8993a4"/>
    <path id="XMLID_85_" d="M5.26,230.857a11.01,11.01,0,0,0,1.265-.072,6.019,6.019,0,0,1-.83-1.439c-.144,0-.289.008-.435.008a10.491,10.491,0,0,1-4.587-.96A5.953,5.953,0,0,1,0,228v.6C0,229.667,2.25,230.857,5.26,230.857Z" transform="translate(141.5 888.202)" fill="#8993a4"/>
    <path id="XMLID_86_" d="M5.259,169.363a10.492,10.492,0,0,1-4.587-.96A5.963,5.963,0,0,1,0,168.012v.6c0,1.064,2.25,2.254,5.26,2.254H5.3a6.044,6.044,0,0,1,0-1.5Z" transform="translate(141.501 945.687)" fill="#8993a4"/>
    <path id="XMLID_87_" d="M6.642,109.3a12.631,12.631,0,0,1-1.383.077,10.492,10.492,0,0,1-4.587-.96A5.963,5.963,0,0,1,0,108.022v.6c0,1.064,2.25,2.254,5.26,2.254q.224,0,.441-.008a6.022,6.022,0,0,1,.941-1.57Z" transform="translate(141.501 1003.255)" fill="#8993a4"/>
    <path id="XMLID_88_" d="M215.475,183.178a.325.325,0,0,0,.21.32v-.6a.265.265,0,0,0-.21.278Z" transform="translate(-64.005 931.779)" fill="#8993a4"/>
    <path id="XMLID_89_" d="M138.859,119.961a3.893,3.893,0,1,0,3.844,3.27,3.894,3.894,0,0,0-3.844-3.27Zm.347,5.656v.122a.277.277,0,0,1-.279.261.271.271,0,0,1-.279-.261v-.089a1.4,1.4,0,0,1-.521-.162.672.672,0,0,1-.4-.5.312.312,0,0,1,.01-.077.338.338,0,0,1,.3-.269.231.231,0,0,1,.109.028.341.341,0,0,1,.06.042.909.909,0,0,1,.069.067.664.664,0,0,0,.37.221v-1.022a1.076,1.076,0,0,1-.8-.712,1.14,1.14,0,0,1-.032-.279.884.884,0,0,1,.4-.78,1.157,1.157,0,0,1,.439-.164v-.077a.271.271,0,0,1,.279-.261.277.277,0,0,1,.279.261v.061c.314.04.7.161.7.439a.338.338,0,0,1-.307.344.411.411,0,0,1-.188-.061.964.964,0,0,0-.2-.082v.819a1.076,1.076,0,0,1,.782,1.081.985.985,0,0,1-.781,1.05Z" transform="translate(13.021 991.994)" fill="#8993a4"/>
    <path id="XMLID_92_" d="M232.684,218.508v.723a.376.376,0,0,0,.154-.348.436.436,0,0,0-.154-.375Z" transform="translate(-80.469 897.71)" fill="#8993a4"/>
  </g>
</svg>
