<svg id="save_icon" data-name="save icon" xmlns="http://www.w3.org/2000/svg" width="10.42" height="14.362" viewBox="0 0 10.42 14.362">
  <g id="save_icon-2" data-name="save icon" transform="translate(0 4)" fill="none">
    <path d="M.8-4H9.618a.8.8,0,0,1,.8.8V10.362l-5.3-3.771L0,10.362V-3.2A.8.8,0,0,1,.8-4Z" stroke="none"/>
    <path d="M 1 -3.000001907348633 L 1 8.383766174316406 L 5.110730171203613 5.356318473815918 L 9.420000076293945 8.423115730285645 L 9.420000076293945 -3.000001907348633 L 1 -3.000001907348633 M 0.8015403747558594 -4.000001907348633 L 9.618459701538086 -4.000001907348633 C 10.0611400604248 -4.000001907348633 10.42000007629395 -3.64277172088623 10.42000007629395 -3.202101707458496 L 10.42000007629395 10.36217880249023 L 5.12076997756958 6.590858459472656 L 0 10.36217880249023 L 0 -3.202101707458496 C 0 -3.64277172088623 0.3588600158691406 -4.000001907348633 0.8015403747558594 -4.000001907348633 Z" stroke="none" fill="#6a7d98"/>
  </g>
</svg>
