<svg xmlns="http://www.w3.org/2000/svg" width="20.756" height="16.658" viewBox="0 0 20.756 16.658">
  <g id="scorecard" transform="translate(0 -34.806)">
    <path id="Union_61" data-name="Union 61" d="M-7735.535-9658.077v-1.428a.746.746,0,0,1,.744-.744.744.744,0,0,1,.742.744v1.428a.743.743,0,0,1-.742.744A.744.744,0,0,1-7735.535-9658.077Zm.2,0a.544.544,0,0,0,.543.546.546.546,0,0,0,.543-.546v0a.546.546,0,0,1-.543.546A.544.544,0,0,1-7735.334-9658.077Z" transform="translate(7745.17 9695.054)" fill="#637798"/>
    <path id="Union_59" data-name="Union 59" d="M-7735.535-9658.077v-1.428a.743.743,0,0,1,.744-.744.743.743,0,0,1,.742.744v1.428a.744.744,0,0,1-.742.744A.744.744,0,0,1-7735.535-9658.077Zm.2,0a.544.544,0,0,0,.545.543.543.543,0,0,0,.543-.543v0a.543.543,0,0,1-.543.543A.544.544,0,0,1-7735.336-9658.077Z" transform="translate(7736.701 9697.899)" fill="#637798"/>
    <path id="Union_60" data-name="Union 60" d="M-7735.535-9658.077v-1.428a.744.744,0,0,1,.744-.744.743.743,0,0,1,.742.744v1.428a.744.744,0,0,1-.742.744A.746.746,0,0,1-7735.535-9658.077Zm.2,0a.542.542,0,0,0,.543.543.543.543,0,0,0,.543-.543v0a.543.543,0,0,1-.543.543A.542.542,0,0,1-7735.334-9658.077Z" transform="translate(7739.012 9697.899)" fill="#637798"/>
    <path id="Union_62" data-name="Union 62" d="M-7735.535-9658.077v-1.428a.743.743,0,0,1,.744-.744.743.743,0,0,1,.742.744v1.428a.744.744,0,0,1-.742.744A.744.744,0,0,1-7735.535-9658.077Zm.2,0a.544.544,0,0,0,.545.543.543.543,0,0,0,.543-.543v0a.543.543,0,0,1-.543.543A.544.544,0,0,1-7735.336-9658.077Z" transform="translate(7750.6 9699.563)" fill="#637798"/>
    <path id="Union_63" data-name="Union 63" d="M-7735.535-9658.077v-1.428a.744.744,0,0,1,.744-.744.743.743,0,0,1,.742.744v1.428a.744.744,0,0,1-.742.744A.746.746,0,0,1-7735.535-9658.077Zm.2,0a.542.542,0,0,0,.543.543.543.543,0,0,0,.543-.543v0a.543.543,0,0,1-.543.543A.542.542,0,0,1-7735.334-9658.077Z" transform="translate(7752.312 9699.563)" fill="#637798"/>
    <path id="Union_64" data-name="Union 64" d="M-7735.535-9658.077v-1.428a.744.744,0,0,1,.744-.744.743.743,0,0,1,.742.744v1.428a.744.744,0,0,1-.742.744A.746.746,0,0,1-7735.535-9658.077Zm.2,0a.542.542,0,0,0,.543.543.543.543,0,0,0,.543-.543v0a.543.543,0,0,1-.543.543A.542.542,0,0,1-7735.334-9658.077Z" transform="translate(7754 9699.563)" fill="#637798"/>
    <path id="podium-svgrepo-com_1_" data-name="podium-svgrepo-com (1)" d="M19.812,73.774H14.466v-2.83A.943.943,0,0,0,13.523,70H7.233a.943.943,0,0,0-.943.943v.943H.943A.943.943,0,0,0,0,72.83v8.177a.943.943,0,0,0,.943.943H19.812a.943.943,0,0,0,.943-.943v-6.29A.943.943,0,0,0,19.812,73.774Zm-17.926,0h4.4v6.29h-4.4Zm6.29-.943v-.943h4.4v8.177h-4.4Zm10.692,7.233h-4.4v-4.4h4.4Z" transform="translate(0 -30.486)" fill="#637798"/>
  </g>
</svg>
