<svg xmlns="http://www.w3.org/2000/svg" width="9.44" height="9.589" viewBox="0 0 9.44 9.589">
  <g id="search_cv" data-name="search cv" transform="translate(0.125 -0.875)">
    <path id="Path_53473" data-name="Path 53473" d="M35.245,244.423v-4.66a.26.26,0,0,0-.519,0v4.406H26.574v-.858a.26.26,0,0,0-.519,0v1.109a.256.256,0,0,0,.26.254h8.671A.256.256,0,0,0,35.245,244.423Z" transform="translate(-26.055 -234.335)" fill="#007847" stroke="#007847" stroke-width="0.25"/>
    <g id="search-svgrepo-com" transform="translate(0 0.725)">
      <g id="Group_25036" data-name="Group 25036" transform="translate(0 0.2)">
        <path id="Path_67219" data-name="Path 67219" d="M7.824,7.542l-1.873-1.9a3.293,3.293,0,0,0,.77-2.117A3.36,3.36,0,0,0,0,3.529,3.364,3.364,0,0,0,5.444,6.135l1.881,1.9a.352.352,0,1,0,.5-.5ZM.714,3.529A2.645,2.645,0,0,1,6,3.529a2.645,2.645,0,0,1-5.289,0Z" transform="translate(0 -0.2)" fill="#007847" stroke="#007847" stroke-width="0.1"/>
      </g>
    </g>
  </g>
</svg>
