<svg xmlns="http://www.w3.org/2000/svg" width="22.382" height="22.295" viewBox="0 0 22.382 22.295">
  <g id="Skills" transform="matrix(0.259, 0.966, -0.966, 0.259, 19.995, -6.419)">
    <path id="Path_58463" data-name="Path 58463" d="M281.543,279.746l-1.55-1.546-.421.345-.145,2.555-3.027.174,3.895,3.891.7-2.374,2.377-.7L281.286,280Z" transform="translate(-260.971 -264.344)" fill="#99bcf5"/>
    <circle id="Ellipse_2208" data-name="Ellipse 2208" cx="2.995" cy="2.995" r="2.995" transform="translate(10.141 8.441)" fill="#86aae6"/>
    <g id="Group_17558" data-name="Group 17558" transform="translate(5.6 3.9)">
      <path id="Path_58464" data-name="Path 58464" d="M121.948,121.6l-.664-.29a3.347,3.347,0,0,0-.225,1.938,3.312,3.312,0,0,0,.929,1.771,3.349,3.349,0,0,0,4.737-4.737,3.306,3.306,0,0,0-1.771-.926,3.35,3.35,0,0,0-1.938.225l.29.664a2.621,2.621,0,1,1-1.358,1.354Z" transform="translate(-116.815 -115.115)" fill="#156bf5"/>
      <path id="Path_58465" data-name="Path 58465" d="M141.62,139.47l-.446-.57a3.3,3.3,0,0,0-.574.574l.57.446A2.778,2.778,0,0,1,141.62,139.47Z" transform="translate(-135.7 -134)" fill="#156bf5"/>
      <rect id="Rectangle_5778" data-name="Rectangle 5778" width="0.726" height="0.726" transform="translate(13.689 10.732) rotate(-45)" fill="#156bf5"/>
      <path id="Path_58466" data-name="Path 58466" d="M16.536,4.633l-2.479.65L11.9,3.9,10.282,5.882l-2.555.145L7.582,8.586,5.6,10.2l1.383,2.156-.65,2.475,2.385.929.929,2.388,2.475-.653,2.156,1.387.936-1.147L19.676,22.2l.933-3.169,3.169-.933-2.951-2.955-.512.515L22.4,17.747l-2.377.7-.7,2.374-4.163-4.163-1.034,1.267L12.25,16.717l-2.16.57-.809-2.08L7.2,14.394l.57-2.156-1.209-1.88L8.286,8.945l.131-2.229,2.229-.127,1.412-1.728,1.877,1.205,2.16-.566.809,2.08,2.08.809-.566,2.16,1.209,1.877-1.731,1.416-.127,2.229-1.829.1.04.726,2.479-.142L18.6,14.2l1.982-1.622L19.2,10.426l.65-2.479-2.385-.929Z" transform="translate(-5.6 -3.9)" fill="#156bf5"/>
    </g>
  </g>
</svg>
