<svg xmlns="http://www.w3.org/2000/svg" width="18" height="18" viewBox="0 0 18 18">
  <path id="to-do_description" data-name="to-do description" d="M3.251,18A3.25,3.25,0,0,1,0,14.749V3.251A3.25,3.25,0,0,1,3.251,0h11.5A3.25,3.25,0,0,1,18,3.251v6.878a2.256,2.256,0,0,1-.659,1.592L11.72,17.341A2.256,2.256,0,0,1,10.129,18ZM1.5,3.251v11.5A1.751,1.751,0,0,0,3.251,16.5H10V13.25a3.248,3.248,0,0,1,3.066-3.244L13.25,10H16.5V3.251A1.751,1.751,0,0,0,14.749,1.5H3.251A1.751,1.751,0,0,0,1.5,3.251Zm10.006,9.856-.005.143v2.19L15.439,11.5H13.25A1.75,1.75,0,0,0,11.505,13.106ZM4.5,9a.75.75,0,0,1,0-1.5h3A.75.75,0,0,1,7.5,9Zm0-3a.75.75,0,0,1,0-1.5H12A.75.75,0,0,1,12,6Z" fill="#42526e"/>
</svg>
