<svg xmlns="http://www.w3.org/2000/svg" width="18.442" height="12.542" viewBox="0 0 18.442 12.542">
  <g id="todo" transform="translate(0.001 -47.445)">
    <path id="Path_67087" data-name="Path 67087" d="M54.621,58.563h-1.1v-.995h1.632a.469.469,0,0,0,.482-.479v-.172a6.194,6.194,0,0,0-5.659-6.164v-.647a.5.5,0,0,0,.021-.995H49a.5.5,0,0,0-.021.995v.641a6.211,6.211,0,0,0-5.721,6.17v.172a.5.5,0,0,0,.513.479h1.539v.995H44.36a1.4,1.4,0,0,0-1.415,1.378V61.03a.529.529,0,0,0,.513.518H55.522A.5.5,0,0,0,56,61.03V59.942A1.37,1.37,0,0,0,54.621,58.563Zm-5.71-5.955a.5.5,0,0,1,.128.987,3.427,3.427,0,0,0-2.532,1.731.5.5,0,1,1-.874-.475A4.438,4.438,0,0,1,48.91,52.608ZM46.3,57.568h6.219v.995H46.3Z" transform="translate(-40.275 -1.562)" fill="#f0690f"/>
    <path id="Path_67088" data-name="Path 67088" d="M50.038,49.413a.5.5,0,0,0,.762-.64l-.64-.762a.5.5,0,0,0-.762.64Z" transform="translate(-46.218 -0.363)" fill="#f0690f"/>
    <path id="Path_67089" data-name="Path 67089" d="M18.864,87.638a.5.5,0,0,0-.182-.68l-.862-.5a.5.5,0,1,0-.5.862l.862.5a.5.5,0,0,0,.68-.182Z" transform="translate(-16.013 -36.527)" fill="#f0690f"/>
    <path id="Path_67090" data-name="Path 67090" d="M1.563,133.828l-.98-.173a.5.5,0,0,0-.173.98l.98.173a.506.506,0,0,0,.087.008.5.5,0,0,0,.086-.988Z" transform="translate(0 -80.841)" fill="#f0690f"/>
    <path id="Path_67091" data-name="Path 67091" d="M266.762,133.135a.5.5,0,0,0-.576-.4l-.98.173a.5.5,0,0,0,.086.988.505.505,0,0,0,.087-.008l.98-.173A.5.5,0,0,0,266.762,133.135Z" transform="translate(-248.328 -79.975)" fill="#f0690f"/>
    <path id="Path_67092" data-name="Path 67092" d="M251.124,85.945a.5.5,0,0,0-.68-.182l-.862.5a.5.5,0,1,0,.5.862l.862-.5A.5.5,0,0,0,251.124,85.945Z" transform="translate(-233.83 -35.872)" fill="#f0690f"/>
    <path id="Path_67093" data-name="Path 67093" d="M220.689,49.086a.5.5,0,0,0,.7-.061l.64-.762a.5.5,0,0,0-.762-.64l-.64.762A.5.5,0,0,0,220.689,49.086Z" transform="translate(-206.799)" fill="#f0690f"/>
  </g>
</svg>
