<svg id="todo_started" data-name="todo started" xmlns="http://www.w3.org/2000/svg" width="18" height="17.999" viewBox="0 0 18 17.999">
  <path id="Path_67072" data-name="Path 67072" d="M2318.925-21923.129a5.6,5.6,0,0,1,4.891-.414,7.849,7.849,0,0,0,6.829-.785c1.01-.84,2.282-3.047,3.92-2.895s0,4.852,0,4.852l-3.92,3.891-5.428,1.02-4.506-2.539Z" transform="translate(-2317.538 21934.387)" fill="#115b8d"/>
  <path id="Ellipse_2416" data-name="Ellipse 2416" d="M9,1.5A7.5,7.5,0,1,0,16.5,9,7.508,7.508,0,0,0,9,1.5M9,0A9,9,0,1,1,0,9,9,9,0,0,1,9,0Z" transform="translate(0)" fill="#115b8d"/>
</svg>
