<svg xmlns="http://www.w3.org/2000/svg" width="9.44" height="11.22" viewBox="0 0 9.44 11.22">
  <g id="upload" transform="translate(0.125 0.756)">
    <path id="Path_53472" data-name="Path 53472" d="M30.912,7.279a.258.258,0,0,0,.274-.034l4.076-3.4a.26.26,0,0,0,.093-.2.252.252,0,0,0-.095-.2L31.186.06a.254.254,0,0,0-.274-.034.258.258,0,0,0-.148.236V2.04c-4.674.17-4.655,3.739-4.646,5.469v.206a.257.257,0,0,0,.192.251.231.231,0,0,0,.065.008.263.263,0,0,0,.226-.132c1.38-2.448,2.515-2.567,4.163-2.573V7.043A.263.263,0,0,0,30.912,7.279ZM26.639,6.8a5.486,5.486,0,0,1,.532-2.414c.65-1.211,1.91-1.81,3.853-1.829a.259.259,0,0,0,.255-.259V.812l3.412,2.834-3.41,2.843V5.008a.265.265,0,0,0-.076-.185.258.258,0,0,0-.184-.076C29.213,4.749,27.966,4.857,26.639,6.8Z" transform="translate(8.607 -26.749) rotate(90)" fill="#2978ad" stroke="#2978ad" stroke-width="0.25"/>
    <path id="Path_53473" data-name="Path 53473" d="M35.245,244.423v-4.66a.26.26,0,0,0-.519,0v4.406H26.574v-3.858a.26.26,0,0,0-.519,0v4.109a.256.256,0,0,0,.26.254h8.671A.256.256,0,0,0,35.245,244.423Z" transform="translate(-26.055 -234.335)" fill="#2978ad" stroke="#2978ad" stroke-width="0.25"/>
  </g>
</svg>
