<svg xmlns="http://www.w3.org/2000/svg" width="46" height="46" viewBox="0 0 46 46">
  <g id="upload" transform="translate(-591 -3983)">
    <g id="Rectangle_6021" data-name="Rectangle 6021" transform="translate(591 3983)" fill="none" stroke="#fff" stroke-width="1" stroke-dasharray="8">
      <rect width="46" height="46" stroke="none"/>
      <rect x="0.5" y="0.5" width="45" height="45" fill="none"/>
    </g>
    <g id="export-svgrepo-com" transform="translate(601 3994.845)">
      <g id="Group_16641" data-name="Group 16641" transform="translate(0 0)">
        <path id="Path_53473" data-name="Path 53473" d="M50.648,252.658v-12.47a.695.695,0,0,0-1.389,0v11.791H27.444v-2.3a.695.695,0,0,0-1.389,0v2.969a.686.686,0,0,0,.695.679h23.2A.685.685,0,0,0,50.648,252.658Z" transform="translate(-26.055 -229.744)" fill="#fff" stroke="#fff" stroke-width="0.25"/>
        <g id="Group_17841" data-name="Group 17841" transform="translate(5.485 0)">
          <path id="Path_59948" data-name="Path 59948" d="M21.73,12.239V-6.328" transform="translate(-15.194 6.328)" fill="none" stroke="#fff" stroke-linecap="round" stroke-width="1"/>
          <path id="Path_59949" data-name="Path 59949" d="M.53-.605,7.066-7.142,13.6-.605" transform="translate(-0.53 7.142)" fill="none" stroke="#fff" stroke-linecap="round" stroke-width="1"/>
        </g>
      </g>
    </g>
  </g>
</svg>
