<svg id="vacancy" xmlns="http://www.w3.org/2000/svg" width="12.122" height="12.122" viewBox="0 0 12.122 12.122">
  <path id="Path_48501" data-name="Path 48501" d="M7.569,75.109a.752.752,0,0,0-.27-.581A12.1,12.1,0,0,0,5.076,73.1a.066.066,0,0,1-.038-.062v-.719a1.721,1.721,0,0,0,.215-.59c.082-.007.191-.122.308-.535.152-.545,0-.641-.138-.634.349-1.6-.548-1.6-.548-1.6a.9.9,0,0,0-.994-.59,6.128,6.128,0,0,1-1.358-.011.432.432,0,0,0,.152.328c-.8.49-.619,1.568-.545,1.877-.138,0-.277.1-.129.636.117.413.227.53.308.535a1.755,1.755,0,0,0,.215.59v.714a.07.07,0,0,1-.038.062A12.391,12.391,0,0,0,.27,74.527a.752.752,0,0,0-.27.582v1.067H7.576V75.109Z" transform="translate(2.297 -66.435)" fill="#8993a4"/>
  <path id="Union_4" data-name="Union 4" d="M0,3.03V0H3.03V.6H.6V3.03Z" fill="#8993a4"/>
  <path id="Union_7" data-name="Union 7" d="M0,3.03V0H.6V2.429H3.03v.6Z" transform="translate(12.122 3.03) rotate(180)" fill="#8993a4"/>
  <path id="Union_5" data-name="Union 5" d="M0,3.03V0H.6V2.429H3.03v.6Z" transform="translate(0 9.091)" fill="#8993a4"/>
  <path id="Union_6" data-name="Union 6" d="M0,3.03V0H3.03V.6H.6V3.03Z" transform="translate(12.122 12.122) rotate(180)" fill="#8993a4"/>
</svg>
