<svg xmlns="http://www.w3.org/2000/svg" width="19.867" height="18.999" viewBox="0 0 19.867 18.999">
  <path id="star-svgrepo-com" d="M10.893,1.643l2.241,4.54a1.07,1.07,0,0,0,.806.585L18.95,7.5a1.07,1.07,0,0,1,.593,1.825l-3.626,3.534a1.07,1.07,0,0,0-.307.947l.856,4.99a1.07,1.07,0,0,1-1.552,1.128l-4.481-2.356a1.071,1.071,0,0,0-1,0L4.955,19.921A1.07,1.07,0,0,1,3.4,18.793l.856-4.99a1.07,1.07,0,0,0-.307-.947L.325,9.321A1.07,1.07,0,0,1,.918,7.5l5.011-.728a1.07,1.07,0,0,0,.806-.585l2.241-4.54A1.069,1.069,0,0,1,10.893,1.643Z" transform="translate(-0.001 -1.047)" fill="#8bb8ff"/>
</svg>
