<svg xmlns="http://www.w3.org/2000/svg" width="19.134" height="18.451" viewBox="0 0 19.134 18.451">
  <path id="chat_active" data-name="chat active" d="M14.984,3H8.15A6.125,6.125,0,0,0,2,9.15V20.768a.657.657,0,0,0,.41.615.411.411,0,0,0,.273.068,1.267,1.267,0,0,0,.478-.137,13.014,13.014,0,0,1,8.61-3.28h3.212a6.125,6.125,0,0,0,6.15-6.15V9.15A6.125,6.125,0,0,0,14.984,3ZM12.2,12.567H7.467a.683.683,0,0,1,0-1.367H12.2a.683.683,0,1,1,0,1.367Zm3.417-2.733H7.467a.683.683,0,1,1,0-1.367h8.15a.683.683,0,0,1,0,1.367Z" transform="translate(-2 -3)" fill="#274780"/>
</svg>
