<svg xmlns="http://www.w3.org/2000/svg" width="18.451" height="18.494" viewBox="0 0 18.451 18.494">
  <path id="reject_active" data-name="reject active" d="M34.451,20.611a38.84,38.84,0,0,0-1.977,4.958c-.551,2.2.08,3.855-.721,5.984-1.384,2.5-1.477,2.9-6.527,2.9a47.943,47.943,0,0,1-7.151-1.413c-.731-.188-2.075-.077-2.075-.893s.956-1.412,1.806-1.414l3.345.294a1.644,1.644,0,0,0,1.69-1.59,7.129,7.129,0,0,0-.968-4.059l-3.1-4.838a1,1,0,0,1,.307-1.335,1.08,1.08,0,0,1,1.353.522L23.9,24.434c.37.344,1.028.411.972-.322L23.338,17.1a.868.868,0,0,1,.734-1.1.892.892,0,0,1,1.208.746l1.682,6.919a.391.391,0,0,0,.723-.019l.479-6.728a.7.7,0,0,1,.842-.511.94.94,0,0,1,.79.876l-.155,6.648c.109.589.572.675.933.346l2.353-4.209c.143-.353.7-.427,1.027-.287a.963.963,0,0,1,.5.83Z" transform="translate(-16 -15.955)" fill="#bc0808"/>
</svg>
