<svg id="email_verfied" data-name="email verfied" xmlns="http://www.w3.org/2000/svg" xmlns:xlink="http://www.w3.org/1999/xlink" width="29.334" height="29.338" viewBox="0 0 29.334 29.338">
  <defs>
    <clipPath id="clip-path">
      <rect id="Rectangle_5838" data-name="Rectangle 5838" width="29.334" height="29.338" fill="#40a850"/>
    </clipPath>
  </defs>
  <g id="Group_17605" data-name="Group 17605" clip-path="url(#clip-path)">
    <path id="Path_59538" data-name="Path 59538" d="M14.641,29.329H2.648A2.523,2.523,0,0,1,.006,26.693C0,23.072.009,19.451,0,15.83a.927.927,0,0,1,.493-.874c1.194-.728,2.375-1.478,3.568-2.206a.535.535,0,0,0,.29-.524q-.011-5.193,0-10.386A1.761,1.761,0,0,1,5.776.042,2.112,2.112,0,0,1,6.219.005q6.83,0,13.66,0a.986.986,0,0,1,.674.242q2,1.649,4.016,3.267a.872.872,0,0,1,.365.756c-.007,2.44,0,4.881-.012,7.321a.609.609,0,0,0,.387.638c1.192.61,2.365,1.255,3.553,1.873a.8.8,0,0,1,.472.784q-.006,5.922,0,11.845a2.638,2.638,0,0,1-2.608,2.612c-4.027-.028-8.055-.01-12.083-.01M5.628,9.72c0,2.56,0,5.119-.006,7.679a.644.644,0,0,0,.352.642q4.136,2.477,8.254,4.983A.7.7,0,0,0,15.075,23q4.175-2.805,8.361-5.593a.544.544,0,0,0,.276-.509q-.01-5.893,0-11.787c0-.288-.088-.373-.373-.369-1.071.014-2.143.008-3.215,0a.579.579,0,0,1-.665-.6,3.551,3.551,0,0,1-.025-.415c0-.665,0-1.329,0-1.994,0-.45,0-.45-.435-.45H6.38c-.611,0-.752.14-.752.753q0,3.84,0,7.679M2.741,27.99l.025.055H3q10.964,0,21.929,0a16.124,16.124,0,0,0,2.08-.051c.086-.011.214.018.242-.072.04-.126-.117-.129-.183-.191a.709.709,0,0,0-.126-.079q-4.21-2.553-8.417-5.11a.424.424,0,0,0-.535.025q-1.114.769-2.243,1.516a1.85,1.85,0,0,1-2.149.048c-.735-.451-1.487-.875-2.222-1.327a.477.477,0,0,0-.589.008c-2.056,1.332-4.119,2.651-6.18,3.975q-.936.6-1.868,1.206M28.047,15.947a.516.516,0,0,0-.3.138q-3.88,2.574-7.757,5.151c-.132.088-.262.179-.4.263-.115.072-.135.138-.006.214.077.045.151.1.227.142q3.965,2.411,7.931,4.82c.08.048.162.164.258.1s.039-.184.039-.279q0-5.132,0-10.265ZM1.29,21.868q0,1.785,0,3.569c0,.486-.012.972.012,1.457.018.377.088.4.4.2q3.941-2.558,7.88-5.12c.271-.176.27-.181-.025-.356C7.766,20.558,6,19.462,4.19,18.429c-.86-.492-1.7-1.027-2.546-1.536-.1-.058-.2-.19-.311-.121-.094.057-.042.2-.042.308q0,2.394,0,4.788m23.641-6.949c0,.406,0,.813,0,1.219,0,.165.031.229.2.117q1.048-.706,2.1-1.4c.147-.1.114-.154-.02-.22-.693-.343-1.385-.687-2.074-1.037-.165-.084-.208-.034-.206.134.005.4,0,.793,0,1.189m-20.586.658c0-.406,0-.812,0-1.219,0-.176-.059-.214-.212-.121q-1.013.621-2.031,1.236c-.121.073-.133.131,0,.207q1.028.6,2.053,1.2c.143.084.194.045.193-.114,0-.4,0-.793,0-1.189M20.754,2.01c0,.474,0,.877,0,1.279,0,.088.042.164.137.164.517,0,1.034,0,1.55,0l.014-.065-1.7-1.381" transform="translate(0 -0.001)" fill="#40a850"/>
    <path id="Path_59539" data-name="Path 59539" d="M117.039,81.382a5.82,5.82,0,1,1,5.817-5.812,5.807,5.807,0,0,1-5.817,5.812m4.517-5.814a4.523,4.523,0,1,0-4.515,4.531,4.561,4.561,0,0,0,4.515-4.531" transform="translate(-102.365 -64.196)" fill="#40a850"/>
    <path id="Path_59540" data-name="Path 59540" d="M155.2,117.391a.626.626,0,0,1-.225.411q-1.433,1.4-2.869,2.806a.588.588,0,0,1-.92,0c-.479-.474-.943-.963-1.4-1.458a.616.616,0,0,1,.014-.883.593.593,0,0,1,.878-.005,11.148,11.148,0,0,1,.776.82c.151.173.25.153.4,0,.738-.733,1.488-1.455,2.232-2.182a.629.629,0,0,1,.734-.16.636.636,0,0,1,.375.649" transform="translate(-137.709 -107.404)" fill="#40a850"/>
  </g>
</svg>
