<svg xmlns="http://www.w3.org/2000/svg" width="40.001" height="40" viewBox="0 0 40.001 40">
  <g id="facebook" transform="translate(-495 -3606.156)">
    <path id="facebook-2" data-name="facebook" d="M-5513,18432.5a3.5,3.5,0,0,1-3.5-3.5v-32a3.5,3.5,0,0,1,3.5-3.5h35a.5.5,0,0,1,.5.5v38.5Z" transform="translate(6012 -14786.844)" fill="#3b5998" stroke="#3b5998" stroke-width="1"/>
    <path id="Path_12631" data-name="Path 12631" d="M44.559,29.48H42.474v7.747H39.315V29.48h-1.5V26.758h1.5V25A2.987,2.987,0,0,1,42.5,21.763l2.34.01v2.643h-1.7a.648.648,0,0,0-.67.742v1.6h2.361Z" transform="translate(473.492 3596.711)" fill="#fff"/>
  </g>
</svg>
