<svg xmlns="http://www.w3.org/2000/svg" width="25.081" height="24.116" viewBox="0 0 25.081 24.116">
  <g id="In" transform="translate(-454.004 -8254.989)">
    <ellipse id="Ellipse_42" data-name="Ellipse 42" cx="12.541" cy="12.058" rx="12.541" ry="12.058" transform="translate(454.004 8254.989)" fill="#007ab9"/>
    <g id="Group_13227" data-name="Group 13227" transform="translate(461.268 8261.088)">
      <path id="Path_12632" data-name="Path 12632" d="M38.652,30.755v4.283H36.169v-4c0-1-.359-1.689-1.258-1.689a1.358,1.358,0,0,0-1.274.908,1.7,1.7,0,0,0-.082.605v4.171H31.071s.033-6.768,0-7.469h2.484v1.058c0,.008-.012.016-.016.024h.016v-.024a2.466,2.466,0,0,1,2.238-1.234c1.634,0,2.859,1.067,2.859,3.361ZM28.473,23.969a1.294,1.294,0,1,0-.033,2.581h.016a1.295,1.295,0,1,0,.016-2.581ZM27.216,35.038H29.7V27.569H27.216Z" transform="translate(-27.068 -23.969)" fill="#f1f2f2"/>
    </g>
  </g>
</svg>
