<svg xmlns="http://www.w3.org/2000/svg" width="40.001" height="40" viewBox="0 0 40.001 40">
  <g id="linkedin" transform="translate(-1010.084 -3606.156)">
    <path id="Union_98" data-name="Union 98" d="M-5513,18432.5a3.5,3.5,0,0,1-3.5-3.5v-32a3.5,3.5,0,0,1,3.5-3.5h35a.5.5,0,0,1,.5.5v38.5Z" transform="translate(6527.084 -14786.844)" fill="#037ab9" stroke="#037ab9" stroke-width="1"/>
    <g id="Group_13227" data-name="Group 13227" transform="translate(1023.612 3619.242)">
      <path id="Path_12632" data-name="Path 12632" d="M41.272,32.29v5.252H38.227v-4.9c0-1.23-.44-2.071-1.542-2.071a1.666,1.666,0,0,0-1.562,1.113,2.084,2.084,0,0,0-.1.742v5.115H31.977s.041-8.3,0-9.158h3.045v1.3c-.006.01-.015.02-.02.03h.02v-.03a3.024,3.024,0,0,1,2.744-1.513c2,0,3.505,1.309,3.505,4.121ZM28.791,23.969a1.587,1.587,0,1,0-.04,3.165h.02a1.587,1.587,0,1,0,.02-3.165ZM27.249,37.542h3.044V28.384H27.249Z" transform="translate(-27.068 -23.969)" fill="#f1f2f2"/>
    </g>
  </g>
</svg>
