<svg xmlns="http://www.w3.org/2000/svg" width="40" height="40" viewBox="0 0 40 40">
  <g id="twitter" transform="translate(-495 -3666.527)">
    <g id="Rectangle_6297" data-name="Rectangle 6297" transform="translate(495 3666.527)" fill="#4da6ff" stroke="#4da6ff" stroke-width="1">
      <path d="M4,0H39a1,1,0,0,1,1,1V40a0,0,0,0,1,0,0H4a4,4,0,0,1-4-4V4A4,4,0,0,1,4,0Z" stroke="none"/>
      <path d="M4,.5H39a.5.5,0,0,1,.5.5V39a.5.5,0,0,1-.5.5H4A3.5,3.5,0,0,1,.5,36V4A3.5,3.5,0,0,1,4,.5Z" fill="none"/>
    </g>
    <path id="Exclusion_33" data-name="Exclusion 33" d="M15.137,30.274A15.093,15.093,0,0,1,5.06,26.432,15.136,15.136,0,0,0,26.43,5.061,15.136,15.136,0,0,1,15.137,30.274Zm-2.964-8.137a9.848,9.848,0,0,1-5.326-1.562,7.035,7.035,0,0,0,.829.049,6.928,6.928,0,0,0,4.316-1.488,3.476,3.476,0,0,1-3.246-2.413,3.461,3.461,0,0,0,1.57-.059,3.482,3.482,0,0,1-2.787-3.406v-.045a3.415,3.415,0,0,0,1.574.435A3.477,3.477,0,0,1,8.026,9.01a9.9,9.9,0,0,0,7.161,3.631,3.476,3.476,0,0,1,5.92-3.169,6.95,6.95,0,0,0,2.207-.843,3.488,3.488,0,0,1-1.528,1.922,6.969,6.969,0,0,0,2-.547,7.042,7.042,0,0,1-1.733,1.8c.007.158.01.31.01.449a10.226,10.226,0,0,1-2.546,6.664A9.473,9.473,0,0,1,12.173,22.137ZM2.744,6.44h0A15.4,15.4,0,0,1,6.515,2.69a15.563,15.563,0,0,0-2.08,1.745A15.375,15.375,0,0,0,2.744,6.44Z" transform="translate(499.862 3671.046)" fill="#fff"/>
  </g>
</svg>
