<svg xmlns="http://www.w3.org/2000/svg" width="24.117" height="24.116" viewBox="0 0 24.117 24.116">
  <path id="twitter_2_" data-name="twitter (2)" d="M12.058,0A12.058,12.058,0,1,0,24.117,12.058,12.06,12.06,0,0,0,12.058,0Zm5.506,9.4q.008.178.008.358A7.821,7.821,0,0,1,9.7,17.634h0a7.834,7.834,0,0,1-4.242-1.243,5.63,5.63,0,0,0,.66.038,5.553,5.553,0,0,0,3.438-1.185,2.771,2.771,0,0,1-2.586-1.922,2.759,2.759,0,0,0,1.25-.047A2.768,2.768,0,0,1,6,10.562c0-.013,0-.024,0-.035a2.749,2.749,0,0,0,1.254.346,2.77,2.77,0,0,1-.857-3.7,7.858,7.858,0,0,0,5.7,2.892,2.769,2.769,0,0,1,4.716-2.524,5.551,5.551,0,0,0,1.758-.672A2.779,2.779,0,0,1,17.355,8.4a5.52,5.52,0,0,0,1.589-.436A5.625,5.625,0,0,1,17.564,9.4Zm0,0" fill="#4da6ff"/>
</svg>
